<?xml version="1.0" encoding="UTF-8" standalone="no"?><svg xmlns="http://www.w3.org/2000/svg" xmlns:xlink="http://www.w3.org/1999/xlink" contentScriptType="application/ecmascript" contentStyleType="text/css" height="824px" preserveAspectRatio="none" style="width:939px;height:824px;" version="1.1" viewBox="0 0 939 824" width="939px" zoomAndPan="magnify"><defs><filter height="300%" id="fppo4cyqo2cc7" width="300%" x="-1" y="-1"><feGaussianBlur result="blurOut" stdDeviation="2.0"/><feColorMatrix in="blurOut" result="blurOut2" type="matrix" values="0 0 0 0 0 0 0 0 0 0 0 0 0 0 0 0 0 0 .4 0"/><feOffset dx="4.0" dy="4.0" in="blurOut2" result="blurOut3"/><feBlend in="SourceGraphic" in2="blurOut3" mode="normal"/></filter></defs><g><!--class C_0000885653978909508775--><rect fill="#FEFECE" filter="url(#fppo4cyqo2cc7)" height="48" id="C_0000885653978909508775" style="stroke: #A80036; stroke-width: 1.5;" width="175" x="293" y="205"/><ellipse cx="308" cy="221" fill="#ADD1B2" rx="11" ry="11" style="stroke: #A80036; stroke-width: 1.0;"/><path d="M310.9688,226.6406 Q310.3906,226.9375 309.75,227.0781 Q309.1094,227.2344 308.4063,227.2344 Q305.9063,227.2344 304.5781,225.5938 Q303.2656,223.9375 303.2656,220.8125 Q303.2656,217.6875 304.5781,216.0313 Q305.9063,214.375 308.4063,214.375 Q309.1094,214.375 309.75,214.5313 Q310.4063,214.6875 310.9688,214.9844 L310.9688,217.7031 Q310.3438,217.125 309.75,216.8594 Q309.1563,216.5781 308.5313,216.5781 Q307.1875,216.5781 306.5,217.6563 Q305.8125,218.7188 305.8125,220.8125 Q305.8125,222.9063 306.5,223.9844 Q307.1875,225.0469 308.5313,225.0469 Q309.1563,225.0469 309.75,224.7813 Q310.3438,224.5 310.9688,223.9219 L310.9688,226.6406 Z "/><text fill="#000000" font-family="sans-serif" font-size="12" lengthAdjust="spacingAndGlyphs" textLength="96" x="322" y="225.1543">std::shared_ptr</text><rect fill="#FFFFFF" height="15.9688" style="stroke: #000000; stroke-width: 1.0; stroke-dasharray: 2.0,2.0;" width="45" x="426" y="202"/><text fill="#000000" font-family="sans-serif" font-size="12" font-style="italic" lengthAdjust="spacingAndGlyphs" textLength="43" x="427" y="214.1387">Sensor</text><line style="stroke: #A80036; stroke-width: 1.5;" x1="294" x2="467" y1="237" y2="237"/><line style="stroke: #A80036; stroke-width: 1.5;" x1="294" x2="467" y1="245" y2="245"/><!--class C_0000517477364643921331--><rect fill="#FEFECE" filter="url(#fppo4cyqo2cc7)" height="48" id="C_0000517477364643921331" style="stroke: #A80036; stroke-width: 1.5;" width="179" x="636" y="205"/><ellipse cx="651" cy="221" fill="#ADD1B2" rx="11" ry="11" style="stroke: #A80036; stroke-width: 1.0;"/><path d="M653.9688,226.6406 Q653.3906,226.9375 652.75,227.0781 Q652.1094,227.2344 651.4063,227.2344 Q648.9063,227.2344 647.5781,225.5938 Q646.2656,223.9375 646.2656,220.8125 Q646.2656,217.6875 647.5781,216.0313 Q648.9063,214.375 651.4063,214.375 Q652.1094,214.375 652.75,214.5313 Q653.4063,214.6875 653.9688,214.9844 L653.9688,217.7031 Q653.3438,217.125 652.75,216.8594 Q652.1563,216.5781 651.5313,216.5781 Q650.1875,216.5781 649.5,217.6563 Q648.8125,218.7188 648.8125,220.8125 Q648.8125,222.9063 649.5,223.9844 Q650.1875,225.0469 651.5313,225.0469 Q652.1563,225.0469 652.75,224.7813 Q653.3438,224.5 653.9688,223.9219 L653.9688,226.6406 Z "/><text fill="#000000" font-family="sans-serif" font-size="12" lengthAdjust="spacingAndGlyphs" textLength="96" x="665" y="225.1543">std::shared_ptr</text><rect fill="#FFFFFF" height="15.9688" style="stroke: #000000; stroke-width: 1.0; stroke-dasharray: 2.0,2.0;" width="49" x="769" y="202"/><text fill="#000000" font-family="sans-serif" font-size="12" font-style="italic" lengthAdjust="spacingAndGlyphs" textLength="47" x="770" y="214.1387">Planner</text><line style="stroke: #A80036; stroke-width: 1.5;" x1="637" x2="814" y1="237" y2="237"/><line style="stroke: #A80036; stroke-width: 1.5;" x1="637" x2="814" y1="245" y2="245"/><!--class C_0001908735947263318269--><rect fill="#FEFECE" filter="url(#fppo4cyqo2cc7)" height="48" id="C_0001908735947263318269" style="stroke: #A80036; stroke-width: 1.5;" width="165" x="6" y="283"/><ellipse cx="21" cy="299" fill="#ADD1B2" rx="11" ry="11" style="stroke: #A80036; stroke-width: 1.0;"/><path d="M23.9688,304.6406 Q23.3906,304.9375 22.75,305.0781 Q22.1094,305.2344 21.4063,305.2344 Q18.9063,305.2344 17.5781,303.5938 Q16.2656,301.9375 16.2656,298.8125 Q16.2656,295.6875 17.5781,294.0313 Q18.9063,292.375 21.4063,292.375 Q22.1094,292.375 22.75,292.5313 Q23.4063,292.6875 23.9688,292.9844 L23.9688,295.7031 Q23.3438,295.125 22.75,294.8594 Q22.1563,294.5781 21.5313,294.5781 Q20.1875,294.5781 19.5,295.6563 Q18.8125,296.7188 18.8125,298.8125 Q18.8125,300.9063 19.5,301.9844 Q20.1875,303.0469 21.5313,303.0469 Q22.1563,303.0469 22.75,302.7813 Q23.3438,302.5 23.9688,301.9219 L23.9688,304.6406 Z "/><text fill="#000000" font-family="sans-serif" font-size="12" lengthAdjust="spacingAndGlyphs" textLength="96" x="35" y="303.1543">std::shared_ptr</text><rect fill="#FFFFFF" height="15.9688" style="stroke: #000000; stroke-width: 1.0; stroke-dasharray: 2.0,2.0;" width="35" x="139" y="280"/><text fill="#000000" font-family="sans-serif" font-size="12" font-style="italic" lengthAdjust="spacingAndGlyphs" textLength="33" x="140" y="292.1387">Actor</text><line style="stroke: #A80036; stroke-width: 1.5;" x1="7" x2="170" y1="315" y2="315"/><line style="stroke: #A80036; stroke-width: 1.5;" x1="7" x2="170" y1="323" y2="323"/><!--class C_0000723521372703994295--><rect fill="#FEFECE" filter="url(#fppo4cyqo2cc7)" height="48" id="C_0000723521372703994295" style="stroke: #A80036; stroke-width: 1.5;" width="147" x="294" y="502.5"/><ellipse cx="309" cy="518.5" fill="#ADD1B2" rx="11" ry="11" style="stroke: #A80036; stroke-width: 1.0;"/><path d="M311.9688,524.1406 Q311.3906,524.4375 310.75,524.5781 Q310.1094,524.7344 309.4063,524.7344 Q306.9063,524.7344 305.5781,523.0938 Q304.2656,521.4375 304.2656,518.3125 Q304.2656,515.1875 305.5781,513.5313 Q306.9063,511.875 309.4063,511.875 Q310.1094,511.875 310.75,512.0313 Q311.4063,512.1875 311.9688,512.4844 L311.9688,515.2031 Q311.3438,514.625 310.75,514.3594 Q310.1563,514.0781 309.5313,514.0781 Q308.1875,514.0781 307.5,515.1563 Q306.8125,516.2188 306.8125,518.3125 Q306.8125,520.4063 307.5,521.4844 Q308.1875,522.5469 309.5313,522.5469 Q310.1563,522.5469 310.75,522.2813 Q311.3438,522 311.9688,521.4219 L311.9688,524.1406 Z "/><text fill="#000000" font-family="sans-serif" font-size="12" lengthAdjust="spacingAndGlyphs" textLength="115" x="323" y="522.6543">EnvironmentModel</text><line style="stroke: #A80036; stroke-width: 1.5;" x1="295" x2="440" y1="534.5" y2="534.5"/><line style="stroke: #A80036; stroke-width: 1.5;" x1="295" x2="440" y1="542.5" y2="542.5"/><!--class C_0001816244285415343406--><rect fill="#FEFECE" filter="url(#fppo4cyqo2cc7)" height="60.8047" id="C_0001816244285415343406" style="stroke: #A80036; stroke-width: 1.5;" width="262" x="134.5" y="367.5"/><ellipse cx="239.25" cy="383.5" fill="#ADD1B2" rx="11" ry="11" style="stroke: #A80036; stroke-width: 1.0;"/><path d="M242.2188,389.1406 Q241.6406,389.4375 241,389.5781 Q240.3594,389.7344 239.6563,389.7344 Q237.1563,389.7344 235.8281,388.0938 Q234.5156,386.4375 234.5156,383.3125 Q234.5156,380.1875 235.8281,378.5313 Q237.1563,376.875 239.6563,376.875 Q240.3594,376.875 241,377.0313 Q241.6563,377.1875 242.2188,377.4844 L242.2188,380.2031 Q241.5938,379.625 241,379.3594 Q240.4063,379.0781 239.7813,379.0781 Q238.4375,379.0781 237.75,380.1563 Q237.0625,381.2188 237.0625,383.3125 Q237.0625,385.4063 237.75,386.4844 Q238.4375,387.5469 239.7813,387.5469 Q240.4063,387.5469 241,387.2813 Q241.5938,387 242.2188,386.4219 L242.2188,389.1406 Z "/><text fill="#000000" font-family="sans-serif" font-size="12" lengthAdjust="spacingAndGlyphs" textLength="44" x="259.75" y="387.6543">Sensor</text><line style="stroke: #A80036; stroke-width: 1.5;" x1="135.5" x2="395.5" y1="399.5" y2="399.5"/><ellipse cx="145.5" cy="411.4023" fill="#84BE84" rx="3" ry="3" style="stroke: #038048; stroke-width: 1.0;"/><text fill="#000000" font-family="sans-serif" font-size="11" lengthAdjust="spacingAndGlyphs" textLength="236" x="154.5" y="413.7104">model_environment() : EnvironmentModel</text><line style="stroke: #A80036; stroke-width: 1.5;" x1="135.5" x2="395.5" y1="420.3047" y2="420.3047"/><!--class C_0001114209697914805512--><rect fill="#FEFECE" filter="url(#fppo4cyqo2cc7)" height="48" id="C_0001114209697914805512" style="stroke: #A80036; stroke-width: 1.5;" width="120" x="431.5" y="765"/><ellipse cx="446.5" cy="781" fill="#ADD1B2" rx="11" ry="11" style="stroke: #A80036; stroke-width: 1.0;"/><path d="M449.4688,786.6406 Q448.8906,786.9375 448.25,787.0781 Q447.6094,787.2344 446.9063,787.2344 Q444.4063,787.2344 443.0781,785.5938 Q441.7656,783.9375 441.7656,780.8125 Q441.7656,777.6875 443.0781,776.0313 Q444.4063,774.375 446.9063,774.375 Q447.6094,774.375 448.25,774.5313 Q448.9063,774.6875 449.4688,774.9844 L449.4688,777.7031 Q448.8438,777.125 448.25,776.8594 Q447.6563,776.5781 447.0313,776.5781 Q445.6875,776.5781 445,777.6563 Q444.3125,778.7188 444.3125,780.8125 Q444.3125,782.9063 445,783.9844 Q445.6875,785.0469 447.0313,785.0469 Q447.6563,785.0469 448.25,784.7813 Q448.8438,784.5 449.4688,783.9219 L449.4688,786.6406 Z "/><text fill="#000000" font-family="sans-serif" font-size="12" lengthAdjust="spacingAndGlyphs" textLength="88" x="460.5" y="785.1543">SteeringAngle</text><line style="stroke: #A80036; stroke-width: 1.5;" x1="432.5" x2="550.5" y1="797" y2="797"/><line style="stroke: #A80036; stroke-width: 1.5;" x1="432.5" x2="550.5" y1="805" y2="805"/><!--class C_0000796543511279331718--><rect fill="#FEFECE" filter="url(#fppo4cyqo2cc7)" height="48" id="C_0000796543511279331718" style="stroke: #A80036; stroke-width: 1.5;" width="110" x="586.5" y="765"/><ellipse cx="601.5" cy="781" fill="#ADD1B2" rx="11" ry="11" style="stroke: #A80036; stroke-width: 1.0;"/><path d="M604.4688,786.6406 Q603.8906,786.9375 603.25,787.0781 Q602.6094,787.2344 601.9063,787.2344 Q599.4063,787.2344 598.0781,785.5938 Q596.7656,783.9375 596.7656,780.8125 Q596.7656,777.6875 598.0781,776.0313 Q599.4063,774.375 601.9063,774.375 Q602.6094,774.375 603.25,774.5313 Q603.9063,774.6875 604.4688,774.9844 L604.4688,777.7031 Q603.8438,777.125 603.25,776.8594 Q602.6563,776.5781 602.0313,776.5781 Q600.6875,776.5781 600,777.6563 Q599.3125,778.7188 599.3125,780.8125 Q599.3125,782.9063 600,783.9844 Q600.6875,785.0469 602.0313,785.0469 Q602.6563,785.0469 603.25,784.7813 Q603.8438,784.5 604.4688,783.9219 L604.4688,786.6406 Z "/><text fill="#000000" font-family="sans-serif" font-size="12" lengthAdjust="spacingAndGlyphs" textLength="78" x="615.5" y="785.1543">Acceleration</text><line style="stroke: #A80036; stroke-width: 1.5;" x1="587.5" x2="695.5" y1="797" y2="797"/><line style="stroke: #A80036; stroke-width: 1.5;" x1="587.5" x2="695.5" y1="805" y2="805"/><!--class C_0001070886243531016382--><rect fill="#FEFECE" filter="url(#fppo4cyqo2cc7)" height="48" id="C_0001070886243531016382" style="stroke: #A80036; stroke-width: 1.5;" width="76" x="731.5" y="765"/><ellipse cx="746.5" cy="781" fill="#ADD1B2" rx="11" ry="11" style="stroke: #A80036; stroke-width: 1.0;"/><path d="M749.4688,786.6406 Q748.8906,786.9375 748.25,787.0781 Q747.6094,787.2344 746.9063,787.2344 Q744.4063,787.2344 743.0781,785.5938 Q741.7656,783.9375 741.7656,780.8125 Q741.7656,777.6875 743.0781,776.0313 Q744.4063,774.375 746.9063,774.375 Q747.6094,774.375 748.25,774.5313 Q748.9063,774.6875 749.4688,774.9844 L749.4688,777.7031 Q748.8438,777.125 748.25,776.8594 Q747.6563,776.5781 747.0313,776.5781 Q745.6875,776.5781 745,777.6563 Q744.3125,778.7188 744.3125,780.8125 Q744.3125,782.9063 745,783.9844 Q745.6875,785.0469 747.0313,785.0469 Q747.6563,785.0469 748.25,784.7813 Q748.8438,784.5 749.4688,783.9219 L749.4688,786.6406 Z "/><text fill="#000000" font-family="sans-serif" font-size="12" lengthAdjust="spacingAndGlyphs" textLength="44" x="760.5" y="785.1543">Torque</text><line style="stroke: #A80036; stroke-width: 1.5;" x1="732.5" x2="806.5" y1="797" y2="797"/><line style="stroke: #A80036; stroke-width: 1.5;" x1="732.5" x2="806.5" y1="805" y2="805"/><!--class C_0001243971194173295032--><rect fill="#FEFECE" filter="url(#fppo4cyqo2cc7)" height="86.4141" id="C_0001243971194173295032" style="stroke: #A80036; stroke-width: 1.5;" width="305" x="489" y="618"/><ellipse cx="620.75" cy="634" fill="#ADD1B2" rx="11" ry="11" style="stroke: #A80036; stroke-width: 1.0;"/><path d="M623.7188,639.6406 Q623.1406,639.9375 622.5,640.0781 Q621.8594,640.2344 621.1563,640.2344 Q618.6563,640.2344 617.3281,638.5938 Q616.0156,636.9375 616.0156,633.8125 Q616.0156,630.6875 617.3281,629.0313 Q618.6563,627.375 621.1563,627.375 Q621.8594,627.375 622.5,627.5313 Q623.1563,627.6875 623.7188,627.9844 L623.7188,630.7031 Q623.0938,630.125 622.5,629.8594 Q621.9063,629.5781 621.2813,629.5781 Q619.9375,629.5781 619.25,630.6563 Q618.5625,631.7188 618.5625,633.8125 Q618.5625,635.9063 619.25,636.9844 Q619.9375,638.0469 621.2813,638.0469 Q621.9063,638.0469 622.5,637.7813 Q623.0938,637.5 623.7188,636.9219 L623.7188,639.6406 Z "/><text fill="#000000" font-family="sans-serif" font-size="12" lengthAdjust="spacingAndGlyphs" textLength="33" x="641.25" y="638.1543">Actor</text><line style="stroke: #A80036; stroke-width: 1.5;" x1="490" x2="793" y1="650" y2="650"/><rect fill="#F24D5C" height="6" style="stroke: #C82930; stroke-width: 1.0;" width="6" x="497" y="658.9023"/><text fill="#000000" font-family="sans-serif" font-size="11" lengthAdjust="spacingAndGlyphs" textLength="231" x="509" y="664.2104">set_brake_torque(const Torque &amp;) : void</text><rect fill="#F24D5C" height="6" style="stroke: #C82930; stroke-width: 1.0;" width="6" x="497" y="671.707"/><text fill="#000000" font-family="sans-serif" font-size="11" lengthAdjust="spacingAndGlyphs" textLength="252" x="509" y="677.0151">set_power_train(const Acceleration &amp;) : void</text><rect fill="#F24D5C" height="6" style="stroke: #C82930; stroke-width: 1.0;" width="6" x="497" y="684.5117"/><text fill="#000000" font-family="sans-serif" font-size="11" lengthAdjust="spacingAndGlyphs" textLength="279" x="509" y="689.8198">set_steering_angle(const SteeringAngle &amp;) : void</text><line style="stroke: #A80036; stroke-width: 1.5;" x1="490" x2="793" y1="696.4141" y2="696.4141"/><!--class C_0000740826215814649639--><rect fill="#FEFECE" filter="url(#fppo4cyqo2cc7)" height="60.8047" id="C_0000740826215814649639" style="stroke: #A80036; stroke-width: 1.5;" width="140" x="633.5" y="496"/><ellipse cx="669.2" cy="512" fill="#ADD1B2" rx="11" ry="11" style="stroke: #A80036; stroke-width: 1.0;"/><path d="M672.1688,517.6406 Q671.5906,517.9375 670.95,518.0781 Q670.3094,518.2344 669.6063,518.2344 Q667.1063,518.2344 665.7781,516.5938 Q664.4656,514.9375 664.4656,511.8125 Q664.4656,508.6875 665.7781,507.0313 Q667.1063,505.375 669.6063,505.375 Q670.3094,505.375 670.95,505.5313 Q671.6063,505.6875 672.1688,505.9844 L672.1688,508.7031 Q671.5438,508.125 670.95,507.8594 Q670.3563,507.5781 669.7313,507.5781 Q668.3875,507.5781 667.7,508.6563 Q667.0125,509.7188 667.0125,511.8125 Q667.0125,513.9063 667.7,514.9844 Q668.3875,516.0469 669.7313,516.0469 Q670.3563,516.0469 670.95,515.7813 Q671.5438,515.5 672.1688,514.9219 L672.1688,517.6406 Z "/><text fill="#000000" font-family="sans-serif" font-size="12" lengthAdjust="spacingAndGlyphs" textLength="62" x="687.8" y="516.1543">Trajectory</text><line style="stroke: #A80036; stroke-width: 1.5;" x1="634.5" x2="772.5" y1="528" y2="528"/><ellipse cx="644.5" cy="539.9023" fill="#84BE84" rx="3" ry="3" style="stroke: #038048; stroke-width: 1.0;"/><text fill="#000000" font-family="sans-serif" font-size="11" lengthAdjust="spacingAndGlyphs" textLength="114" x="653.5" y="542.2104">drive(Actor &amp;) : void</text><line style="stroke: #A80036; stroke-width: 1.5;" x1="634.5" x2="772.5" y1="548.8047" y2="548.8047"/><!--class C_0000077851926960506546--><rect fill="#FEFECE" filter="url(#fppo4cyqo2cc7)" height="73.6094" id="C_0000077851926960506546" style="stroke: #A80036; stroke-width: 1.5;" width="380" x="431.5" y="361"/><ellipse cx="593.25" cy="377" fill="#ADD1B2" rx="11" ry="11" style="stroke: #A80036; stroke-width: 1.0;"/><path d="M596.2188,382.6406 Q595.6406,382.9375 595,383.0781 Q594.3594,383.2344 593.6563,383.2344 Q591.1563,383.2344 589.8281,381.5938 Q588.5156,379.9375 588.5156,376.8125 Q588.5156,373.6875 589.8281,372.0313 Q591.1563,370.375 593.6563,370.375 Q594.3594,370.375 595,370.5313 Q595.6563,370.6875 596.2188,370.9844 L596.2188,373.7031 Q595.5938,373.125 595,372.8594 Q594.4063,372.5781 593.7813,372.5781 Q592.4375,372.5781 591.75,373.6563 Q591.0625,374.7188 591.0625,376.8125 Q591.0625,378.9063 591.75,379.9844 Q592.4375,381.0469 593.7813,381.0469 Q594.4063,381.0469 595,380.7813 Q595.5938,380.5 596.2188,379.9219 L596.2188,382.6406 Z "/><text fill="#000000" font-family="sans-serif" font-size="12" lengthAdjust="spacingAndGlyphs" textLength="48" x="613.75" y="381.1543">Planner</text><line style="stroke: #A80036; stroke-width: 1.5;" x1="432.5" x2="810.5" y1="393" y2="393"/><ellipse cx="442.5" cy="404.9023" fill="#84BE84" rx="3" ry="3" style="stroke: #038048; stroke-width: 1.0;"/><text fill="#000000" font-family="sans-serif" font-size="11" lengthAdjust="spacingAndGlyphs" textLength="114" x="451.5" y="407.2104">drive(Actor &amp;) : void</text><ellipse cx="442.5" cy="417.707" fill="#84BE84" rx="3" ry="3" style="stroke: #038048; stroke-width: 1.0;"/><text fill="#000000" font-family="sans-serif" font-size="11" lengthAdjust="spacingAndGlyphs" textLength="354" x="451.5" y="420.0151">plan_vehicle_behavior(const EnvironmentModel &amp;) : Trajectory</text><line style="stroke: #A80036; stroke-width: 1.5;" x1="432.5" x2="810.5" y1="426.6094" y2="426.6094"/><!--class C_0000978161556763682069--><rect fill="#FEFECE" filter="url(#fppo4cyqo2cc7)" height="120.0234" id="C_0000978161556763682069" style="stroke: #A80036; stroke-width: 1.5;" width="722" x="137.5" y="8"/><ellipse cx="450.75" cy="24" fill="#ADD1B2" rx="11" ry="11" style="stroke: #A80036; stroke-width: 1.0;"/><path d="M453.7188,29.6406 Q453.1406,29.9375 452.5,30.0781 Q451.8594,30.2344 451.1563,30.2344 Q448.6563,30.2344 447.3281,28.5938 Q446.0156,26.9375 446.0156,23.8125 Q446.0156,20.6875 447.3281,19.0313 Q448.6563,17.375 451.1563,17.375 Q451.8594,17.375 452.5,17.5313 Q453.1563,17.6875 453.7188,17.9844 L453.7188,20.7031 Q453.0938,20.125 452.5,19.8594 Q451.9063,19.5781 451.2813,19.5781 Q449.9375,19.5781 449.25,20.6563 Q448.5625,21.7188 448.5625,23.8125 Q448.5625,25.9063 449.25,26.9844 Q449.9375,28.0469 451.2813,28.0469 Q451.9063,28.0469 452.5,27.7813 Q453.0938,27.5 453.7188,26.9219 L453.7188,29.6406 Z "/><text fill="#000000" font-family="sans-serif" font-size="12" lengthAdjust="spacingAndGlyphs" textLength="87" x="471.25" y="28.1543">DrivingSystem</text><line style="stroke: #A80036; stroke-width: 1.5;" x1="138.5" x2="858.5" y1="40" y2="40"/><ellipse cx="148.5" cy="51.9023" fill="#84BE84" rx="3" ry="3" style="stroke: #038048; stroke-width: 1.0;"/><text fill="#000000" font-family="sans-serif" font-size="11" lengthAdjust="spacingAndGlyphs" textLength="696" x="157.5" y="54.2104">DrivingSystem(std::shared_ptr&lt;Sensor&gt; sensor, std::shared_ptr&lt;Planner&gt; planner, std::shared_ptr&lt;Actor&gt; actor) : void</text><line style="stroke: #A80036; stroke-width: 1.0; stroke-dasharray: 1.0,2.0;" x1="138.5" x2="858.5" y1="60.8047" y2="60.8047"/><ellipse cx="148.5" cy="72.707" fill="#84BE84" rx="3" ry="3" style="stroke: #038048; stroke-width: 1.0;"/><text fill="#000000" font-family="sans-serif" font-size="11" lengthAdjust="spacingAndGlyphs" textLength="98" x="157.5" y="75.0151">one_cycle() : void</text><line style="stroke: #A80036; stroke-width: 1.5;" x1="138.5" x2="858.5" y1="81.6094" y2="81.6094"/><rect fill="none" height="6" style="stroke: #C82930; stroke-width: 1.0;" width="6" x="145.5" y="90.5117"/><text fill="#000000" font-family="sans-serif" font-size="11" lengthAdjust="spacingAndGlyphs" textLength="176" x="157.5" y="95.8198">actor : std::shared_ptr&lt;Actor&gt;</text><rect fill="none" height="6" style="stroke: #C82930; stroke-width: 1.0;" width="6" x="145.5" y="103.3164"/><text fill="#000000" font-family="sans-serif" font-size="11" lengthAdjust="spacingAndGlyphs" textLength="204" x="157.5" y="108.6245">planner : std::shared_ptr&lt;Planner&gt;</text><rect fill="none" height="6" style="stroke: #C82930; stroke-width: 1.0;" width="6" x="145.5" y="116.1211"/><text fill="#000000" font-family="sans-serif" font-size="11" lengthAdjust="spacingAndGlyphs" textLength="199" x="157.5" y="121.4292">sensor : std::shared_ptr&lt;Sensor&gt;</text><!--link C_0000885653978909508775 to C_0001816244285415343406--><path d="M364.51,253.22 C344.9,281.7 311.5,330.2 288.98,362.91 " fill="none" id="C_0000885653978909508775-C_0001816244285415343406" style="stroke: #A80036; stroke-width: 1.0; stroke-dasharray: 7.0,7.0;"/><polygon fill="#A80036" points="286.01,367.22,294.3966,362.0562,288.836,363.0952,287.7969,357.5346,286.01,367.22" style="stroke: #A80036; stroke-width: 1.0;"/><!--link C_0000517477364643921331 to C_0000077851926960506546--><path d="M711.04,253.22 C694.43,279.9 666.87,324.15 646.71,356.52 " fill="none" id="C_0000517477364643921331-C_0000077851926960506546" style="stroke: #A80036; stroke-width: 1.0; stroke-dasharray: 7.0,7.0;"/><polygon fill="#A80036" points="644.04,360.81,652.1936,355.2857,646.6836,356.566,645.4032,351.0559,644.04,360.81" style="stroke: #A80036; stroke-width: 1.0;"/><!--link C_0001908735947263318269 to C_0001243971194173295032--><path d="M88.92,331.37 C90.41,358.33 96.09,403.03 116.5,435 C164.62,510.38 196.5,517.04 276.5,557 C341.23,589.33 417.64,612.88 483.78,629.24 " fill="none" id="C_0001908735947263318269-C_0001243971194173295032" style="stroke: #A80036; stroke-width: 1.0; stroke-dasharray: 7.0,7.0;"/><polygon fill="#A80036" points="488.93,630.5,481.1521,624.4581,484.0759,629.3008,479.2333,632.2246,488.93,630.5" style="stroke: #A80036; stroke-width: 1.0;"/><!--link C_0001816244285415343406 to C_0000723521372703994295--><path d="M289.41,428.66 C306.42,449.75 329.08,477.85 345.61,498.35 " fill="none" id="C_0001816244285415343406-C_0000723521372703994295" style="stroke: #A80036; stroke-width: 1.0; stroke-dasharray: 7.0,7.0;"/><polygon fill="#A80036" points="348.83,502.34,346.2802,492.8269,345.6857,498.4524,340.0601,497.8579,348.83,502.34" style="stroke: #A80036; stroke-width: 1.0;"/><!--link C_0001243971194173295032 to C_0001114209697914805512--><path d="M591.13,704.31 C568.63,723.21 542.8,744.9 523.08,761.47 " fill="none" id="C_0001243971194173295032-C_0001114209697914805512" style="stroke: #A80036; stroke-width: 1.0; stroke-dasharray: 7.0,7.0;"/><polygon fill="#A80036" points="519.22,764.71,528.6848,761.9866,523.0494,761.495,523.5409,755.8596,519.22,764.71" style="stroke: #A80036; stroke-width: 1.0;"/><!--link C_0001243971194173295032 to C_0000796543511279331718--><path d="M641.5,704.31 C641.5,722.42 641.5,743.1 641.5,759.37 " fill="none" id="C_0001243971194173295032-C_0000796543511279331718" style="stroke: #A80036; stroke-width: 1.0; stroke-dasharray: 7.0,7.0;"/><polygon fill="#A80036" points="641.5,764.71,645.5,755.71,641.5,759.71,637.5,755.71,641.5,764.71" style="stroke: #A80036; stroke-width: 1.0;"/><!--link C_0001243971194173295032 to C_0001070886243531016382--><path d="M684.48,704.31 C703.52,723.05 725.35,744.54 742.13,761.05 " fill="none" id="C_0001243971194173295032-C_0001070886243531016382" style="stroke: #A80036; stroke-width: 1.0; stroke-dasharray: 7.0,7.0;"/><polygon fill="#A80036" points="745.84,764.71,742.2488,755.5392,742.2831,761.196,736.6264,761.2302,745.84,764.71" style="stroke: #A80036; stroke-width: 1.0;"/><!--link C_0000740826215814649639 to C_0001243971194173295032--><path d="M689.59,557.24 C681.88,573.69 672.14,594.53 663.43,613.13 " fill="none" id="C_0000740826215814649639-C_0001243971194173295032" style="stroke: #A80036; stroke-width: 1.0; stroke-dasharray: 7.0,7.0;"/><polygon fill="#A80036" points="661.25,617.8,668.6818,611.3372,663.3652,613.2694,661.4329,607.9528,661.25,617.8" style="stroke: #A80036; stroke-width: 1.0;"/><!--link C_0000077851926960506546 to C_0000723521372703994295--><path d="M549.05,435.08 C507.35,455.85 455.95,481.45 418.5,500.1 " fill="none" id="C_0000077851926960506546-C_0000723521372703994295" style="stroke: #A80036; stroke-width: 1.0; stroke-dasharray: 7.0,7.0;"/><polygon fill="#A80036" points="414,502.34,423.8393,501.9054,418.475,500.1097,420.2707,494.7454,414,502.34" style="stroke: #A80036; stroke-width: 1.0;"/><!--link C_0000077851926960506546 to C_0000740826215814649639--><path d="M645,435.25 C656.43,452.88 670.09,473.96 681.34,491.32 " fill="none" id="C_0000077851926960506546-C_0000740826215814649639" style="stroke: #A80036; stroke-width: 1.0; stroke-dasharray: 7.0,7.0;"/><polygon fill="#A80036" points="684.15,495.64,682.6094,485.9124,681.4296,491.4448,675.8971,490.265,684.15,495.64" style="stroke: #A80036; stroke-width: 1.0;"/><!--link C_0000077851926960506546 to C_0001243971194173295032--><path d="M617.27,435.22 C614.25,467.33 611.53,515.44 616.5,557 C618.72,575.54 623.1,595.56 627.59,612.98 " fill="none" id="C_0000077851926960506546-C_0001243971194173295032" style="stroke: #A80036; stroke-width: 1.0; stroke-dasharray: 7.0,7.0;"/><polygon fill="#A80036" points="628.86,617.82,630.4435,608.0993,627.5903,612.9839,622.7057,610.1307,628.86,617.82" style="stroke: #A80036; stroke-width: 1.0;"/><!--link C_0000978161556763682069 to C_0001816244285415343406--><path d="M303.77,128.06 C269.89,147.18 239,172.25 218.5,205 C187.58,254.4 218.36,322.74 242.59,363.16 " fill="none" id="C_0000978161556763682069-C_0001816244285415343406" style="stroke: #A80036; stroke-width: 1.0;"/><polygon fill="#A80036" points="245.21,367.47,243.9473,357.7024,242.6103,363.199,237.1137,361.862,245.21,367.47" style="stroke: #A80036; stroke-width: 1.0;"/><rect fill="none" height="6" style="stroke: #C82930; stroke-width: 1.0;" width="6" x="221.5" y="226.5664"/><text fill="#000000" font-family="sans-serif" font-size="13" lengthAdjust="spacingAndGlyphs" textLength="43" x="231.5" y="233.5669">sensor</text><!--link C_0000978161556763682069 to C_0000885653978909508775--><path d="M454.56,128.21 C436.09,153.1 415.5,180.84 400.73,200.74 " fill="none" id="C_0000978161556763682069-C_0000885653978909508775" style="stroke: #A80036; stroke-width: 1.0;"/><polygon fill="#A80036" points="397.67,204.86,406.2314,199.9914,400.6379,200.8362,399.7932,195.2427,397.67,204.86" style="stroke: #A80036; stroke-width: 1.0;"/><rect fill="none" height="6" style="stroke: #C82930; stroke-width: 1.0;" width="6" x="435.5" y="164.0664"/><text fill="#000000" font-family="sans-serif" font-size="13" lengthAdjust="spacingAndGlyphs" textLength="43" x="445.5" y="171.0669">sensor</text><!--link C_0000978161556763682069 to C_0000077851926960506546--><path d="M515.16,128.03 C525.92,164.43 540.79,211.85 556.5,253 C570,288.37 587.84,327.45 601.41,355.97 " fill="none" id="C_0000978161556763682069-C_0000077851926960506546" style="stroke: #A80036; stroke-width: 1.0;"/><polygon fill="#A80036" points="603.72,360.81,603.4487,350.9649,601.5642,356.2986,596.2305,354.4141,603.72,360.81" style="stroke: #A80036; stroke-width: 1.0;"/><rect fill="none" height="6" style="stroke: #C82930; stroke-width: 1.0;" width="6" x="559.5" y="226.5664"/><text fill="#000000" font-family="sans-serif" font-size="13" lengthAdjust="spacingAndGlyphs" textLength="48" x="569.5" y="233.5669">planner</text><!--link C_0000978161556763682069 to C_0000517477364643921331--><path d="M583.03,128.21 C619.31,153.62 659.83,182 688.35,201.98 " fill="none" id="C_0000978161556763682069-C_0000517477364643921331" style="stroke: #A80036; stroke-width: 1.0;"/><polygon fill="#A80036" points="692.47,204.86,687.3927,196.4207,688.3745,201.9917,682.8035,202.9735,692.47,204.86" style="stroke: #A80036; stroke-width: 1.0;"/><rect fill="none" height="6" style="stroke: #C82930; stroke-width: 1.0;" width="6" x="648.5" y="164.0664"/><text fill="#000000" font-family="sans-serif" font-size="13" lengthAdjust="spacingAndGlyphs" textLength="48" x="658.5" y="171.0669">planner</text><!--link C_0000978161556763682069 to C_0001243971194173295032--><path d="M734.79,128.09 C813.49,154.83 881.5,189.17 881.5,228 C881.5,228 881.5,228 881.5,527.5 C881.5,575.59 844.12,606.35 798.86,625.98 " fill="none" id="C_0000978161556763682069-C_0001243971194173295032" style="stroke: #A80036; stroke-width: 1.0;"/><polygon fill="#A80036" points="794.18,627.97,804.0272,628.1531,798.786,626.0246,800.9145,620.7835,794.18,627.97" style="stroke: #A80036; stroke-width: 1.0;"/><rect fill="none" height="6" style="stroke: #C82930; stroke-width: 1.0;" width="6" x="884.5" y="395.5664"/><text fill="#000000" font-family="sans-serif" font-size="13" lengthAdjust="spacingAndGlyphs" textLength="33" x="894.5" y="402.5669">actor</text><!--link C_0000978161556763682069 to C_0001908735947263318269--><path d="M183.46,128.06 C158.59,137.02 138.75,147 127.5,158 C95.22,189.57 88.61,244.43 87.81,277.76 " fill="none" id="C_0000978161556763682069-C_0001908735947263318269" style="stroke: #A80036; stroke-width: 1.0;"/><polygon fill="#A80036" points="87.73,282.91,91.8582,273.9681,87.8014,277.9105,83.859,273.8538,87.73,282.91" style="stroke: #A80036; stroke-width: 1.0;"/><rect fill="none" height="6" style="stroke: #C82930; stroke-width: 1.0;" width="6" x="130.5" y="164.0664"/><text fill="#000000" font-family="sans-serif" font-size="13" lengthAdjust="spacingAndGlyphs" textLength="33" x="140.5" y="171.0669">actor</text><!--
@startuml
class "std::shared_ptr<Sensor>" as C_0000885653978909508775
class C_0000885653978909508775 {
__
}
class "std::shared_ptr<Planner>" as C_0000517477364643921331
class C_0000517477364643921331 {
__
}
class "std::shared_ptr<Actor>" as C_0001908735947263318269
class C_0001908735947263318269 {
__
}
class "EnvironmentModel" as C_0000723521372703994295
class C_0000723521372703994295 {
__
}
class "Sensor" as C_0001816244285415343406
class C_0001816244285415343406 {
+model_environment() : EnvironmentModel
__
}
class "SteeringAngle" as C_0001114209697914805512
class C_0001114209697914805512 {
__
}
class "Acceleration" as C_0000796543511279331718
class C_0000796543511279331718 {
__
}
class "Torque" as C_0001070886243531016382
class C_0001070886243531016382 {
__
}
class "Actor" as C_0001243971194173295032
class C_0001243971194173295032 {
-set_brake_torque(const Torque &) : void
-set_power_train(const Acceleration &) : void
-set_steering_angle(const SteeringAngle &) : void
__
}
class "Trajectory" as C_0000740826215814649639
class C_0000740826215814649639 {
+drive(Actor &) : void
__
}
class "Planner" as C_0000077851926960506546
class C_0000077851926960506546 {
+drive(Actor &) : void
+plan_vehicle_behavior(const EnvironmentModel &) : Trajectory
__
}
class "DrivingSystem" as C_0000978161556763682069
class C_0000978161556763682069 {
+DrivingSystem(std::shared_ptr<Sensor> sensor, std::shared_ptr<Planner> planner, std::shared_ptr<Actor> actor) : void
..
+one_cycle() : void
__
-actor : std::shared_ptr<Actor>
-planner : std::shared_ptr<Planner>
-sensor : std::shared_ptr<Sensor>
}
C_0000885653978909508775 ..> C_0001816244285415343406
C_0000517477364643921331 ..> C_0000077851926960506546
C_0001908735947263318269 ..> C_0001243971194173295032
C_0001816244285415343406 ..> C_0000723521372703994295
C_0001243971194173295032 ..> C_0001114209697914805512
C_0001243971194173295032 ..> C_0000796543511279331718
C_0001243971194173295032 ..> C_0001070886243531016382
C_0000740826215814649639 ..> C_0001243971194173295032
C_0000077851926960506546 ..> C_0000723521372703994295
C_0000077851926960506546 ..> C_0000740826215814649639
C_0000077851926960506546 ..> C_0001243971194173295032
C_0000978161556763682069 - -> C_0001816244285415343406 : -sensor
C_0000978161556763682069 - -> C_0000885653978909508775 : -sensor
C_0000978161556763682069 - -> C_0000077851926960506546 : -planner
C_0000978161556763682069 - -> C_0000517477364643921331 : -planner
C_0000978161556763682069 - -> C_0001243971194173295032 : -actor
C_0000978161556763682069 - -> C_0001908735947263318269 : -actor

@enduml

PlantUML version 1.2018.13(Mon Nov 26 18:11:51 CET 2018)
(GPL source distribution)
Java Runtime: OpenJDK Runtime Environment
JVM: OpenJDK 64-Bit Server VM
Java Version: 11.0.21+9-post-Ubuntu-0ubuntu120.04
Operating System: Linux
OS Version: 5.15.0-91-generic
Default Encoding: UTF-8
Language: de
Country: DE
--></g></svg>