<?xml version="1.0" encoding="UTF-8" standalone="no"?><svg xmlns="http://www.w3.org/2000/svg" xmlns:xlink="http://www.w3.org/1999/xlink" contentScriptType="application/ecmascript" contentStyleType="text/css" height="995px" preserveAspectRatio="none" style="width:1803px;height:995px;" version="1.1" viewBox="0 0 1803 995" width="1803px" zoomAndPan="magnify"><defs><filter height="300%" id="fy7sf3up22xpc" width="300%" x="-1" y="-1"><feGaussianBlur result="blurOut" stdDeviation="2.0"/><feColorMatrix in="blurOut" result="blurOut2" type="matrix" values="0 0 0 0 0 0 0 0 0 0 0 0 0 0 0 0 0 0 .4 0"/><feOffset dx="4.0" dy="4.0" in="blurOut2" result="blurOut3"/><feBlend in="SourceGraphic" in2="blurOut3" mode="normal"/></filter></defs><g><!--class C_0000885653978909508775--><rect fill="#FEFECE" filter="url(#fy7sf3up22xpc)" height="48" id="C_0000885653978909508775" style="stroke: #A80036; stroke-width: 1.5;" width="175" x="1439.5" y="205"/><ellipse cx="1454.5" cy="221" fill="#ADD1B2" rx="11" ry="11" style="stroke: #A80036; stroke-width: 1.0;"/><path d="M1457.4688,226.6406 Q1456.8906,226.9375 1456.25,227.0781 Q1455.6094,227.2344 1454.9063,227.2344 Q1452.4063,227.2344 1451.0781,225.5938 Q1449.7656,223.9375 1449.7656,220.8125 Q1449.7656,217.6875 1451.0781,216.0313 Q1452.4063,214.375 1454.9063,214.375 Q1455.6094,214.375 1456.25,214.5313 Q1456.9063,214.6875 1457.4688,214.9844 L1457.4688,217.7031 Q1456.8438,217.125 1456.25,216.8594 Q1455.6563,216.5781 1455.0313,216.5781 Q1453.6875,216.5781 1453,217.6563 Q1452.3125,218.7188 1452.3125,220.8125 Q1452.3125,222.9063 1453,223.9844 Q1453.6875,225.0469 1455.0313,225.0469 Q1455.6563,225.0469 1456.25,224.7813 Q1456.8438,224.5 1457.4688,223.9219 L1457.4688,226.6406 Z "/><text fill="#000000" font-family="sans-serif" font-size="12" lengthAdjust="spacingAndGlyphs" textLength="96" x="1468.5" y="225.1543">std::shared_ptr</text><rect fill="#FFFFFF" height="15.9688" style="stroke: #000000; stroke-width: 1.0; stroke-dasharray: 2.0,2.0;" width="45" x="1572.5" y="202"/><text fill="#000000" font-family="sans-serif" font-size="12" font-style="italic" lengthAdjust="spacingAndGlyphs" textLength="43" x="1573.5" y="214.1387">Sensor</text><line style="stroke: #A80036; stroke-width: 1.5;" x1="1440.5" x2="1613.5" y1="237" y2="237"/><line style="stroke: #A80036; stroke-width: 1.5;" x1="1440.5" x2="1613.5" y1="245" y2="245"/><!--class C_0000517477364643921331--><rect fill="#FEFECE" filter="url(#fy7sf3up22xpc)" height="48" id="C_0000517477364643921331" style="stroke: #A80036; stroke-width: 1.5;" width="179" x="1092.5" y="205"/><ellipse cx="1107.5" cy="221" fill="#ADD1B2" rx="11" ry="11" style="stroke: #A80036; stroke-width: 1.0;"/><path d="M1110.4688,226.6406 Q1109.8906,226.9375 1109.25,227.0781 Q1108.6094,227.2344 1107.9063,227.2344 Q1105.4063,227.2344 1104.0781,225.5938 Q1102.7656,223.9375 1102.7656,220.8125 Q1102.7656,217.6875 1104.0781,216.0313 Q1105.4063,214.375 1107.9063,214.375 Q1108.6094,214.375 1109.25,214.5313 Q1109.9063,214.6875 1110.4688,214.9844 L1110.4688,217.7031 Q1109.8438,217.125 1109.25,216.8594 Q1108.6563,216.5781 1108.0313,216.5781 Q1106.6875,216.5781 1106,217.6563 Q1105.3125,218.7188 1105.3125,220.8125 Q1105.3125,222.9063 1106,223.9844 Q1106.6875,225.0469 1108.0313,225.0469 Q1108.6563,225.0469 1109.25,224.7813 Q1109.8438,224.5 1110.4688,223.9219 L1110.4688,226.6406 Z "/><text fill="#000000" font-family="sans-serif" font-size="12" lengthAdjust="spacingAndGlyphs" textLength="96" x="1121.5" y="225.1543">std::shared_ptr</text><rect fill="#FFFFFF" height="15.9688" style="stroke: #000000; stroke-width: 1.0; stroke-dasharray: 2.0,2.0;" width="49" x="1225.5" y="202"/><text fill="#000000" font-family="sans-serif" font-size="12" font-style="italic" lengthAdjust="spacingAndGlyphs" textLength="47" x="1226.5" y="214.1387">Planner</text><line style="stroke: #A80036; stroke-width: 1.5;" x1="1093.5" x2="1270.5" y1="237" y2="237"/><line style="stroke: #A80036; stroke-width: 1.5;" x1="1093.5" x2="1270.5" y1="245" y2="245"/><!--class C_0001908735947263318269--><rect fill="#FEFECE" filter="url(#fy7sf3up22xpc)" height="48" id="C_0001908735947263318269" style="stroke: #A80036; stroke-width: 1.5;" width="165" x="809.5" y="320.5"/><ellipse cx="824.5" cy="336.5" fill="#ADD1B2" rx="11" ry="11" style="stroke: #A80036; stroke-width: 1.0;"/><path d="M827.4688,342.1406 Q826.8906,342.4375 826.25,342.5781 Q825.6094,342.7344 824.9063,342.7344 Q822.4063,342.7344 821.0781,341.0938 Q819.7656,339.4375 819.7656,336.3125 Q819.7656,333.1875 821.0781,331.5313 Q822.4063,329.875 824.9063,329.875 Q825.6094,329.875 826.25,330.0313 Q826.9063,330.1875 827.4688,330.4844 L827.4688,333.2031 Q826.8438,332.625 826.25,332.3594 Q825.6563,332.0781 825.0313,332.0781 Q823.6875,332.0781 823,333.1563 Q822.3125,334.2188 822.3125,336.3125 Q822.3125,338.4063 823,339.4844 Q823.6875,340.5469 825.0313,340.5469 Q825.6563,340.5469 826.25,340.2813 Q826.8438,340 827.4688,339.4219 L827.4688,342.1406 Z "/><text fill="#000000" font-family="sans-serif" font-size="12" lengthAdjust="spacingAndGlyphs" textLength="96" x="838.5" y="340.6543">std::shared_ptr</text><rect fill="#FFFFFF" height="15.9688" style="stroke: #000000; stroke-width: 1.0; stroke-dasharray: 2.0,2.0;" width="35" x="942.5" y="317.5"/><text fill="#000000" font-family="sans-serif" font-size="12" font-style="italic" lengthAdjust="spacingAndGlyphs" textLength="33" x="943.5" y="329.6387">Actor</text><line style="stroke: #A80036; stroke-width: 1.5;" x1="810.5" x2="973.5" y1="352.5" y2="352.5"/><line style="stroke: #A80036; stroke-width: 1.5;" x1="810.5" x2="973.5" y1="360.5" y2="360.5"/><!--class C_0001842507930156265638--><rect fill="#FEFECE" filter="url(#fy7sf3up22xpc)" height="48" id="C_0001842507930156265638" style="stroke: #A80036; stroke-width: 1.5;" width="250" x="736" y="205"/><ellipse cx="751" cy="221" fill="#ADD1B2" rx="11" ry="11" style="stroke: #A80036; stroke-width: 1.0;"/><path d="M753.9688,226.6406 Q753.3906,226.9375 752.75,227.0781 Q752.1094,227.2344 751.4063,227.2344 Q748.9063,227.2344 747.5781,225.5938 Q746.2656,223.9375 746.2656,220.8125 Q746.2656,217.6875 747.5781,216.0313 Q748.9063,214.375 751.4063,214.375 Q752.1094,214.375 752.75,214.5313 Q753.4063,214.6875 753.9688,214.9844 L753.9688,217.7031 Q753.3438,217.125 752.75,216.8594 Q752.1563,216.5781 751.5313,216.5781 Q750.1875,216.5781 749.5,217.6563 Q748.8125,218.7188 748.8125,220.8125 Q748.8125,222.9063 749.5,223.9844 Q750.1875,225.0469 751.5313,225.0469 Q752.1563,225.0469 752.75,224.7813 Q753.3438,224.5 753.9688,223.9219 L753.9688,226.6406 Z "/><text fill="#000000" font-family="sans-serif" font-size="12" lengthAdjust="spacingAndGlyphs" textLength="67" x="765" y="225.1543">std::vector</text><rect fill="#FFFFFF" height="15.9688" style="stroke: #000000; stroke-width: 1.0; stroke-dasharray: 2.0,2.0;" width="149" x="840" y="202"/><text fill="#000000" font-family="sans-serif" font-size="12" font-style="italic" lengthAdjust="spacingAndGlyphs" textLength="147" x="841" y="214.1387">std::shared_ptr&lt;Actor&gt;</text><line style="stroke: #A80036; stroke-width: 1.5;" x1="737" x2="985" y1="237" y2="237"/><line style="stroke: #A80036; stroke-width: 1.5;" x1="737" x2="985" y1="245" y2="245"/><!--class C_0000723521372703994295--><rect fill="#FEFECE" filter="url(#fy7sf3up22xpc)" height="48" id="C_0000723521372703994295" style="stroke: #A80036; stroke-width: 1.5;" width="147" x="1472.5" y="453"/><ellipse cx="1487.5" cy="469" fill="#ADD1B2" rx="11" ry="11" style="stroke: #A80036; stroke-width: 1.0;"/><path d="M1490.4688,474.6406 Q1489.8906,474.9375 1489.25,475.0781 Q1488.6094,475.2344 1487.9063,475.2344 Q1485.4063,475.2344 1484.0781,473.5938 Q1482.7656,471.9375 1482.7656,468.8125 Q1482.7656,465.6875 1484.0781,464.0313 Q1485.4063,462.375 1487.9063,462.375 Q1488.6094,462.375 1489.25,462.5313 Q1489.9063,462.6875 1490.4688,462.9844 L1490.4688,465.7031 Q1489.8438,465.125 1489.25,464.8594 Q1488.6563,464.5781 1488.0313,464.5781 Q1486.6875,464.5781 1486,465.6563 Q1485.3125,466.7188 1485.3125,468.8125 Q1485.3125,470.9063 1486,471.9844 Q1486.6875,473.0469 1488.0313,473.0469 Q1488.6563,473.0469 1489.25,472.7813 Q1489.8438,472.5 1490.4688,471.9219 L1490.4688,474.6406 Z "/><text fill="#000000" font-family="sans-serif" font-size="12" lengthAdjust="spacingAndGlyphs" textLength="115" x="1501.5" y="473.1543">EnvironmentModel</text><line style="stroke: #A80036; stroke-width: 1.5;" x1="1473.5" x2="1618.5" y1="485" y2="485"/><line style="stroke: #A80036; stroke-width: 1.5;" x1="1473.5" x2="1618.5" y1="493" y2="493"/><!--class C_0001816244285415343406--><rect fill="#FEFECE" filter="url(#fy7sf3up22xpc)" height="60.8047" id="C_0001816244285415343406" style="stroke: #A80036; stroke-width: 1.5;" width="262" x="1530" y="314"/><ellipse cx="1634.75" cy="330" fill="#ADD1B2" rx="11" ry="11" style="stroke: #A80036; stroke-width: 1.0;"/><path d="M1637.7188,335.6406 Q1637.1406,335.9375 1636.5,336.0781 Q1635.8594,336.2344 1635.1563,336.2344 Q1632.6563,336.2344 1631.3281,334.5938 Q1630.0156,332.9375 1630.0156,329.8125 Q1630.0156,326.6875 1631.3281,325.0313 Q1632.6563,323.375 1635.1563,323.375 Q1635.8594,323.375 1636.5,323.5313 Q1637.1563,323.6875 1637.7188,323.9844 L1637.7188,326.7031 Q1637.0938,326.125 1636.5,325.8594 Q1635.9063,325.5781 1635.2813,325.5781 Q1633.9375,325.5781 1633.25,326.6563 Q1632.5625,327.7188 1632.5625,329.8125 Q1632.5625,331.9063 1633.25,332.9844 Q1633.9375,334.0469 1635.2813,334.0469 Q1635.9063,334.0469 1636.5,333.7813 Q1637.0938,333.5 1637.7188,332.9219 L1637.7188,335.6406 Z "/><text fill="#000000" font-family="sans-serif" font-size="12" lengthAdjust="spacingAndGlyphs" textLength="44" x="1655.25" y="334.1543">Sensor</text><line style="stroke: #A80036; stroke-width: 1.5;" x1="1531" x2="1791" y1="346" y2="346"/><ellipse cx="1541" cy="357.9023" fill="#84BE84" rx="3" ry="3" style="stroke: #038048; stroke-width: 1.0;"/><text fill="#000000" font-family="sans-serif" font-size="11" lengthAdjust="spacingAndGlyphs" textLength="236" x="1550" y="360.2104">model_environment() : EnvironmentModel</text><line style="stroke: #A80036; stroke-width: 1.5;" x1="1531" x2="1791" y1="366.8047" y2="366.8047"/><!--class C_0000740826215814649639--><rect fill="#FEFECE" filter="url(#fy7sf3up22xpc)" height="48" id="C_0000740826215814649639" style="stroke: #A80036; stroke-width: 1.5;" width="94" x="971" y="924"/><ellipse cx="986" cy="940" fill="#ADD1B2" rx="11" ry="11" style="stroke: #A80036; stroke-width: 1.0;"/><path d="M988.9688,945.6406 Q988.3906,945.9375 987.75,946.0781 Q987.1094,946.2344 986.4063,946.2344 Q983.9063,946.2344 982.5781,944.5938 Q981.2656,942.9375 981.2656,939.8125 Q981.2656,936.6875 982.5781,935.0313 Q983.9063,933.375 986.4063,933.375 Q987.1094,933.375 987.75,933.5313 Q988.4063,933.6875 988.9688,933.9844 L988.9688,936.7031 Q988.3438,936.125 987.75,935.8594 Q987.1563,935.5781 986.5313,935.5781 Q985.1875,935.5781 984.5,936.6563 Q983.8125,937.7188 983.8125,939.8125 Q983.8125,941.9063 984.5,942.9844 Q985.1875,944.0469 986.5313,944.0469 Q987.1563,944.0469 987.75,943.7813 Q988.3438,943.5 988.9688,942.9219 L988.9688,945.6406 Z "/><text fill="#000000" font-family="sans-serif" font-size="12" lengthAdjust="spacingAndGlyphs" textLength="62" x="1000" y="944.1543">Trajectory</text><line style="stroke: #A80036; stroke-width: 1.5;" x1="972" x2="1064" y1="956" y2="956"/><line style="stroke: #A80036; stroke-width: 1.5;" x1="972" x2="1064" y1="964" y2="964"/><!--class C_0000077851926960506546--><rect fill="#FEFECE" filter="url(#fy7sf3up22xpc)" height="60.8047" id="C_0000077851926960506546" style="stroke: #A80036; stroke-width: 1.5;" width="380" x="1115" y="314"/><ellipse cx="1276.75" cy="330" fill="#ADD1B2" rx="11" ry="11" style="stroke: #A80036; stroke-width: 1.0;"/><path d="M1279.7188,335.6406 Q1279.1406,335.9375 1278.5,336.0781 Q1277.8594,336.2344 1277.1563,336.2344 Q1274.6563,336.2344 1273.3281,334.5938 Q1272.0156,332.9375 1272.0156,329.8125 Q1272.0156,326.6875 1273.3281,325.0313 Q1274.6563,323.375 1277.1563,323.375 Q1277.8594,323.375 1278.5,323.5313 Q1279.1563,323.6875 1279.7188,323.9844 L1279.7188,326.7031 Q1279.0938,326.125 1278.5,325.8594 Q1277.9063,325.5781 1277.2813,325.5781 Q1275.9375,325.5781 1275.25,326.6563 Q1274.5625,327.7188 1274.5625,329.8125 Q1274.5625,331.9063 1275.25,332.9844 Q1275.9375,334.0469 1277.2813,334.0469 Q1277.9063,334.0469 1278.5,333.7813 Q1279.0938,333.5 1279.7188,332.9219 L1279.7188,335.6406 Z "/><text fill="#000000" font-family="sans-serif" font-size="12" lengthAdjust="spacingAndGlyphs" textLength="48" x="1297.25" y="334.1543">Planner</text><line style="stroke: #A80036; stroke-width: 1.5;" x1="1116" x2="1494" y1="346" y2="346"/><ellipse cx="1126" cy="357.9023" fill="#84BE84" rx="3" ry="3" style="stroke: #038048; stroke-width: 1.0;"/><text fill="#000000" font-family="sans-serif" font-size="11" lengthAdjust="spacingAndGlyphs" textLength="354" x="1135" y="360.2104">plan_vehicle_behavior(const EnvironmentModel &amp;) : Trajectory</text><line style="stroke: #A80036; stroke-width: 1.5;" x1="1116" x2="1494" y1="366.8047" y2="366.8047"/><!--class C_0000790902628272918616--><rect fill="#FEFECE" filter="url(#fy7sf3up22xpc)" height="73.6094" id="C_0000790902628272918616" style="stroke: #A80036; stroke-width: 1.5;" width="108" x="315" y="911"/><ellipse cx="330" cy="927" fill="#EB937F" rx="11" ry="11" style="stroke: #A80036; stroke-width: 1.0;"/><path d="M334.1094,933 L326.3906,933 L326.3906,920.6094 L334.1094,920.6094 L334.1094,922.7656 L328.8438,922.7656 L328.8438,925.4375 L333.6094,925.4375 L333.6094,927.5938 L328.8438,927.5938 L328.8438,930.8438 L334.1094,930.8438 L334.1094,933 Z "/><text fill="#000000" font-family="sans-serif" font-size="12" lengthAdjust="spacingAndGlyphs" textLength="76" x="344" y="931.1543">DrivingMode</text><line style="stroke: #A80036; stroke-width: 1.5;" x1="316" x2="422" y1="943" y2="943"/><text fill="#000000" font-family="sans-serif" font-size="11" lengthAdjust="spacingAndGlyphs" textLength="40" x="321" y="957.2104">normal</text><text fill="#000000" font-family="sans-serif" font-size="11" lengthAdjust="spacingAndGlyphs" textLength="63" x="321" y="970.0151">emergency</text><line style="stroke: #A80036; stroke-width: 1.5;" x1="316" x2="422" y1="976.6094" y2="976.6094"/><!--class C_0001243971194173295032--><rect fill="#FEFECE" filter="url(#fy7sf3up22xpc)" height="81.6094" id="C_0001243971194173295032" style="stroke: #A80036; stroke-width: 1.5;" width="284" x="862" y="436"/><ellipse cx="983.25" cy="452" fill="#A9DCDF" rx="11" ry="11" style="stroke: #A80036; stroke-width: 1.0;"/><path d="M983.3594,447.3438 L982.2031,452.4219 L984.5313,452.4219 L983.3594,447.3438 Z M981.875,445.1094 L984.8594,445.1094 L988.2188,457.5 L985.7656,457.5 L985,454.4375 L981.7188,454.4375 L980.9688,457.5 L978.5313,457.5 L981.875,445.1094 Z "/><text fill="#000000" font-family="sans-serif" font-size="12" font-style="italic" lengthAdjust="spacingAndGlyphs" textLength="33" x="1003.75" y="456.1543">Actor</text><line style="stroke: #A80036; stroke-width: 1.5;" x1="863" x2="1145" y1="468" y2="468"/><ellipse cx="873" cy="479.9023" fill="#84BE84" rx="3" ry="3" style="stroke: #038048; stroke-width: 1.0;"/><text fill="#000000" font-family="sans-serif" font-size="11" lengthAdjust="spacingAndGlyphs" textLength="137" x="882" y="482.2104">~Actor() = default : void</text><line style="stroke: #A80036; stroke-width: 1.0; stroke-dasharray: 1.0,2.0;" x1="863" x2="1145" y1="488.8047" y2="488.8047"/><ellipse cx="873" cy="500.707" fill="#84BE84" rx="3" ry="3" style="stroke: #038048; stroke-width: 1.0;"/><text fill="#000000" font-family="sans-serif" font-size="11" font-style="italic" lengthAdjust="spacingAndGlyphs" textLength="258" x="882" y="503.0151">control_vehicle(const Trajectory &amp;) = 0 : void</text><line style="stroke: #A80036; stroke-width: 1.5;" x1="863" x2="1145" y1="509.6094" y2="509.6094"/><!--class C_0001762644105423916238--><rect fill="#FEFECE" filter="url(#fy7sf3up22xpc)" height="60.8047" id="C_0001762644105423916238" style="stroke: #A80036; stroke-width: 1.5;" width="311" x="332.5" y="579"/><ellipse cx="409.75" cy="595" fill="#A9DCDF" rx="11" ry="11" style="stroke: #A80036; stroke-width: 1.0;"/><path d="M409.8594,590.3438 L408.7031,595.4219 L411.0313,595.4219 L409.8594,590.3438 Z M408.375,588.1094 L411.3594,588.1094 L414.7188,600.5 L412.2656,600.5 L411.5,597.4375 L408.2188,597.4375 L407.4688,600.5 L405.0313,600.5 L408.375,588.1094 Z "/><text fill="#000000" font-family="sans-serif" font-size="12" font-style="italic" lengthAdjust="spacingAndGlyphs" textLength="148" x="430.25" y="599.1543">DrivingModeAwareActor</text><line style="stroke: #A80036; stroke-width: 1.5;" x1="333.5" x2="642.5" y1="611" y2="611"/><ellipse cx="343.5" cy="622.9023" fill="#84BE84" rx="3" ry="3" style="stroke: #038048; stroke-width: 1.0;"/><text fill="#000000" font-family="sans-serif" font-size="11" font-style="italic" lengthAdjust="spacingAndGlyphs" textLength="285" x="352.5" y="625.2104">set_driving_mode(const DrivingMode &amp;) = 0 : void</text><line style="stroke: #A80036; stroke-width: 1.5;" x1="333.5" x2="642.5" y1="631.8047" y2="631.8047"/><!--class C_0000796543511279331718--><rect fill="#FEFECE" filter="url(#fy7sf3up22xpc)" height="60.8047" id="C_0000796543511279331718" style="stroke: #A80036; stroke-width: 1.5;" width="209" x="639.5" y="917.5"/><ellipse cx="700.75" cy="933.5" fill="#ADD1B2" rx="11" ry="11" style="stroke: #A80036; stroke-width: 1.0;"/><path d="M703.7188,939.1406 Q703.1406,939.4375 702.5,939.5781 Q701.8594,939.7344 701.1563,939.7344 Q698.6563,939.7344 697.3281,938.0938 Q696.0156,936.4375 696.0156,933.3125 Q696.0156,930.1875 697.3281,928.5313 Q698.6563,926.875 701.1563,926.875 Q701.8594,926.875 702.5,927.0313 Q703.1563,927.1875 703.7188,927.4844 L703.7188,930.2031 Q703.0938,929.625 702.5,929.3594 Q701.9063,929.0781 701.2813,929.0781 Q699.9375,929.0781 699.25,930.1563 Q698.5625,931.2188 698.5625,933.3125 Q698.5625,935.4063 699.25,936.4844 Q699.9375,937.5469 701.2813,937.5469 Q701.9063,937.5469 702.5,937.2813 Q703.0938,937 703.7188,936.4219 L703.7188,939.1406 Z "/><text fill="#000000" font-family="sans-serif" font-size="12" lengthAdjust="spacingAndGlyphs" textLength="78" x="721.25" y="937.6543">Acceleration</text><line style="stroke: #A80036; stroke-width: 1.5;" x1="640.5" x2="847.5" y1="949.5" y2="949.5"/><line style="stroke: #A80036; stroke-width: 1.5;" x1="640.5" x2="847.5" y1="957.5" y2="957.5"/><ellipse cx="650.5" cy="969.4023" fill="none" rx="3" ry="3" style="stroke: #038048; stroke-width: 1.0;"/><text fill="#000000" font-family="sans-serif" font-size="11" lengthAdjust="spacingAndGlyphs" textLength="183" x="659.5" y="971.7104">value : MetresPerSquareSecond</text><!--class C_0001971792373968053805--><rect fill="#FEFECE" filter="url(#fy7sf3up22xpc)" height="94.4141" id="C_0001971792373968053805" style="stroke: #A80036; stroke-width: 1.5;" width="354" x="827" y="720.5"/><ellipse cx="965.25" cy="736.5" fill="#ADD1B2" rx="11" ry="11" style="stroke: #A80036; stroke-width: 1.0;"/><path d="M968.2188,742.1406 Q967.6406,742.4375 967,742.5781 Q966.3594,742.7344 965.6563,742.7344 Q963.1563,742.7344 961.8281,741.0938 Q960.5156,739.4375 960.5156,736.3125 Q960.5156,733.1875 961.8281,731.5313 Q963.1563,729.875 965.6563,729.875 Q966.3594,729.875 967,730.0313 Q967.6563,730.1875 968.2188,730.4844 L968.2188,733.2031 Q967.5938,732.625 967,732.3594 Q966.4063,732.0781 965.7813,732.0781 Q964.4375,732.0781 963.75,733.1563 Q963.0625,734.2188 963.0625,736.3125 Q963.0625,738.4063 963.75,739.4844 Q964.4375,740.5469 965.7813,740.5469 Q966.4063,740.5469 967,740.2813 Q967.5938,740 968.2188,739.4219 L968.2188,742.1406 Z "/><text fill="#000000" font-family="sans-serif" font-size="12" lengthAdjust="spacingAndGlyphs" textLength="69" x="985.75" y="740.6543">PowerTrain</text><line style="stroke: #A80036; stroke-width: 1.5;" x1="828" x2="1180" y1="752.5" y2="752.5"/><ellipse cx="838" cy="764.4023" fill="#84BE84" rx="3" ry="3" style="stroke: #038048; stroke-width: 1.0;"/><text fill="#000000" font-family="sans-serif" font-size="11" lengthAdjust="spacingAndGlyphs" textLength="328" x="847" y="766.7104">PowerTrain(const Acceleration &amp; acceleration_limit) : void</text><line style="stroke: #A80036; stroke-width: 1.0; stroke-dasharray: 1.0,2.0;" x1="828" x2="1180" y1="773.3047" y2="773.3047"/><ellipse cx="838" cy="785.207" fill="#84BE84" rx="3" ry="3" style="stroke: #038048; stroke-width: 1.0;"/><text fill="#000000" font-family="sans-serif" font-size="11" lengthAdjust="spacingAndGlyphs" textLength="233" x="847" y="787.5151">control_vehicle(const Trajectory &amp;) : void</text><line style="stroke: #A80036; stroke-width: 1.5;" x1="828" x2="1180" y1="794.1094" y2="794.1094"/><rect fill="none" height="6" style="stroke: #C82930; stroke-width: 1.0;" width="6" x="835" y="803.0117"/><text fill="#000000" font-family="sans-serif" font-size="11" lengthAdjust="spacingAndGlyphs" textLength="180" x="847" y="808.3198">acceleration_limit : Acceleration</text><!--class C_0001143070539853614602--><rect fill="#FEFECE" filter="url(#fy7sf3up22xpc)" height="132.8281" id="C_0001143070539853614602" style="stroke: #A80036; stroke-width: 1.5;" width="370" x="422" y="701"/><ellipse cx="584.75" cy="717" fill="#ADD1B2" rx="11" ry="11" style="stroke: #A80036; stroke-width: 1.0;"/><path d="M587.7188,722.6406 Q587.1406,722.9375 586.5,723.0781 Q585.8594,723.2344 585.1563,723.2344 Q582.6563,723.2344 581.3281,721.5938 Q580.0156,719.9375 580.0156,716.8125 Q580.0156,713.6875 581.3281,712.0313 Q582.6563,710.375 585.1563,710.375 Q585.8594,710.375 586.5,710.5313 Q587.1563,710.6875 587.7188,710.9844 L587.7188,713.7031 Q587.0938,713.125 586.5,712.8594 Q585.9063,712.5781 585.2813,712.5781 Q583.9375,712.5781 583.25,713.6563 Q582.5625,714.7188 582.5625,716.8125 Q582.5625,718.9063 583.25,719.9844 Q583.9375,721.0469 585.2813,721.0469 Q585.9063,721.0469 586.5,720.7813 Q587.0938,720.5 587.7188,719.9219 L587.7188,722.6406 Z "/><text fill="#000000" font-family="sans-serif" font-size="12" lengthAdjust="spacingAndGlyphs" textLength="36" x="605.25" y="721.1543">Brake</text><line style="stroke: #A80036; stroke-width: 1.5;" x1="423" x2="791" y1="733" y2="733"/><ellipse cx="433" cy="744.9023" fill="#84BE84" rx="3" ry="3" style="stroke: #038048; stroke-width: 1.0;"/><text fill="#000000" font-family="sans-serif" font-size="11" lengthAdjust="spacingAndGlyphs" textLength="298" x="442" y="747.2104">Brake(const Acceleration &amp; deceleration_limit) : void</text><line style="stroke: #A80036; stroke-width: 1.0; stroke-dasharray: 1.0,2.0;" x1="423" x2="791" y1="753.8047" y2="753.8047"/><ellipse cx="433" cy="765.707" fill="#84BE84" rx="3" ry="3" style="stroke: #038048; stroke-width: 1.0;"/><text fill="#000000" font-family="sans-serif" font-size="11" lengthAdjust="spacingAndGlyphs" textLength="233" x="442" y="768.0151">control_vehicle(const Trajectory &amp;) : void</text><rect fill="#F24D5C" height="6" style="stroke: #C82930; stroke-width: 1.0;" width="6" x="430" y="775.5117"/><text fill="#000000" font-family="sans-serif" font-size="11" lengthAdjust="spacingAndGlyphs" textLength="344" x="442" y="780.8198">get_current_deceleration_limit() const : const Acceleration &amp;</text><ellipse cx="433" cy="791.3164" fill="#84BE84" rx="3" ry="3" style="stroke: #038048; stroke-width: 1.0;"/><text fill="#000000" font-family="sans-serif" font-size="11" lengthAdjust="spacingAndGlyphs" textLength="341" x="442" y="793.6245">set_driving_mode(const DrivingMode &amp; driving_mode) : void</text><line style="stroke: #A80036; stroke-width: 1.5;" x1="423" x2="791" y1="800.2188" y2="800.2188"/><rect fill="none" height="6" style="stroke: #C82930; stroke-width: 1.0;" width="6" x="430" y="809.1211"/><text fill="#000000" font-family="sans-serif" font-size="11" lengthAdjust="spacingAndGlyphs" textLength="204" x="442" y="814.4292">current_driving_mode : DrivingMode</text><rect fill="none" height="6" style="stroke: #C82930; stroke-width: 1.0;" width="6" x="430" y="821.9258"/><text fill="#000000" font-family="sans-serif" font-size="11" lengthAdjust="spacingAndGlyphs" textLength="181" x="442" y="827.2339">deceleration_limit : Acceleration</text><!--class C_0001070886243531016382--><rect fill="#FEFECE" filter="url(#fy7sf3up22xpc)" height="60.8047" id="C_0001070886243531016382" style="stroke: #A80036; stroke-width: 1.5;" width="142" x="90" y="917.5"/><ellipse cx="134.75" cy="933.5" fill="#ADD1B2" rx="11" ry="11" style="stroke: #A80036; stroke-width: 1.0;"/><path d="M137.7188,939.1406 Q137.1406,939.4375 136.5,939.5781 Q135.8594,939.7344 135.1563,939.7344 Q132.6563,939.7344 131.3281,938.0938 Q130.0156,936.4375 130.0156,933.3125 Q130.0156,930.1875 131.3281,928.5313 Q132.6563,926.875 135.1563,926.875 Q135.8594,926.875 136.5,927.0313 Q137.1563,927.1875 137.7188,927.4844 L137.7188,930.2031 Q137.0938,929.625 136.5,929.3594 Q135.9063,929.0781 135.2813,929.0781 Q133.9375,929.0781 133.25,930.1563 Q132.5625,931.2188 132.5625,933.3125 Q132.5625,935.4063 133.25,936.4844 Q133.9375,937.5469 135.2813,937.5469 Q135.9063,937.5469 136.5,937.2813 Q137.0938,937 137.7188,936.4219 L137.7188,939.1406 Z "/><text fill="#000000" font-family="sans-serif" font-size="12" lengthAdjust="spacingAndGlyphs" textLength="44" x="155.25" y="937.6543">Torque</text><line style="stroke: #A80036; stroke-width: 1.5;" x1="91" x2="231" y1="949.5" y2="949.5"/><line style="stroke: #A80036; stroke-width: 1.5;" x1="91" x2="231" y1="957.5" y2="957.5"/><ellipse cx="101" cy="969.4023" fill="none" rx="3" ry="3" style="stroke: #038048; stroke-width: 1.0;"/><text fill="#000000" font-family="sans-serif" font-size="11" lengthAdjust="spacingAndGlyphs" textLength="116" x="110" y="971.7104">value : NewtonMetre</text><!--class C_0000346611438033482912--><rect fill="#FEFECE" filter="url(#fy7sf3up22xpc)" height="107.2188" id="C_0000346611438033482912" style="stroke: #A80036; stroke-width: 1.5;" width="310" x="6" y="714"/><ellipse cx="111.25" cy="730" fill="#ADD1B2" rx="11" ry="11" style="stroke: #A80036; stroke-width: 1.0;"/><path d="M114.2188,735.6406 Q113.6406,735.9375 113,736.0781 Q112.3594,736.2344 111.6563,736.2344 Q109.1563,736.2344 107.8281,734.5938 Q106.5156,732.9375 106.5156,729.8125 Q106.5156,726.6875 107.8281,725.0313 Q109.1563,723.375 111.6563,723.375 Q112.3594,723.375 113,723.5313 Q113.6563,723.6875 114.2188,723.9844 L114.2188,726.7031 Q113.5938,726.125 113,725.8594 Q112.4063,725.5781 111.7813,725.5781 Q110.4375,725.5781 109.75,726.6563 Q109.0625,727.7188 109.0625,729.8125 Q109.0625,731.9063 109.75,732.9844 Q110.4375,734.0469 111.7813,734.0469 Q112.4063,734.0469 113,733.7813 Q113.5938,733.5 114.2188,732.9219 L114.2188,735.6406 Z "/><text fill="#000000" font-family="sans-serif" font-size="12" lengthAdjust="spacingAndGlyphs" textLength="91" x="131.75" y="734.1543">SteeringWheel</text><line style="stroke: #A80036; stroke-width: 1.5;" x1="7" x2="315" y1="746" y2="746"/><ellipse cx="17" cy="757.9023" fill="#84BE84" rx="3" ry="3" style="stroke: #038048; stroke-width: 1.0;"/><text fill="#000000" font-family="sans-serif" font-size="11" lengthAdjust="spacingAndGlyphs" textLength="284" x="26" y="760.2104">SteeringWheel(const Torque &amp; torque_limit) : void</text><line style="stroke: #A80036; stroke-width: 1.0; stroke-dasharray: 1.0,2.0;" x1="7" x2="315" y1="766.8047" y2="766.8047"/><ellipse cx="17" cy="778.707" fill="#84BE84" rx="3" ry="3" style="stroke: #038048; stroke-width: 1.0;"/><text fill="#000000" font-family="sans-serif" font-size="11" lengthAdjust="spacingAndGlyphs" textLength="233" x="26" y="781.0151">control_vehicle(const Trajectory &amp;) : void</text><ellipse cx="17" cy="791.5117" fill="#84BE84" rx="3" ry="3" style="stroke: #038048; stroke-width: 1.0;"/><text fill="#000000" font-family="sans-serif" font-size="11" lengthAdjust="spacingAndGlyphs" textLength="261" x="26" y="793.8198">set_driving_mode(const DrivingMode &amp;) : void</text><line style="stroke: #A80036; stroke-width: 1.5;" x1="7" x2="315" y1="800.4141" y2="800.4141"/><rect fill="none" height="6" style="stroke: #C82930; stroke-width: 1.0;" width="6" x="14" y="809.3164"/><text fill="#000000" font-family="sans-serif" font-size="11" lengthAdjust="spacingAndGlyphs" textLength="119" x="26" y="814.6245">torque_limit : Torque</text><!--class C_0000978161556763682069--><rect fill="#FEFECE" filter="url(#fy7sf3up22xpc)" height="120.0234" id="C_0000978161556763682069" style="stroke: #A80036; stroke-width: 1.5;" width="720" x="939" y="8"/><ellipse cx="1251.25" cy="24" fill="#ADD1B2" rx="11" ry="11" style="stroke: #A80036; stroke-width: 1.0;"/><path d="M1254.2188,29.6406 Q1253.6406,29.9375 1253,30.0781 Q1252.3594,30.2344 1251.6563,30.2344 Q1249.1563,30.2344 1247.8281,28.5938 Q1246.5156,26.9375 1246.5156,23.8125 Q1246.5156,20.6875 1247.8281,19.0313 Q1249.1563,17.375 1251.6563,17.375 Q1252.3594,17.375 1253,17.5313 Q1253.6563,17.6875 1254.2188,17.9844 L1254.2188,20.7031 Q1253.5938,20.125 1253,19.8594 Q1252.4063,19.5781 1251.7813,19.5781 Q1250.4375,19.5781 1249.75,20.6563 Q1249.0625,21.7188 1249.0625,23.8125 Q1249.0625,25.9063 1249.75,26.9844 Q1250.4375,28.0469 1251.7813,28.0469 Q1252.4063,28.0469 1253,27.7813 Q1253.5938,27.5 1254.2188,26.9219 L1254.2188,29.6406 Z "/><text fill="#000000" font-family="sans-serif" font-size="12" lengthAdjust="spacingAndGlyphs" textLength="87" x="1271.75" y="28.1543">DrivingSystem</text><line style="stroke: #A80036; stroke-width: 1.5;" x1="940" x2="1658" y1="40" y2="40"/><ellipse cx="950" cy="51.9023" fill="#84BE84" rx="3" ry="3" style="stroke: #038048; stroke-width: 1.0;"/><text fill="#000000" font-family="sans-serif" font-size="11" lengthAdjust="spacingAndGlyphs" textLength="694" x="959" y="54.2104">DrivingSystem(std::shared_ptr&lt;Sensor&gt; sensor, std::shared_ptr&lt;Planner&gt; planner, DrivingSystem::Actors actors) : void</text><line style="stroke: #A80036; stroke-width: 1.0; stroke-dasharray: 1.0,2.0;" x1="940" x2="1658" y1="60.8047" y2="60.8047"/><ellipse cx="950" cy="72.707" fill="#84BE84" rx="3" ry="3" style="stroke: #038048; stroke-width: 1.0;"/><text fill="#000000" font-family="sans-serif" font-size="11" lengthAdjust="spacingAndGlyphs" textLength="98" x="959" y="75.0151">one_cycle() : void</text><line style="stroke: #A80036; stroke-width: 1.5;" x1="940" x2="1658" y1="81.6094" y2="81.6094"/><rect fill="none" height="6" style="stroke: #C82930; stroke-width: 1.0;" width="6" x="947" y="90.5117"/><text fill="#000000" font-family="sans-serif" font-size="11" lengthAdjust="spacingAndGlyphs" textLength="174" x="959" y="95.8198">actors : DrivingSystem::Actors</text><rect fill="none" height="6" style="stroke: #C82930; stroke-width: 1.0;" width="6" x="947" y="103.3164"/><text fill="#000000" font-family="sans-serif" font-size="11" lengthAdjust="spacingAndGlyphs" textLength="204" x="959" y="108.6245">planner : std::shared_ptr&lt;Planner&gt;</text><rect fill="none" height="6" style="stroke: #C82930; stroke-width: 1.0;" width="6" x="947" y="116.1211"/><text fill="#000000" font-family="sans-serif" font-size="11" lengthAdjust="spacingAndGlyphs" textLength="199" x="959" y="121.4292">sensor : std::shared_ptr&lt;Sensor&gt;</text><!--link C_0000885653978909508775 to C_0001816244285415343406--><path d="M1554.44,253.24 C1573.9,269.73 1600.3,292.09 1621.96,310.43 " fill="none" id="C_0000885653978909508775-C_0001816244285415343406" style="stroke: #A80036; stroke-width: 1.0; stroke-dasharray: 7.0,7.0;"/><polygon fill="#A80036" points="1625.94,313.81,1621.6548,304.9423,1622.1236,310.5796,1616.4862,311.0485,1625.94,313.81" style="stroke: #A80036; stroke-width: 1.0;"/><!--link C_0000517477364643921331 to C_0000077851926960506546--><path d="M1207.19,253.24 C1224.98,269.66 1249.08,291.9 1268.91,310.2 " fill="none" id="C_0000517477364643921331-C_0000077851926960506546" style="stroke: #A80036; stroke-width: 1.0; stroke-dasharray: 7.0,7.0;"/><polygon fill="#A80036" points="1272.82,313.81,1268.9155,304.7682,1269.1443,310.4204,1263.4921,310.6492,1272.82,313.81" style="stroke: #A80036; stroke-width: 1.0;"/><!--link C_0001908735947263318269 to C_0001243971194173295032--><path d="M911.77,368.53 C926.78,386.03 947.89,410.62 966.12,431.87 " fill="none" id="C_0001908735947263318269-C_0001243971194173295032" style="stroke: #A80036; stroke-width: 1.0; stroke-dasharray: 7.0,7.0;"/><polygon fill="#A80036" points="969.49,435.79,966.6523,426.3588,966.229,431.9998,960.588,431.5764,969.49,435.79" style="stroke: #A80036; stroke-width: 1.0;"/><!--link C_0001842507930156265638 to C_0001908735947263318269--><path d="M867.35,253.24 C872.24,271.15 879.02,295.98 884.23,315.07 " fill="none" id="C_0001842507930156265638-C_0001908735947263318269" style="stroke: #A80036; stroke-width: 1.0; stroke-dasharray: 7.0,7.0;"/><polygon fill="#A80036" points="885.66,320.29,887.1291,310.5513,884.3336,315.4692,879.4157,312.6736,885.66,320.29" style="stroke: #A80036; stroke-width: 1.0;"/><!--link C_0001816244285415343406 to C_0000723521372703994295--><path d="M1634.9,375.11 C1615.44,397.2 1589.05,427.15 1570.09,448.67 " fill="none" id="C_0001816244285415343406-C_0000723521372703994295" style="stroke: #A80036; stroke-width: 1.0; stroke-dasharray: 7.0,7.0;"/><polygon fill="#A80036" points="1566.63,452.58,1575.5824,448.4746,1569.9367,448.8296,1569.5817,443.1839,1566.63,452.58" style="stroke: #A80036; stroke-width: 1.0;"/><!--link C_0000077851926960506546 to C_0000723521372703994295--><path d="M1359.69,375.11 C1401.46,397.73 1458.45,428.59 1498.36,450.2 " fill="none" id="C_0000077851926960506546-C_0000723521372703994295" style="stroke: #A80036; stroke-width: 1.0; stroke-dasharray: 7.0,7.0;"/><polygon fill="#A80036" points="1503.14,452.79,1497.1348,444.9838,1498.7445,450.4067,1493.3216,452.0165,1503.14,452.79" style="stroke: #A80036; stroke-width: 1.0;"/><!--link C_0000077851926960506546 to C_0000740826215814649639--><path d="M1305,375.04 C1305,401.49 1305,441.34 1305,476 C1305,476 1305,476 1305,768.5 C1305,877.74 1153.23,922.49 1070.42,938.78 " fill="none" id="C_0000077851926960506546-C_0000740826215814649639" style="stroke: #A80036; stroke-width: 1.0; stroke-dasharray: 7.0,7.0;"/><polygon fill="#A80036" points="1065.07,939.82,1074.6625,942.0525,1069.9804,938.8779,1073.1551,934.1958,1065.07,939.82" style="stroke: #A80036; stroke-width: 1.0;"/><!--link C_0001243971194173295032 to C_0000740826215814649639--><path d="M1055.48,518.02 C1102.78,558.34 1169.68,625.3 1198,701 C1218.71,756.36 1226.6,782.27 1198,834 C1171.01,882.81 1113.13,913.38 1070.25,930.23 " fill="none" id="C_0001243971194173295032-C_0000740826215814649639" style="stroke: #A80036; stroke-width: 1.0; stroke-dasharray: 7.0,7.0;"/><polygon fill="#A80036" points="1065.36,932.12,1075.1976,932.5904,1070.0208,930.3098,1072.3014,925.133,1065.36,932.12" style="stroke: #A80036; stroke-width: 1.0;"/><!--link C_0001762644105423916238 to C_0000790902628272918616--><path d="M451.44,640.33 C434.22,656.44 415.07,677.78 404,701 C372.24,767.64 367.3,855.11 367.52,905.78 " fill="none" id="C_0001762644105423916238-C_0000790902628272918616" style="stroke: #A80036; stroke-width: 1.0; stroke-dasharray: 7.0,7.0;"/><polygon fill="#A80036" points="367.56,910.87,371.5085,901.8473,367.5314,905.8701,363.5086,901.893,367.56,910.87" style="stroke: #A80036; stroke-width: 1.0;"/><!--link C_0001243971194173295032 to C_0001762644105423916238--><path d="M842.21,518.92 C765.26,538.38 674.99,561.21 604.83,578.95 " fill="none" id="C_0001243971194173295032-C_0001762644105423916238" style="stroke: #A80036; stroke-width: 1.0;"/><polygon fill="none" points="840.87,512.04,861.98,513.92,844.3,525.61,840.87,512.04" style="stroke: #A80036; stroke-width: 1.0;"/><!--link C_0001971792373968053805 to C_0000740826215814649639--><path d="M1007.64,814.93 C1010.22,847.8 1013.59,890.82 1015.78,918.69 " fill="none" id="C_0001971792373968053805-C_0000740826215814649639" style="stroke: #A80036; stroke-width: 1.0; stroke-dasharray: 7.0,7.0;"/><polygon fill="#A80036" points="1016.17,923.71,1019.4374,914.4189,1015.7701,918.726,1011.4631,915.0587,1016.17,923.71" style="stroke: #A80036; stroke-width: 1.0;"/><!--link C_0001971792373968053805 to C_0000796543511279331718--><path d="M925.96,822.08 C880.41,853.35 824.66,891.62 786.97,917.5 " fill="none" id="C_0001971792373968053805-C_0000796543511279331718" style="stroke: #A80036; stroke-width: 1.0;"/><polygon fill="#FFFFFF" points="936.71,814.7,929.4996,814.7989,926.8177,821.4927,934.0281,821.3938,936.71,814.7" style="stroke: #A80036; stroke-width: 1.0;"/><rect fill="none" height="6" style="stroke: #C82930; stroke-width: 1.0;" width="6" x="862" y="870.0664"/><text fill="#000000" font-family="sans-serif" font-size="13" lengthAdjust="spacingAndGlyphs" textLength="112" x="872" y="877.0669">acceleration_limit</text><!--link C_0001243971194173295032 to C_0001971792373968053805--><path d="M1004,538.26 C1004,592.36 1004,670.66 1004,720.05 " fill="none" id="C_0001243971194173295032-C_0001971792373968053805" style="stroke: #A80036; stroke-width: 1.0;"/><polygon fill="none" points="997,538.11,1004,518.11,1011,538.11,997,538.11" style="stroke: #A80036; stroke-width: 1.0;"/><!--link C_0001143070539853614602 to C_0000740826215814649639--><path d="M792.07,829.12 C798.1,830.81 804.09,832.44 810,834 C873.63,850.8 899.34,828.89 955,864 C976.3,877.44 993.06,900.8 1003.93,919.32 " fill="none" id="C_0001143070539853614602-C_0000740826215814649639" style="stroke: #A80036; stroke-width: 1.0; stroke-dasharray: 7.0,7.0;"/><polygon fill="#A80036" points="1006.56,923.92,1005.5608,914.122,1004.0762,919.5805,998.6177,918.096,1006.56,923.92" style="stroke: #A80036; stroke-width: 1.0;"/><!--link C_0001143070539853614602 to C_0000796543511279331718--><path d="M635.96,845.93 C642.27,858.27 649.61,870.44 658,881 C668.88,894.71 683.21,907.17 697.04,917.48 " fill="none" id="C_0001143070539853614602-C_0000796543511279331718" style="stroke: #A80036; stroke-width: 1.0;"/><polygon fill="#FFFFFF" points="630.23,834.09,629.2477,841.2339,635.4643,844.8882,636.4466,837.7443,630.23,834.09" style="stroke: #A80036; stroke-width: 1.0;"/><rect fill="none" height="6" style="stroke: #C82930; stroke-width: 1.0;" width="6" x="661" y="870.0664"/><text fill="#000000" font-family="sans-serif" font-size="13" lengthAdjust="spacingAndGlyphs" textLength="113" x="671" y="877.0669">deceleration_limit</text><!--link C_0001143070539853614602 to C_0000790902628272918616--><path d="M508.75,842.19 C477.09,865.93 443.41,891.19 417.05,910.96 " fill="none" id="C_0001143070539853614602-C_0000790902628272918616" style="stroke: #A80036; stroke-width: 1.0;"/><polygon fill="#FFFFFF" points="519.39,834.21,512.19,834.61,509.79,841.41,516.99,841.01,519.39,834.21" style="stroke: #A80036; stroke-width: 1.0;"/><rect fill="none" height="6" style="stroke: #C82930; stroke-width: 1.0;" width="6" x="477" y="870.0664"/><text fill="#000000" font-family="sans-serif" font-size="13" lengthAdjust="spacingAndGlyphs" textLength="139" x="487" y="877.0669">current_driving_mode</text><!--link C_0001762644105423916238 to C_0001143070539853614602--><path d="M522.87,656.22 C533.5,670.14 545.39,685.73 556.81,700.71 " fill="none" id="C_0001762644105423916238-C_0001143070539853614602" style="stroke: #A80036; stroke-width: 1.0;"/><polygon fill="none" points="517.23,660.36,510.66,640.21,528.36,651.87,517.23,660.36" style="stroke: #A80036; stroke-width: 1.0;"/><!--link C_0000346611438033482912 to C_0000740826215814649639--><path d="M316.02,812.65 C345.13,820.27 375.4,827.74 404,834 C481.94,851.07 503.25,846.08 581,864 C607.18,870.03 612.72,875.45 639,881 C738.57,902.04 765.91,892.58 866,911 C899.41,917.15 936.51,925.9 965.7,933.23 " fill="none" id="C_0000346611438033482912-C_0000740826215814649639" style="stroke: #A80036; stroke-width: 1.0; stroke-dasharray: 7.0,7.0;"/><polygon fill="#A80036" points="970.68,934.49,962.9399,928.3997,965.8335,933.2605,960.9727,936.1541,970.68,934.49" style="stroke: #A80036; stroke-width: 1.0;"/><!--link C_0000346611438033482912 to C_0000790902628272918616--><path d="M222.28,821.09 C254.51,848.75 293.36,882.09 322.98,907.51 " fill="none" id="C_0000346611438033482912-C_0000790902628272918616" style="stroke: #A80036; stroke-width: 1.0; stroke-dasharray: 7.0,7.0;"/><polygon fill="#A80036" points="326.92,910.88,322.6899,901.9859,323.1237,907.626,317.4835,908.0599,326.92,910.88" style="stroke: #A80036; stroke-width: 1.0;"/><!--link C_0000346611438033482912 to C_0001070886243531016382--><path d="M161,834.31 C161,862.8 161,894.71 161,917.28 " fill="none" id="C_0000346611438033482912-C_0001070886243531016382" style="stroke: #A80036; stroke-width: 1.0;"/><polygon fill="#FFFFFF" points="161,821.09,157,827.09,161,833.09,165,827.09,161,821.09" style="stroke: #A80036; stroke-width: 1.0;"/><rect fill="none" height="6" style="stroke: #C82930; stroke-width: 1.0;" width="6" x="164" y="870.0664"/><text fill="#000000" font-family="sans-serif" font-size="13" lengthAdjust="spacingAndGlyphs" textLength="76" x="174" y="877.0669">torque_limit</text><!--link C_0001762644105423916238 to C_0000346611438033482912--><path d="M393.06,647.89 C376.26,654.95 359.02,662.49 343,670 C314.34,683.44 283.75,699.12 255.98,713.88 " fill="none" id="C_0001762644105423916238-C_0000346611438033482912" style="stroke: #A80036; stroke-width: 1.0;"/><polygon fill="none" points="390.6,641.33,411.76,640.15,395.96,654.27,390.6,641.33" style="stroke: #A80036; stroke-width: 1.0;"/><!--link C_0000978161556763682069 to C_0001243971194173295032--><path d="M1164.21,128.12 C1130.96,148.29 1098.25,173.82 1075,205 C1024.63,272.56 1009.92,372.81 1005.67,430.55 " fill="none" id="C_0000978161556763682069-C_0001243971194173295032" style="stroke: #A80036; stroke-width: 1.0; stroke-dasharray: 7.0,7.0;"/><polygon fill="#A80036" points="1005.31,435.66,1009.9428,426.9688,1005.6673,430.6728,1001.9633,426.3972,1005.31,435.66" style="stroke: #A80036; stroke-width: 1.0;"/><!--link C_0000978161556763682069 to C_0001816244285415343406--><path d="M1529.16,128.11 C1568.04,147.12 1604.62,172.14 1632,205 C1656.16,233.99 1661.77,278.06 1662.39,308.67 " fill="none" id="C_0000978161556763682069-C_0001816244285415343406" style="stroke: #A80036; stroke-width: 1.0;"/><polygon fill="#A80036" points="1662.45,313.84,1666.3469,304.7949,1662.3929,308.8403,1658.3474,304.8863,1662.45,313.84" style="stroke: #A80036; stroke-width: 1.0;"/><rect fill="none" height="6" style="stroke: #C82930; stroke-width: 1.0;" width="6" x="1657" y="226.5664"/><text fill="#000000" font-family="sans-serif" font-size="13" lengthAdjust="spacingAndGlyphs" textLength="43" x="1667" y="233.5669">sensor</text><!--link C_0000978161556763682069 to C_0000885653978909508775--><path d="M1383.9,128.21 C1420.34,153.62 1461.04,182 1489.69,201.98 " fill="none" id="C_0000978161556763682069-C_0000885653978909508775" style="stroke: #A80036; stroke-width: 1.0;"/><polygon fill="#A80036" points="1493.82,204.86,1488.723,196.4326,1489.7178,202.0013,1484.1491,202.9961,1493.82,204.86" style="stroke: #A80036; stroke-width: 1.0;"/><rect fill="none" height="6" style="stroke: #C82930; stroke-width: 1.0;" width="6" x="1449" y="164.0664"/><text fill="#000000" font-family="sans-serif" font-size="13" lengthAdjust="spacingAndGlyphs" textLength="43" x="1459" y="171.0669">sensor</text><!--link C_0000978161556763682069 to C_0000077851926960506546--><path d="M1301.95,128.35 C1302.36,138.25 1302.73,148.41 1303,158 C1304.46,210.47 1304.87,271.32 1304.98,308.61 " fill="none" id="C_0000978161556763682069-C_0000077851926960506546" style="stroke: #A80036; stroke-width: 1.0;"/><polygon fill="#A80036" points="1304.99,313.94,1308.9643,304.9286,1304.9757,308.94,1300.9643,304.9515,1304.99,313.94" style="stroke: #A80036; stroke-width: 1.0;"/><rect fill="none" height="6" style="stroke: #C82930; stroke-width: 1.0;" width="6" x="1307" y="226.5664"/><text fill="#000000" font-family="sans-serif" font-size="13" lengthAdjust="spacingAndGlyphs" textLength="48" x="1317" y="233.5669">planner</text><!--link C_0000978161556763682069 to C_0000517477364643921331--><path d="M1255.43,128.21 C1237.12,153.1 1216.7,180.84 1202.06,200.74 " fill="none" id="C_0000978161556763682069-C_0000517477364643921331" style="stroke: #A80036; stroke-width: 1.0;"/><polygon fill="#A80036" points="1199.02,204.86,1207.5701,199.9718,1201.9787,200.8293,1201.1211,195.2379,1199.02,204.86" style="stroke: #A80036; stroke-width: 1.0;"/><rect fill="none" height="6" style="stroke: #C82930; stroke-width: 1.0;" width="6" x="1236" y="164.0664"/><text fill="#000000" font-family="sans-serif" font-size="13" lengthAdjust="spacingAndGlyphs" textLength="48" x="1246" y="171.0669">planner</text><!--link C_0000978161556763682069 to C_0001842507930156265638--><path d="M1021.93,132.36 C1000.29,140.07 979.07,148.6 959,158 C932.87,170.24 906.44,189.63 887.62,204.9 " fill="none" id="C_0000978161556763682069-C_0001842507930156265638" style="stroke: #A80036; stroke-width: 1.0;"/><polygon fill="#FFFFFF" points="1034.35,128.04,1027.3667,126.242,1023.021,131.9966,1030.0044,133.7946,1034.35,128.04" style="stroke: #A80036; stroke-width: 1.0;"/><rect fill="none" height="6" style="stroke: #C82930; stroke-width: 1.0;" width="6" x="962" y="164.0664"/><text fill="#000000" font-family="sans-serif" font-size="13" lengthAdjust="spacingAndGlyphs" textLength="40" x="972" y="171.0669">actors</text><!--
@startuml
class "std::shared_ptr<Sensor>" as C_0000885653978909508775
class C_0000885653978909508775 {
__
}
class "std::shared_ptr<Planner>" as C_0000517477364643921331
class C_0000517477364643921331 {
__
}
class "std::shared_ptr<Actor>" as C_0001908735947263318269
class C_0001908735947263318269 {
__
}
class "std::vector<std::shared_ptr<Actor>>" as C_0001842507930156265638
class C_0001842507930156265638 {
__
}
class "EnvironmentModel" as C_0000723521372703994295
class C_0000723521372703994295 {
__
}
class "Sensor" as C_0001816244285415343406
class C_0001816244285415343406 {
+model_environment() : EnvironmentModel
__
}
class "Trajectory" as C_0000740826215814649639
class C_0000740826215814649639 {
__
}
class "Planner" as C_0000077851926960506546
class C_0000077851926960506546 {
+plan_vehicle_behavior(const EnvironmentModel &) : Trajectory
__
}
enum "DrivingMode" as C_0000790902628272918616
enum C_0000790902628272918616 {
normal
emergency
}
abstract "Actor" as C_0001243971194173295032
abstract C_0001243971194173295032 {
+~Actor() = default : void
..
{abstract} +control_vehicle(const Trajectory &) = 0 : void
__
}
abstract "DrivingModeAwareActor" as C_0001762644105423916238
abstract C_0001762644105423916238 {
{abstract} +set_driving_mode(const DrivingMode &) = 0 : void
__
}
class "Acceleration" as C_0000796543511279331718
class C_0000796543511279331718 {
__
+value : MetresPerSquareSecond
}
class "PowerTrain" as C_0001971792373968053805
class C_0001971792373968053805 {
+PowerTrain(const Acceleration & acceleration_limit) : void
..
+control_vehicle(const Trajectory &) : void
__
-acceleration_limit : Acceleration
}
class "Brake" as C_0001143070539853614602
class C_0001143070539853614602 {
+Brake(const Acceleration & deceleration_limit) : void
..
+control_vehicle(const Trajectory &) : void
-get_current_deceleration_limit() const : const Acceleration &
+set_driving_mode(const DrivingMode & driving_mode) : void
__
-current_driving_mode : DrivingMode
-deceleration_limit : Acceleration
}
class "Torque" as C_0001070886243531016382
class C_0001070886243531016382 {
__
+value : NewtonMetre
}
class "SteeringWheel" as C_0000346611438033482912
class C_0000346611438033482912 {
+SteeringWheel(const Torque & torque_limit) : void
..
+control_vehicle(const Trajectory &) : void
+set_driving_mode(const DrivingMode &) : void
__
-torque_limit : Torque
}
class "DrivingSystem" as C_0000978161556763682069
class C_0000978161556763682069 {
+DrivingSystem(std::shared_ptr<Sensor> sensor, std::shared_ptr<Planner> planner, DrivingSystem::Actors actors) : void
..
+one_cycle() : void
__
-actors : DrivingSystem::Actors
-planner : std::shared_ptr<Planner>
-sensor : std::shared_ptr<Sensor>
}
C_0000885653978909508775 ..> C_0001816244285415343406
C_0000517477364643921331 ..> C_0000077851926960506546
C_0001908735947263318269 ..> C_0001243971194173295032
C_0001842507930156265638 ..> C_0001908735947263318269
C_0001816244285415343406 ..> C_0000723521372703994295
C_0000077851926960506546 ..> C_0000723521372703994295
C_0000077851926960506546 ..> C_0000740826215814649639
C_0001243971194173295032 ..> C_0000740826215814649639
C_0001762644105423916238 ..> C_0000790902628272918616
C_0001243971194173295032 <|- - C_0001762644105423916238
C_0001971792373968053805 ..> C_0000740826215814649639
C_0001971792373968053805 o- - C_0000796543511279331718 : -acceleration_limit
C_0001243971194173295032 <|- - C_0001971792373968053805
C_0001143070539853614602 ..> C_0000740826215814649639
C_0001143070539853614602 o- - C_0000796543511279331718 : -deceleration_limit
C_0001143070539853614602 o- - C_0000790902628272918616 : -current_driving_mode
C_0001762644105423916238 <|- - C_0001143070539853614602
C_0000346611438033482912 ..> C_0000740826215814649639
C_0000346611438033482912 ..> C_0000790902628272918616
C_0000346611438033482912 o- - C_0001070886243531016382 : -torque_limit
C_0001762644105423916238 <|- - C_0000346611438033482912
C_0000978161556763682069 ..> C_0001243971194173295032
C_0000978161556763682069 - -> C_0001816244285415343406 : -sensor
C_0000978161556763682069 - -> C_0000885653978909508775 : -sensor
C_0000978161556763682069 - -> C_0000077851926960506546 : -planner
C_0000978161556763682069 - -> C_0000517477364643921331 : -planner
C_0000978161556763682069 o- - C_0001842507930156265638 : -actors

@enduml

PlantUML version 1.2018.13(Mon Nov 26 18:11:51 CET 2018)
(GPL source distribution)
Java Runtime: OpenJDK Runtime Environment
JVM: OpenJDK 64-Bit Server VM
Java Version: 11.0.21+9-post-Ubuntu-0ubuntu120.04
Operating System: Linux
OS Version: 5.15.0-91-generic
Default Encoding: UTF-8
Language: de
Country: DE
--></g></svg>