<?xml version="1.0" encoding="UTF-8" standalone="no"?><svg xmlns="http://www.w3.org/2000/svg" xmlns:xlink="http://www.w3.org/1999/xlink" contentScriptType="application/ecmascript" contentStyleType="text/css" height="847px" preserveAspectRatio="none" style="width:2014px;height:847px;" version="1.1" viewBox="0 0 2014 847" width="2014px" zoomAndPan="magnify"><defs><filter height="300%" id="f19i9wswjnc3q6" width="300%" x="-1" y="-1"><feGaussianBlur result="blurOut" stdDeviation="2.0"/><feColorMatrix in="blurOut" result="blurOut2" type="matrix" values="0 0 0 0 0 0 0 0 0 0 0 0 0 0 0 0 0 0 .4 0"/><feOffset dx="4.0" dy="4.0" in="blurOut2" result="blurOut3"/><feBlend in="SourceGraphic" in2="blurOut3" mode="normal"/></filter></defs><g><!--class C_0000885653978909508775--><rect fill="#FEFECE" filter="url(#f19i9wswjnc3q6)" height="48" id="C_0000885653978909508775" style="stroke: #A80036; stroke-width: 1.5;" width="175" x="231.5" y="205"/><ellipse cx="246.5" cy="221" fill="#ADD1B2" rx="11" ry="11" style="stroke: #A80036; stroke-width: 1.0;"/><path d="M249.4688,226.6406 Q248.8906,226.9375 248.25,227.0781 Q247.6094,227.2344 246.9063,227.2344 Q244.4063,227.2344 243.0781,225.5938 Q241.7656,223.9375 241.7656,220.8125 Q241.7656,217.6875 243.0781,216.0313 Q244.4063,214.375 246.9063,214.375 Q247.6094,214.375 248.25,214.5313 Q248.9063,214.6875 249.4688,214.9844 L249.4688,217.7031 Q248.8438,217.125 248.25,216.8594 Q247.6563,216.5781 247.0313,216.5781 Q245.6875,216.5781 245,217.6563 Q244.3125,218.7188 244.3125,220.8125 Q244.3125,222.9063 245,223.9844 Q245.6875,225.0469 247.0313,225.0469 Q247.6563,225.0469 248.25,224.7813 Q248.8438,224.5 249.4688,223.9219 L249.4688,226.6406 Z "/><text fill="#000000" font-family="sans-serif" font-size="12" lengthAdjust="spacingAndGlyphs" textLength="96" x="260.5" y="225.1543">std::shared_ptr</text><rect fill="#FFFFFF" height="15.9688" style="stroke: #000000; stroke-width: 1.0; stroke-dasharray: 2.0,2.0;" width="45" x="364.5" y="202"/><text fill="#000000" font-family="sans-serif" font-size="12" font-style="italic" lengthAdjust="spacingAndGlyphs" textLength="43" x="365.5" y="214.1387">Sensor</text><line style="stroke: #A80036; stroke-width: 1.5;" x1="232.5" x2="405.5" y1="237" y2="237"/><line style="stroke: #A80036; stroke-width: 1.5;" x1="232.5" x2="405.5" y1="245" y2="245"/><!--class C_0000517477364643921331--><rect fill="#FEFECE" filter="url(#f19i9wswjnc3q6)" height="48" id="C_0000517477364643921331" style="stroke: #A80036; stroke-width: 1.5;" width="179" x="574.5" y="205"/><ellipse cx="589.5" cy="221" fill="#ADD1B2" rx="11" ry="11" style="stroke: #A80036; stroke-width: 1.0;"/><path d="M592.4688,226.6406 Q591.8906,226.9375 591.25,227.0781 Q590.6094,227.2344 589.9063,227.2344 Q587.4063,227.2344 586.0781,225.5938 Q584.7656,223.9375 584.7656,220.8125 Q584.7656,217.6875 586.0781,216.0313 Q587.4063,214.375 589.9063,214.375 Q590.6094,214.375 591.25,214.5313 Q591.9063,214.6875 592.4688,214.9844 L592.4688,217.7031 Q591.8438,217.125 591.25,216.8594 Q590.6563,216.5781 590.0313,216.5781 Q588.6875,216.5781 588,217.6563 Q587.3125,218.7188 587.3125,220.8125 Q587.3125,222.9063 588,223.9844 Q588.6875,225.0469 590.0313,225.0469 Q590.6563,225.0469 591.25,224.7813 Q591.8438,224.5 592.4688,223.9219 L592.4688,226.6406 Z "/><text fill="#000000" font-family="sans-serif" font-size="12" lengthAdjust="spacingAndGlyphs" textLength="96" x="603.5" y="225.1543">std::shared_ptr</text><rect fill="#FFFFFF" height="15.9688" style="stroke: #000000; stroke-width: 1.0; stroke-dasharray: 2.0,2.0;" width="49" x="707.5" y="202"/><text fill="#000000" font-family="sans-serif" font-size="12" font-style="italic" lengthAdjust="spacingAndGlyphs" textLength="47" x="708.5" y="214.1387">Planner</text><line style="stroke: #A80036; stroke-width: 1.5;" x1="575.5" x2="752.5" y1="237" y2="237"/><line style="stroke: #A80036; stroke-width: 1.5;" x1="575.5" x2="752.5" y1="245" y2="245"/><!--class C_0001908735947263318269--><rect fill="#FEFECE" filter="url(#f19i9wswjnc3q6)" height="48" id="C_0001908735947263318269" style="stroke: #A80036; stroke-width: 1.5;" width="165" x="852.5" y="320.5"/><ellipse cx="867.5" cy="336.5" fill="#ADD1B2" rx="11" ry="11" style="stroke: #A80036; stroke-width: 1.0;"/><path d="M870.4688,342.1406 Q869.8906,342.4375 869.25,342.5781 Q868.6094,342.7344 867.9063,342.7344 Q865.4063,342.7344 864.0781,341.0938 Q862.7656,339.4375 862.7656,336.3125 Q862.7656,333.1875 864.0781,331.5313 Q865.4063,329.875 867.9063,329.875 Q868.6094,329.875 869.25,330.0313 Q869.9063,330.1875 870.4688,330.4844 L870.4688,333.2031 Q869.8438,332.625 869.25,332.3594 Q868.6563,332.0781 868.0313,332.0781 Q866.6875,332.0781 866,333.1563 Q865.3125,334.2188 865.3125,336.3125 Q865.3125,338.4063 866,339.4844 Q866.6875,340.5469 868.0313,340.5469 Q868.6563,340.5469 869.25,340.2813 Q869.8438,340 870.4688,339.4219 L870.4688,342.1406 Z "/><text fill="#000000" font-family="sans-serif" font-size="12" lengthAdjust="spacingAndGlyphs" textLength="96" x="881.5" y="340.6543">std::shared_ptr</text><rect fill="#FFFFFF" height="15.9688" style="stroke: #000000; stroke-width: 1.0; stroke-dasharray: 2.0,2.0;" width="35" x="985.5" y="317.5"/><text fill="#000000" font-family="sans-serif" font-size="12" font-style="italic" lengthAdjust="spacingAndGlyphs" textLength="33" x="986.5" y="329.6387">Actor</text><line style="stroke: #A80036; stroke-width: 1.5;" x1="853.5" x2="1016.5" y1="352.5" y2="352.5"/><line style="stroke: #A80036; stroke-width: 1.5;" x1="853.5" x2="1016.5" y1="360.5" y2="360.5"/><!--class C_0001842507930156265638--><rect fill="#FEFECE" filter="url(#f19i9wswjnc3q6)" height="48" id="C_0001842507930156265638" style="stroke: #A80036; stroke-width: 1.5;" width="250" x="789" y="205"/><ellipse cx="804" cy="221" fill="#ADD1B2" rx="11" ry="11" style="stroke: #A80036; stroke-width: 1.0;"/><path d="M806.9688,226.6406 Q806.3906,226.9375 805.75,227.0781 Q805.1094,227.2344 804.4063,227.2344 Q801.9063,227.2344 800.5781,225.5938 Q799.2656,223.9375 799.2656,220.8125 Q799.2656,217.6875 800.5781,216.0313 Q801.9063,214.375 804.4063,214.375 Q805.1094,214.375 805.75,214.5313 Q806.4063,214.6875 806.9688,214.9844 L806.9688,217.7031 Q806.3438,217.125 805.75,216.8594 Q805.1563,216.5781 804.5313,216.5781 Q803.1875,216.5781 802.5,217.6563 Q801.8125,218.7188 801.8125,220.8125 Q801.8125,222.9063 802.5,223.9844 Q803.1875,225.0469 804.5313,225.0469 Q805.1563,225.0469 805.75,224.7813 Q806.3438,224.5 806.9688,223.9219 L806.9688,226.6406 Z "/><text fill="#000000" font-family="sans-serif" font-size="12" lengthAdjust="spacingAndGlyphs" textLength="67" x="818" y="225.1543">std::vector</text><rect fill="#FFFFFF" height="15.9688" style="stroke: #000000; stroke-width: 1.0; stroke-dasharray: 2.0,2.0;" width="149" x="893" y="202"/><text fill="#000000" font-family="sans-serif" font-size="12" font-style="italic" lengthAdjust="spacingAndGlyphs" textLength="147" x="894" y="214.1387">std::shared_ptr&lt;Actor&gt;</text><line style="stroke: #A80036; stroke-width: 1.5;" x1="790" x2="1038" y1="237" y2="237"/><line style="stroke: #A80036; stroke-width: 1.5;" x1="790" x2="1038" y1="245" y2="245"/><!--class C_0000723521372703994295--><rect fill="#FEFECE" filter="url(#f19i9wswjnc3q6)" height="48" id="C_0000723521372703994295" style="stroke: #A80036; stroke-width: 1.5;" width="147" x="63.5" y="453"/><ellipse cx="78.5" cy="469" fill="#ADD1B2" rx="11" ry="11" style="stroke: #A80036; stroke-width: 1.0;"/><path d="M81.4688,474.6406 Q80.8906,474.9375 80.25,475.0781 Q79.6094,475.2344 78.9063,475.2344 Q76.4063,475.2344 75.0781,473.5938 Q73.7656,471.9375 73.7656,468.8125 Q73.7656,465.6875 75.0781,464.0313 Q76.4063,462.375 78.9063,462.375 Q79.6094,462.375 80.25,462.5313 Q80.9063,462.6875 81.4688,462.9844 L81.4688,465.7031 Q80.8438,465.125 80.25,464.8594 Q79.6563,464.5781 79.0313,464.5781 Q77.6875,464.5781 77,465.6563 Q76.3125,466.7188 76.3125,468.8125 Q76.3125,470.9063 77,471.9844 Q77.6875,473.0469 79.0313,473.0469 Q79.6563,473.0469 80.25,472.7813 Q80.8438,472.5 81.4688,471.9219 L81.4688,474.6406 Z "/><text fill="#000000" font-family="sans-serif" font-size="12" lengthAdjust="spacingAndGlyphs" textLength="115" x="92.5" y="473.1543">EnvironmentModel</text><line style="stroke: #A80036; stroke-width: 1.5;" x1="64.5" x2="209.5" y1="485" y2="485"/><line style="stroke: #A80036; stroke-width: 1.5;" x1="64.5" x2="209.5" y1="493" y2="493"/><!--class C_0001816244285415343406--><rect fill="#FEFECE" filter="url(#f19i9wswjnc3q6)" height="60.8047" id="C_0001816244285415343406" style="stroke: #A80036; stroke-width: 1.5;" width="262" x="6" y="314"/><ellipse cx="110.75" cy="330" fill="#ADD1B2" rx="11" ry="11" style="stroke: #A80036; stroke-width: 1.0;"/><path d="M113.7188,335.6406 Q113.1406,335.9375 112.5,336.0781 Q111.8594,336.2344 111.1563,336.2344 Q108.6563,336.2344 107.3281,334.5938 Q106.0156,332.9375 106.0156,329.8125 Q106.0156,326.6875 107.3281,325.0313 Q108.6563,323.375 111.1563,323.375 Q111.8594,323.375 112.5,323.5313 Q113.1563,323.6875 113.7188,323.9844 L113.7188,326.7031 Q113.0938,326.125 112.5,325.8594 Q111.9063,325.5781 111.2813,325.5781 Q109.9375,325.5781 109.25,326.6563 Q108.5625,327.7188 108.5625,329.8125 Q108.5625,331.9063 109.25,332.9844 Q109.9375,334.0469 111.2813,334.0469 Q111.9063,334.0469 112.5,333.7813 Q113.0938,333.5 113.7188,332.9219 L113.7188,335.6406 Z "/><text fill="#000000" font-family="sans-serif" font-size="12" lengthAdjust="spacingAndGlyphs" textLength="44" x="131.25" y="334.1543">Sensor</text><line style="stroke: #A80036; stroke-width: 1.5;" x1="7" x2="267" y1="346" y2="346"/><ellipse cx="17" cy="357.9023" fill="#84BE84" rx="3" ry="3" style="stroke: #038048; stroke-width: 1.0;"/><text fill="#000000" font-family="sans-serif" font-size="11" lengthAdjust="spacingAndGlyphs" textLength="236" x="26" y="360.2104">model_environment() : EnvironmentModel</text><line style="stroke: #A80036; stroke-width: 1.5;" x1="7" x2="267" y1="366.8047" y2="366.8047"/><!--class C_0000740826215814649639--><rect fill="#FEFECE" filter="url(#f19i9wswjnc3q6)" height="48" id="C_0000740826215814649639" style="stroke: #A80036; stroke-width: 1.5;" width="94" x="450" y="776"/><ellipse cx="465" cy="792" fill="#ADD1B2" rx="11" ry="11" style="stroke: #A80036; stroke-width: 1.0;"/><path d="M467.9688,797.6406 Q467.3906,797.9375 466.75,798.0781 Q466.1094,798.2344 465.4063,798.2344 Q462.9063,798.2344 461.5781,796.5938 Q460.2656,794.9375 460.2656,791.8125 Q460.2656,788.6875 461.5781,787.0313 Q462.9063,785.375 465.4063,785.375 Q466.1094,785.375 466.75,785.5313 Q467.4063,785.6875 467.9688,785.9844 L467.9688,788.7031 Q467.3438,788.125 466.75,787.8594 Q466.1563,787.5781 465.5313,787.5781 Q464.1875,787.5781 463.5,788.6563 Q462.8125,789.7188 462.8125,791.8125 Q462.8125,793.9063 463.5,794.9844 Q464.1875,796.0469 465.5313,796.0469 Q466.1563,796.0469 466.75,795.7813 Q467.3438,795.5 467.9688,794.9219 L467.9688,797.6406 Z "/><text fill="#000000" font-family="sans-serif" font-size="12" lengthAdjust="spacingAndGlyphs" textLength="62" x="479" y="796.1543">Trajectory</text><line style="stroke: #A80036; stroke-width: 1.5;" x1="451" x2="543" y1="808" y2="808"/><line style="stroke: #A80036; stroke-width: 1.5;" x1="451" x2="543" y1="816" y2="816"/><!--class C_0000077851926960506546--><rect fill="#FEFECE" filter="url(#f19i9wswjnc3q6)" height="60.8047" id="C_0000077851926960506546" style="stroke: #A80036; stroke-width: 1.5;" width="380" x="303" y="314"/><ellipse cx="464.75" cy="330" fill="#ADD1B2" rx="11" ry="11" style="stroke: #A80036; stroke-width: 1.0;"/><path d="M467.7188,335.6406 Q467.1406,335.9375 466.5,336.0781 Q465.8594,336.2344 465.1563,336.2344 Q462.6563,336.2344 461.3281,334.5938 Q460.0156,332.9375 460.0156,329.8125 Q460.0156,326.6875 461.3281,325.0313 Q462.6563,323.375 465.1563,323.375 Q465.8594,323.375 466.5,323.5313 Q467.1563,323.6875 467.7188,323.9844 L467.7188,326.7031 Q467.0938,326.125 466.5,325.8594 Q465.9063,325.5781 465.2813,325.5781 Q463.9375,325.5781 463.25,326.6563 Q462.5625,327.7188 462.5625,329.8125 Q462.5625,331.9063 463.25,332.9844 Q463.9375,334.0469 465.2813,334.0469 Q465.9063,334.0469 466.5,333.7813 Q467.0938,333.5 467.7188,332.9219 L467.7188,335.6406 Z "/><text fill="#000000" font-family="sans-serif" font-size="12" lengthAdjust="spacingAndGlyphs" textLength="48" x="485.25" y="334.1543">Planner</text><line style="stroke: #A80036; stroke-width: 1.5;" x1="304" x2="682" y1="346" y2="346"/><ellipse cx="314" cy="357.9023" fill="#84BE84" rx="3" ry="3" style="stroke: #038048; stroke-width: 1.0;"/><text fill="#000000" font-family="sans-serif" font-size="11" lengthAdjust="spacingAndGlyphs" textLength="354" x="323" y="360.2104">plan_vehicle_behavior(const EnvironmentModel &amp;) : Trajectory</text><line style="stroke: #A80036; stroke-width: 1.5;" x1="304" x2="682" y1="366.8047" y2="366.8047"/><!--class C_0000790902628272918616--><rect fill="#FEFECE" filter="url(#f19i9wswjnc3q6)" height="73.6094" id="C_0000790902628272918616" style="stroke: #A80036; stroke-width: 1.5;" width="108" x="1591" y="763"/><ellipse cx="1606" cy="779" fill="#EB937F" rx="11" ry="11" style="stroke: #A80036; stroke-width: 1.0;"/><path d="M1610.1094,785 L1602.3906,785 L1602.3906,772.6094 L1610.1094,772.6094 L1610.1094,774.7656 L1604.8438,774.7656 L1604.8438,777.4375 L1609.6094,777.4375 L1609.6094,779.5938 L1604.8438,779.5938 L1604.8438,782.8438 L1610.1094,782.8438 L1610.1094,785 Z "/><text fill="#000000" font-family="sans-serif" font-size="12" lengthAdjust="spacingAndGlyphs" textLength="76" x="1620" y="783.1543">DrivingMode</text><line style="stroke: #A80036; stroke-width: 1.5;" x1="1592" x2="1698" y1="795" y2="795"/><text fill="#000000" font-family="sans-serif" font-size="11" lengthAdjust="spacingAndGlyphs" textLength="40" x="1597" y="809.2104">normal</text><text fill="#000000" font-family="sans-serif" font-size="11" lengthAdjust="spacingAndGlyphs" textLength="63" x="1597" y="822.0151">emergency</text><line style="stroke: #A80036; stroke-width: 1.5;" x1="1592" x2="1698" y1="828.6094" y2="828.6094"/><!--class C_0001732491848753319804--><rect fill="#FEFECE" filter="url(#f19i9wswjnc3q6)" height="60.8047" id="C_0001732491848753319804" style="stroke: #A80036; stroke-width: 1.5;" width="200" x="1059" y="37.5"/><ellipse cx="1075.8" cy="53.5" fill="#ADD1B2" rx="11" ry="11" style="stroke: #A80036; stroke-width: 1.0;"/><path d="M1078.7688,59.1406 Q1078.1906,59.4375 1077.55,59.5781 Q1076.9094,59.7344 1076.2063,59.7344 Q1073.7063,59.7344 1072.3781,58.0938 Q1071.0656,56.4375 1071.0656,53.3125 Q1071.0656,50.1875 1072.3781,48.5313 Q1073.7063,46.875 1076.2063,46.875 Q1076.9094,46.875 1077.55,47.0313 Q1078.2063,47.1875 1078.7688,47.4844 L1078.7688,50.2031 Q1078.1438,49.625 1077.55,49.3594 Q1076.9563,49.0781 1076.3313,49.0781 Q1074.9875,49.0781 1074.3,50.1563 Q1073.6125,51.2188 1073.6125,53.3125 Q1073.6125,55.4063 1074.3,56.4844 Q1074.9875,57.5469 1076.3313,57.5469 Q1076.9563,57.5469 1077.55,57.2813 Q1078.1438,57 1078.7688,56.4219 L1078.7688,59.1406 Z "/><text fill="#000000" font-family="sans-serif" font-size="12" lengthAdjust="spacingAndGlyphs" textLength="164" x="1090.2" y="57.6543">DrivingModeNotSupported</text><line style="stroke: #A80036; stroke-width: 1.5;" x1="1060" x2="1258" y1="69.5" y2="69.5"/><ellipse cx="1070" cy="81.4023" fill="#84BE84" rx="3" ry="3" style="stroke: #038048; stroke-width: 1.0;"/><text fill="#000000" font-family="sans-serif" font-size="11" lengthAdjust="spacingAndGlyphs" textLength="174" x="1079" y="83.7104">logic_error(const char *) : void</text><line style="stroke: #A80036; stroke-width: 1.5;" x1="1060" x2="1258" y1="90.3047" y2="90.3047"/><!--class C_0001243971194173295032--><rect fill="#FEFECE" filter="url(#f19i9wswjnc3q6)" height="81.6094" id="C_0001243971194173295032" style="stroke: #A80036; stroke-width: 1.5;" width="409" x="887.5" y="436"/><ellipse cx="1071.25" cy="452" fill="#A9DCDF" rx="11" ry="11" style="stroke: #A80036; stroke-width: 1.0;"/><path d="M1071.3594,447.3438 L1070.2031,452.4219 L1072.5313,452.4219 L1071.3594,447.3438 Z M1069.875,445.1094 L1072.8594,445.1094 L1076.2188,457.5 L1073.7656,457.5 L1073,454.4375 L1069.7188,454.4375 L1068.9688,457.5 L1066.5313,457.5 L1069.875,445.1094 Z "/><text fill="#000000" font-family="sans-serif" font-size="12" font-style="italic" lengthAdjust="spacingAndGlyphs" textLength="33" x="1091.75" y="456.1543">Actor</text><line style="stroke: #A80036; stroke-width: 1.5;" x1="888.5" x2="1295.5" y1="468" y2="468"/><ellipse cx="898.5" cy="479.9023" fill="#84BE84" rx="3" ry="3" style="stroke: #038048; stroke-width: 1.0;"/><text fill="#000000" font-family="sans-serif" font-size="11" lengthAdjust="spacingAndGlyphs" textLength="137" x="907.5" y="482.2104">~Actor() = default : void</text><line style="stroke: #A80036; stroke-width: 1.0; stroke-dasharray: 1.0,2.0;" x1="888.5" x2="1295.5" y1="488.8047" y2="488.8047"/><ellipse cx="898.5" cy="500.707" fill="#84BE84" rx="3" ry="3" style="stroke: #038048; stroke-width: 1.0;"/><text fill="#000000" font-family="sans-serif" font-size="11" font-style="italic" lengthAdjust="spacingAndGlyphs" textLength="383" x="907.5" y="503.0151">control_vehicle(const Trajectory &amp;, const DrivingMode &amp;) = 0 : void</text><line style="stroke: #A80036; stroke-width: 1.5;" x1="888.5" x2="1295.5" y1="509.6094" y2="509.6094"/><!--class C_0000796543511279331718--><rect fill="#FEFECE" filter="url(#f19i9wswjnc3q6)" height="60.8047" id="C_0000796543511279331718" style="stroke: #A80036; stroke-width: 1.5;" width="209" x="1167.5" y="769.5"/><ellipse cx="1228.75" cy="785.5" fill="#ADD1B2" rx="11" ry="11" style="stroke: #A80036; stroke-width: 1.0;"/><path d="M1231.7188,791.1406 Q1231.1406,791.4375 1230.5,791.5781 Q1229.8594,791.7344 1229.1563,791.7344 Q1226.6563,791.7344 1225.3281,790.0938 Q1224.0156,788.4375 1224.0156,785.3125 Q1224.0156,782.1875 1225.3281,780.5313 Q1226.6563,778.875 1229.1563,778.875 Q1229.8594,778.875 1230.5,779.0313 Q1231.1563,779.1875 1231.7188,779.4844 L1231.7188,782.2031 Q1231.0938,781.625 1230.5,781.3594 Q1229.9063,781.0781 1229.2813,781.0781 Q1227.9375,781.0781 1227.25,782.1563 Q1226.5625,783.2188 1226.5625,785.3125 Q1226.5625,787.4063 1227.25,788.4844 Q1227.9375,789.5469 1229.2813,789.5469 Q1229.9063,789.5469 1230.5,789.2813 Q1231.0938,789 1231.7188,788.4219 L1231.7188,791.1406 Z "/><text fill="#000000" font-family="sans-serif" font-size="12" lengthAdjust="spacingAndGlyphs" textLength="78" x="1249.25" y="789.6543">Acceleration</text><line style="stroke: #A80036; stroke-width: 1.5;" x1="1168.5" x2="1375.5" y1="801.5" y2="801.5"/><line style="stroke: #A80036; stroke-width: 1.5;" x1="1168.5" x2="1375.5" y1="809.5" y2="809.5"/><ellipse cx="1178.5" cy="821.4023" fill="none" rx="3" ry="3" style="stroke: #038048; stroke-width: 1.0;"/><text fill="#000000" font-family="sans-serif" font-size="11" lengthAdjust="spacingAndGlyphs" textLength="183" x="1187.5" y="823.7104">value : MetresPerSquareSecond</text><!--class C_0001971792373968053805--><rect fill="#FEFECE" filter="url(#f19i9wswjnc3q6)" height="94.4141" id="C_0001971792373968053805" style="stroke: #A80036; stroke-width: 1.5;" width="465" x="1412.5" y="585.5"/><ellipse cx="1606.25" cy="601.5" fill="#ADD1B2" rx="11" ry="11" style="stroke: #A80036; stroke-width: 1.0;"/><path d="M1609.2188,607.1406 Q1608.6406,607.4375 1608,607.5781 Q1607.3594,607.7344 1606.6563,607.7344 Q1604.1563,607.7344 1602.8281,606.0938 Q1601.5156,604.4375 1601.5156,601.3125 Q1601.5156,598.1875 1602.8281,596.5313 Q1604.1563,594.875 1606.6563,594.875 Q1607.3594,594.875 1608,595.0313 Q1608.6563,595.1875 1609.2188,595.4844 L1609.2188,598.2031 Q1608.5938,597.625 1608,597.3594 Q1607.4063,597.0781 1606.7813,597.0781 Q1605.4375,597.0781 1604.75,598.1563 Q1604.0625,599.2188 1604.0625,601.3125 Q1604.0625,603.4063 1604.75,604.4844 Q1605.4375,605.5469 1606.7813,605.5469 Q1607.4063,605.5469 1608,605.2813 Q1608.5938,605 1609.2188,604.4219 L1609.2188,607.1406 Z "/><text fill="#000000" font-family="sans-serif" font-size="12" lengthAdjust="spacingAndGlyphs" textLength="69" x="1626.75" y="605.6543">PowerTrain</text><line style="stroke: #A80036; stroke-width: 1.5;" x1="1413.5" x2="1876.5" y1="617.5" y2="617.5"/><ellipse cx="1423.5" cy="629.4023" fill="#84BE84" rx="3" ry="3" style="stroke: #038048; stroke-width: 1.0;"/><text fill="#000000" font-family="sans-serif" font-size="11" lengthAdjust="spacingAndGlyphs" textLength="328" x="1432.5" y="631.7104">PowerTrain(const Acceleration &amp; acceleration_limit) : void</text><line style="stroke: #A80036; stroke-width: 1.0; stroke-dasharray: 1.0,2.0;" x1="1413.5" x2="1876.5" y1="638.3047" y2="638.3047"/><ellipse cx="1423.5" cy="650.207" fill="#84BE84" rx="3" ry="3" style="stroke: #038048; stroke-width: 1.0;"/><text fill="#000000" font-family="sans-serif" font-size="11" lengthAdjust="spacingAndGlyphs" textLength="439" x="1432.5" y="652.5151">control_vehicle(const Trajectory &amp;, const DrivingMode &amp; driving_mode) : void</text><line style="stroke: #A80036; stroke-width: 1.5;" x1="1413.5" x2="1876.5" y1="659.1094" y2="659.1094"/><rect fill="none" height="6" style="stroke: #C82930; stroke-width: 1.0;" width="6" x="1420.5" y="668.0117"/><text fill="#000000" font-family="sans-serif" font-size="11" lengthAdjust="spacingAndGlyphs" textLength="180" x="1432.5" y="673.3198">acceleration_limit : Acceleration</text><!--class C_0001143070539853614602--><rect fill="#FEFECE" filter="url(#f19i9wswjnc3q6)" height="107.2188" id="C_0001143070539853614602" style="stroke: #A80036; stroke-width: 1.5;" width="568" x="809" y="579"/><ellipse cx="1070.75" cy="595" fill="#ADD1B2" rx="11" ry="11" style="stroke: #A80036; stroke-width: 1.0;"/><path d="M1073.7188,600.6406 Q1073.1406,600.9375 1072.5,601.0781 Q1071.8594,601.2344 1071.1563,601.2344 Q1068.6563,601.2344 1067.3281,599.5938 Q1066.0156,597.9375 1066.0156,594.8125 Q1066.0156,591.6875 1067.3281,590.0313 Q1068.6563,588.375 1071.1563,588.375 Q1071.8594,588.375 1072.5,588.5313 Q1073.1563,588.6875 1073.7188,588.9844 L1073.7188,591.7031 Q1073.0938,591.125 1072.5,590.8594 Q1071.9063,590.5781 1071.2813,590.5781 Q1069.9375,590.5781 1069.25,591.6563 Q1068.5625,592.7188 1068.5625,594.8125 Q1068.5625,596.9063 1069.25,597.9844 Q1069.9375,599.0469 1071.2813,599.0469 Q1071.9063,599.0469 1072.5,598.7813 Q1073.0938,598.5 1073.7188,597.9219 L1073.7188,600.6406 Z "/><text fill="#000000" font-family="sans-serif" font-size="12" lengthAdjust="spacingAndGlyphs" textLength="36" x="1091.25" y="599.1543">Brake</text><line style="stroke: #A80036; stroke-width: 1.5;" x1="810" x2="1376" y1="611" y2="611"/><ellipse cx="820" cy="622.9023" fill="#84BE84" rx="3" ry="3" style="stroke: #038048; stroke-width: 1.0;"/><text fill="#000000" font-family="sans-serif" font-size="11" lengthAdjust="spacingAndGlyphs" textLength="298" x="829" y="625.2104">Brake(const Acceleration &amp; deceleration_limit) : void</text><line style="stroke: #A80036; stroke-width: 1.0; stroke-dasharray: 1.0,2.0;" x1="810" x2="1376" y1="631.8047" y2="631.8047"/><ellipse cx="820" cy="643.707" fill="#84BE84" rx="3" ry="3" style="stroke: #038048; stroke-width: 1.0;"/><text fill="#000000" font-family="sans-serif" font-size="11" lengthAdjust="spacingAndGlyphs" textLength="439" x="829" y="646.0151">control_vehicle(const Trajectory &amp;, const DrivingMode &amp; driving_mode) : void</text><rect fill="#F24D5C" height="6" style="stroke: #C82930; stroke-width: 1.0;" width="6" x="817" y="653.5117"/><text fill="#000000" font-family="sans-serif" font-size="11" lengthAdjust="spacingAndGlyphs" textLength="542" x="829" y="658.8198">get_current_deceleration_limit(const DrivingMode &amp; driving_mode) const : const Acceleration &amp;</text><line style="stroke: #A80036; stroke-width: 1.5;" x1="810" x2="1376" y1="665.4141" y2="665.4141"/><rect fill="none" height="6" style="stroke: #C82930; stroke-width: 1.0;" width="6" x="817" y="674.3164"/><text fill="#000000" font-family="sans-serif" font-size="11" lengthAdjust="spacingAndGlyphs" textLength="181" x="829" y="679.6245">deceleration_limit : Acceleration</text><!--class C_0001070886243531016382--><rect fill="#FEFECE" filter="url(#f19i9wswjnc3q6)" height="60.8047" id="C_0001070886243531016382" style="stroke: #A80036; stroke-width: 1.5;" width="142" x="579" y="769.5"/><ellipse cx="623.75" cy="785.5" fill="#ADD1B2" rx="11" ry="11" style="stroke: #A80036; stroke-width: 1.0;"/><path d="M626.7188,791.1406 Q626.1406,791.4375 625.5,791.5781 Q624.8594,791.7344 624.1563,791.7344 Q621.6563,791.7344 620.3281,790.0938 Q619.0156,788.4375 619.0156,785.3125 Q619.0156,782.1875 620.3281,780.5313 Q621.6563,778.875 624.1563,778.875 Q624.8594,778.875 625.5,779.0313 Q626.1563,779.1875 626.7188,779.4844 L626.7188,782.2031 Q626.0938,781.625 625.5,781.3594 Q624.9063,781.0781 624.2813,781.0781 Q622.9375,781.0781 622.25,782.1563 Q621.5625,783.2188 621.5625,785.3125 Q621.5625,787.4063 622.25,788.4844 Q622.9375,789.5469 624.2813,789.5469 Q624.9063,789.5469 625.5,789.2813 Q626.0938,789 626.7188,788.4219 L626.7188,791.1406 Z "/><text fill="#000000" font-family="sans-serif" font-size="12" lengthAdjust="spacingAndGlyphs" textLength="44" x="644.25" y="789.6543">Torque</text><line style="stroke: #A80036; stroke-width: 1.5;" x1="580" x2="720" y1="801.5" y2="801.5"/><line style="stroke: #A80036; stroke-width: 1.5;" x1="580" x2="720" y1="809.5" y2="809.5"/><ellipse cx="590" cy="821.4023" fill="none" rx="3" ry="3" style="stroke: #038048; stroke-width: 1.0;"/><text fill="#000000" font-family="sans-serif" font-size="11" lengthAdjust="spacingAndGlyphs" textLength="116" x="599" y="823.7104">value : NewtonMetre</text><!--class C_0000346611438033482912--><rect fill="#FEFECE" filter="url(#f19i9wswjnc3q6)" height="94.4141" id="C_0000346611438033482912" style="stroke: #A80036; stroke-width: 1.5;" width="385" x="388.5" y="585.5"/><ellipse cx="531.25" cy="601.5" fill="#ADD1B2" rx="11" ry="11" style="stroke: #A80036; stroke-width: 1.0;"/><path d="M534.2188,607.1406 Q533.6406,607.4375 533,607.5781 Q532.3594,607.7344 531.6563,607.7344 Q529.1563,607.7344 527.8281,606.0938 Q526.5156,604.4375 526.5156,601.3125 Q526.5156,598.1875 527.8281,596.5313 Q529.1563,594.875 531.6563,594.875 Q532.3594,594.875 533,595.0313 Q533.6563,595.1875 534.2188,595.4844 L534.2188,598.2031 Q533.5938,597.625 533,597.3594 Q532.4063,597.0781 531.7813,597.0781 Q530.4375,597.0781 529.75,598.1563 Q529.0625,599.2188 529.0625,601.3125 Q529.0625,603.4063 529.75,604.4844 Q530.4375,605.5469 531.7813,605.5469 Q532.4063,605.5469 533,605.2813 Q533.5938,605 534.2188,604.4219 L534.2188,607.1406 Z "/><text fill="#000000" font-family="sans-serif" font-size="12" lengthAdjust="spacingAndGlyphs" textLength="91" x="551.75" y="605.6543">SteeringWheel</text><line style="stroke: #A80036; stroke-width: 1.5;" x1="389.5" x2="772.5" y1="617.5" y2="617.5"/><ellipse cx="399.5" cy="629.4023" fill="#84BE84" rx="3" ry="3" style="stroke: #038048; stroke-width: 1.0;"/><text fill="#000000" font-family="sans-serif" font-size="11" lengthAdjust="spacingAndGlyphs" textLength="284" x="408.5" y="631.7104">SteeringWheel(const Torque &amp; torque_limit) : void</text><line style="stroke: #A80036; stroke-width: 1.0; stroke-dasharray: 1.0,2.0;" x1="389.5" x2="772.5" y1="638.3047" y2="638.3047"/><ellipse cx="399.5" cy="650.207" fill="#84BE84" rx="3" ry="3" style="stroke: #038048; stroke-width: 1.0;"/><text fill="#000000" font-family="sans-serif" font-size="11" lengthAdjust="spacingAndGlyphs" textLength="359" x="408.5" y="652.5151">control_vehicle(const Trajectory &amp;, const DrivingMode &amp;) : void</text><line style="stroke: #A80036; stroke-width: 1.5;" x1="389.5" x2="772.5" y1="659.1094" y2="659.1094"/><rect fill="none" height="6" style="stroke: #C82930; stroke-width: 1.0;" width="6" x="396.5" y="668.0117"/><text fill="#000000" font-family="sans-serif" font-size="11" lengthAdjust="spacingAndGlyphs" textLength="119" x="408.5" y="673.3198">torque_limit : Torque</text><!--class C_0000978161556763682069--><rect fill="#FEFECE" filter="url(#f19i9wswjnc3q6)" height="120.0234" id="C_0000978161556763682069" style="stroke: #A80036; stroke-width: 1.5;" width="720" x="304" y="8"/><ellipse cx="616.25" cy="24" fill="#ADD1B2" rx="11" ry="11" style="stroke: #A80036; stroke-width: 1.0;"/><path d="M619.2188,29.6406 Q618.6406,29.9375 618,30.0781 Q617.3594,30.2344 616.6563,30.2344 Q614.1563,30.2344 612.8281,28.5938 Q611.5156,26.9375 611.5156,23.8125 Q611.5156,20.6875 612.8281,19.0313 Q614.1563,17.375 616.6563,17.375 Q617.3594,17.375 618,17.5313 Q618.6563,17.6875 619.2188,17.9844 L619.2188,20.7031 Q618.5938,20.125 618,19.8594 Q617.4063,19.5781 616.7813,19.5781 Q615.4375,19.5781 614.75,20.6563 Q614.0625,21.7188 614.0625,23.8125 Q614.0625,25.9063 614.75,26.9844 Q615.4375,28.0469 616.7813,28.0469 Q617.4063,28.0469 618,27.7813 Q618.5938,27.5 619.2188,26.9219 L619.2188,29.6406 Z "/><text fill="#000000" font-family="sans-serif" font-size="12" lengthAdjust="spacingAndGlyphs" textLength="87" x="636.75" y="28.1543">DrivingSystem</text><line style="stroke: #A80036; stroke-width: 1.5;" x1="305" x2="1023" y1="40" y2="40"/><ellipse cx="315" cy="51.9023" fill="#84BE84" rx="3" ry="3" style="stroke: #038048; stroke-width: 1.0;"/><text fill="#000000" font-family="sans-serif" font-size="11" lengthAdjust="spacingAndGlyphs" textLength="694" x="324" y="54.2104">DrivingSystem(std::shared_ptr&lt;Sensor&gt; sensor, std::shared_ptr&lt;Planner&gt; planner, DrivingSystem::Actors actors) : void</text><line style="stroke: #A80036; stroke-width: 1.0; stroke-dasharray: 1.0,2.0;" x1="305" x2="1023" y1="60.8047" y2="60.8047"/><ellipse cx="315" cy="72.707" fill="#84BE84" rx="3" ry="3" style="stroke: #038048; stroke-width: 1.0;"/><text fill="#000000" font-family="sans-serif" font-size="11" lengthAdjust="spacingAndGlyphs" textLength="296" x="324" y="75.0151">one_cycle(const DrivingMode &amp; driving_mode) : void</text><line style="stroke: #A80036; stroke-width: 1.5;" x1="305" x2="1023" y1="81.6094" y2="81.6094"/><rect fill="none" height="6" style="stroke: #C82930; stroke-width: 1.0;" width="6" x="312" y="90.5117"/><text fill="#000000" font-family="sans-serif" font-size="11" lengthAdjust="spacingAndGlyphs" textLength="174" x="324" y="95.8198">actors : DrivingSystem::Actors</text><rect fill="none" height="6" style="stroke: #C82930; stroke-width: 1.0;" width="6" x="312" y="103.3164"/><text fill="#000000" font-family="sans-serif" font-size="11" lengthAdjust="spacingAndGlyphs" textLength="204" x="324" y="108.6245">planner : std::shared_ptr&lt;Planner&gt;</text><rect fill="none" height="6" style="stroke: #C82930; stroke-width: 1.0;" width="6" x="312" y="116.1211"/><text fill="#000000" font-family="sans-serif" font-size="11" lengthAdjust="spacingAndGlyphs" textLength="199" x="324" y="121.4292">sensor : std::shared_ptr&lt;Sensor&gt;</text><!--link C_0000885653978909508775 to C_0001816244285415343406--><path d="M281.73,253.24 C254.97,269.93 218.54,292.65 188.93,311.11 " fill="none" id="C_0000885653978909508775-C_0001816244285415343406" style="stroke: #A80036; stroke-width: 1.0; stroke-dasharray: 7.0,7.0;"/><polygon fill="#A80036" points="184.62,313.81,194.3741,312.4468,188.864,311.1664,190.1443,305.6564,184.62,313.81" style="stroke: #A80036; stroke-width: 1.0;"/><!--link C_0000517477364643921331 to C_0000077851926960506546--><path d="M628.98,253.24 C603.94,269.86 569.9,292.46 542.14,310.89 " fill="none" id="C_0000517477364643921331-C_0000077851926960506546" style="stroke: #A80036; stroke-width: 1.0; stroke-dasharray: 7.0,7.0;"/><polygon fill="#A80036" points="537.74,313.81,547.4538,312.1844,541.9112,311.053,543.0426,305.5104,537.74,313.81" style="stroke: #A80036; stroke-width: 1.0;"/><!--link C_0001908735947263318269 to C_0001243971194173295032--><path d="M962.71,368.53 C983.93,386.17 1013.84,411.03 1039.54,432.4 " fill="none" id="C_0001908735947263318269-C_0001243971194173295032" style="stroke: #A80036; stroke-width: 1.0; stroke-dasharray: 7.0,7.0;"/><polygon fill="#A80036" points="1043.63,435.79,1039.2541,426.9667,1039.7807,432.5989,1034.1484,433.1255,1043.63,435.79" style="stroke: #A80036; stroke-width: 1.0;"/><!--link C_0001842507930156265638 to C_0001908735947263318269--><path d="M918.3,253.24 C921.61,271.15 926.21,295.98 929.74,315.07 " fill="none" id="C_0001842507930156265638-C_0001908735947263318269" style="stroke: #A80036; stroke-width: 1.0; stroke-dasharray: 7.0,7.0;"/><polygon fill="#A80036" points="930.71,320.29,933.0013,310.7114,929.798,315.3739,925.1355,312.1706,930.71,320.29" style="stroke: #A80036; stroke-width: 1.0;"/><!--link C_0001816244285415343406 to C_0000723521372703994295--><path d="M137,375.11 C137,396.74 137,425.91 137,447.32 " fill="none" id="C_0001816244285415343406-C_0000723521372703994295" style="stroke: #A80036; stroke-width: 1.0; stroke-dasharray: 7.0,7.0;"/><polygon fill="#A80036" points="137,452.58,141,443.58,137,447.58,133,443.58,137,452.58" style="stroke: #A80036; stroke-width: 1.0;"/><!--link C_0000077851926960506546 to C_0000723521372703994295--><path d="M325.02,375 C295.37,382.92 265.28,392.79 238,405 C212.72,416.32 187.23,434.3 168.18,449.34 " fill="none" id="C_0000077851926960506546-C_0000723521372703994295" style="stroke: #A80036; stroke-width: 1.0; stroke-dasharray: 7.0,7.0;"/><polygon fill="#A80036" points="163.97,452.69,173.4932,450.1785,167.8702,449.5613,168.4873,443.9382,163.97,452.69" style="stroke: #A80036; stroke-width: 1.0;"/><!--link C_0000077851926960506546 to C_0000740826215814649639--><path d="M466,375.14 C429.95,416.95 367.85,497.29 344,579 C324.25,646.67 328.35,687.26 382,733 C400.97,749.18 424.48,763.48 445.28,774.6 " fill="none" id="C_0000077851926960506546-C_0000740826215814649639" style="stroke: #A80036; stroke-width: 1.0; stroke-dasharray: 7.0,7.0;"/><polygon fill="#A80036" points="449.95,777.06,443.8652,769.3157,445.5304,774.7219,440.1242,776.3871,449.95,777.06" style="stroke: #A80036; stroke-width: 1.0;"/><!--link C_0001243971194173295032 to C_0000740826215814649639--><path d="M887.2,493.07 C686.12,510 404.7,540.25 371,579 C339.79,614.88 351.61,642.58 371,686 C387.61,723.21 423.2,753.27 452.33,773 " fill="none" id="C_0001243971194173295032-C_0000740826215814649639" style="stroke: #A80036; stroke-width: 1.0; stroke-dasharray: 7.0,7.0;"/><polygon fill="#A80036" points="456.58,775.84,451.3103,767.5195,452.4197,773.0665,446.8727,774.1759,456.58,775.84" style="stroke: #A80036; stroke-width: 1.0;"/><!--link C_0001243971194173295032 to C_0000790902628272918616--><path d="M1296.58,489.84 C1521.34,504.99 1855.9,534.68 1895,579 C1926.46,614.66 1920.79,646.04 1895,686 C1853.11,750.91 1763.95,778.93 1704.23,790.75 " fill="none" id="C_0001243971194173295032-C_0000790902628272918616" style="stroke: #A80036; stroke-width: 1.0; stroke-dasharray: 7.0,7.0;"/><polygon fill="#A80036" points="1699.27,791.71,1708.8687,793.9156,1704.1778,790.7541,1707.3393,786.0632,1699.27,791.71" style="stroke: #A80036; stroke-width: 1.0;"/><!--link C_0001971792373968053805 to C_0000740826215814649639--><path d="M1483.87,679.58 C1407.31,699.53 1314.12,721.02 1229,733 C1081.86,753.71 703.86,722.13 561,763 C552.42,765.46 543.74,769.26 535.66,773.5 " fill="none" id="C_0001971792373968053805-C_0000740826215814649639" style="stroke: #A80036; stroke-width: 1.0; stroke-dasharray: 7.0,7.0;"/><polygon fill="#A80036" points="531.24,775.89,541.0604,775.1412,535.6414,773.5178,537.2648,768.0989,531.24,775.89" style="stroke: #A80036; stroke-width: 1.0;"/><!--link C_0001971792373968053805 to C_0000790902628272918616--><path d="M1645,679.6 C1645,704.05 1645,733.86 1645,757.57 " fill="none" id="C_0001971792373968053805-C_0000790902628272918616" style="stroke: #A80036; stroke-width: 1.0; stroke-dasharray: 7.0,7.0;"/><polygon fill="#A80036" points="1645,762.84,1649,753.84,1645,757.84,1641,753.84,1645,762.84" style="stroke: #A80036; stroke-width: 1.0;"/><!--link C_0001971792373968053805 to C_0000796543511279331718--><path d="M1529.16,684.9 C1466.55,712.68 1391.48,745.99 1338.66,769.42 " fill="none" id="C_0001971792373968053805-C_0000796543511279331718" style="stroke: #A80036; stroke-width: 1.0;"/><polygon fill="#FFFFFF" points="1541.1,679.6,1533.9935,678.376,1530.1305,684.4651,1537.2369,685.6891,1541.1,679.6" style="stroke: #A80036; stroke-width: 1.0;"/><rect fill="none" height="6" style="stroke: #C82930; stroke-width: 1.0;" width="6" x="1461" y="722.0664"/><text fill="#000000" font-family="sans-serif" font-size="13" lengthAdjust="spacingAndGlyphs" textLength="112" x="1471" y="729.0669">acceleration_limit</text><!--link C_0001243971194173295032 to C_0001971792373968053805--><path d="M1255.74,523.45 C1326.18,543 1408.39,565.82 1479.06,585.44 " fill="none" id="C_0001243971194173295032-C_0001971792373968053805" style="stroke: #A80036; stroke-width: 1.0;"/><polygon fill="none" points="1253.61,530.12,1236.21,518.03,1257.35,516.63,1253.61,530.12" style="stroke: #A80036; stroke-width: 1.0;"/><!--link C_0001143070539853614602 to C_0000740826215814649639--><path d="M808.89,682.97 C802.87,683.99 796.9,685 791,686 C709.73,699.72 683.84,683.73 608,716 C576.53,729.39 545.78,753.5 524.66,772.3 " fill="none" id="C_0001143070539853614602-C_0000740826215814649639" style="stroke: #A80036; stroke-width: 1.0; stroke-dasharray: 7.0,7.0;"/><polygon fill="#A80036" points="520.83,775.74,530.1955,772.6925,524.5465,772.3952,524.8438,766.7461,520.83,775.74" style="stroke: #A80036; stroke-width: 1.0;"/><!--link C_0001143070539853614602 to C_0000790902628272918616--><path d="M1272.98,686 C1306.57,695.9 1341.37,706.21 1374,716 C1447.09,737.92 1531.07,763.74 1585.92,780.69 " fill="none" id="C_0001143070539853614602-C_0000790902628272918616" style="stroke: #A80036; stroke-width: 1.0; stroke-dasharray: 7.0,7.0;"/><polygon fill="#A80036" points="1590.81,782.2,1583.383,775.7317,1586.0308,780.7306,1581.0319,783.3784,1590.81,782.2" style="stroke: #A80036; stroke-width: 1.0;"/><!--link C_0001143070539853614602 to C_0000796543511279331718--><path d="M1159.68,695.15 C1187.1,720.51 1217.59,748.69 1239.87,769.29 " fill="none" id="C_0001143070539853614602-C_0000796543511279331718" style="stroke: #A80036; stroke-width: 1.0;"/><polygon fill="#FFFFFF" points="1150.13,686.32,1151.8287,693.3282,1158.9512,694.4555,1157.2524,687.4474,1150.13,686.32" style="stroke: #A80036; stroke-width: 1.0;"/><rect fill="none" height="6" style="stroke: #C82930; stroke-width: 1.0;" width="6" x="1201" y="722.0664"/><text fill="#000000" font-family="sans-serif" font-size="13" lengthAdjust="spacingAndGlyphs" textLength="113" x="1211" y="729.0669">deceleration_limit</text><!--link C_0001243971194173295032 to C_0001143070539853614602--><path d="M1092.39,538.44 C1092.48,551.75 1092.57,565.75 1092.66,578.73 " fill="none" id="C_0001243971194173295032-C_0001143070539853614602" style="stroke: #A80036; stroke-width: 1.0;"/><polygon fill="none" points="1085.39,538.38,1092.26,518.33,1099.39,538.28,1085.39,538.38" style="stroke: #A80036; stroke-width: 1.0;"/><!--link C_0000346611438033482912 to C_0000740826215814649639--><path d="M557.6,679.6 C542.61,709.13 523.66,746.47 510.98,771.46 " fill="none" id="C_0000346611438033482912-C_0000740826215814649639" style="stroke: #A80036; stroke-width: 1.0; stroke-dasharray: 7.0,7.0;"/><polygon fill="#A80036" points="508.69,775.98,516.3246,769.758,510.9489,771.5194,509.1875,766.1437,508.69,775.98" style="stroke: #A80036; stroke-width: 1.0;"/><!--link C_0000346611438033482912 to C_0000790902628272918616--><path d="M754.38,679.55 C766.72,681.99 779.02,684.18 791,686 C1026.46,721.71 1093.2,665.81 1326,716 C1346.49,720.42 1349.99,726.76 1370,733 C1443.37,755.87 1529.83,775.44 1585.94,787.21 " fill="none" id="C_0000346611438033482912-C_0000790902628272918616" style="stroke: #A80036; stroke-width: 1.0; stroke-dasharray: 7.0,7.0;"/><polygon fill="#A80036" points="1590.93,788.25,1582.9437,782.4864,1586.0366,787.2228,1581.3002,790.3158,1590.93,788.25" style="stroke: #A80036; stroke-width: 1.0;"/><!--link C_0000346611438033482912 to C_0001070886243531016382--><path d="M605.28,691.74 C616.21,717.95 628.64,747.77 637.62,769.3 " fill="none" id="C_0000346611438033482912-C_0001070886243531016382" style="stroke: #A80036; stroke-width: 1.0;"/><polygon fill="#FFFFFF" points="600.22,679.6,598.8354,686.6769,604.8354,690.6769,606.22,683.6,600.22,679.6" style="stroke: #A80036; stroke-width: 1.0;"/><rect fill="none" height="6" style="stroke: #C82930; stroke-width: 1.0;" width="6" x="625" y="722.0664"/><text fill="#000000" font-family="sans-serif" font-size="13" lengthAdjust="spacingAndGlyphs" textLength="76" x="635" y="729.0669">torque_limit</text><!--link C_0001243971194173295032 to C_0000346611438033482912--><path d="M939.44,523.83 C874.64,543.29 799.22,565.95 734.34,585.44 " fill="none" id="C_0001243971194173295032-C_0000346611438033482912" style="stroke: #A80036; stroke-width: 1.0;"/><polygon fill="none" points="937.57,517.08,958.74,518.03,941.6,530.49,937.57,517.08" style="stroke: #A80036; stroke-width: 1.0;"/><!--link C_0000978161556763682069 to C_0001243971194173295032--><path d="M955.4,128.16 C993.82,147.1 1029.13,172.07 1056,205 C1108.29,269.07 1106.07,371.47 1099.33,430.34 " fill="none" id="C_0000978161556763682069-C_0001243971194173295032" style="stroke: #A80036; stroke-width: 1.0; stroke-dasharray: 7.0,7.0;"/><polygon fill="#A80036" points="1098.71,435.55,1103.7596,427.0941,1099.3091,430.586,1095.8172,426.1356,1098.71,435.55" style="stroke: #A80036; stroke-width: 1.0;"/><!--link C_0000978161556763682069 to C_0000790902628272918616--><path d="M1024.12,125.77 C1029.79,126.53 1035.42,127.27 1041,128 C1147.46,141.86 2002,120.65 2002,228 C2002,228 2002,228 2002,633.5 C2002,763.16 1805.77,791.53 1704.28,797.53 " fill="none" id="C_0000978161556763682069-C_0000790902628272918616" style="stroke: #A80036; stroke-width: 1.0; stroke-dasharray: 7.0,7.0;"/><polygon fill="#A80036" points="1699.22,797.82,1708.4341,801.2985,1704.2118,797.5339,1707.9764,793.3116,1699.22,797.82" style="stroke: #A80036; stroke-width: 1.0;"/><!--link C_0000978161556763682069 to C_0001816244285415343406--><path d="M333.94,128.05 C254.19,148.71 184.08,174.5 157,205 C132.07,233.08 129.95,277.74 132.19,308.72 " fill="none" id="C_0000978161556763682069-C_0001816244285415343406" style="stroke: #A80036; stroke-width: 1.0;"/><polygon fill="#A80036" points="132.62,313.95,135.8853,304.6582,132.219,308.9661,127.9111,305.2998,132.62,313.95" style="stroke: #A80036; stroke-width: 1.0;"/><rect fill="none" height="6" style="stroke: #C82930; stroke-width: 1.0;" width="6" x="160" y="226.5664"/><text fill="#000000" font-family="sans-serif" font-size="13" lengthAdjust="spacingAndGlyphs" textLength="43" x="170" y="233.5669">sensor</text><!--link C_0000978161556763682069 to C_0000885653978909508775--><path d="M453.98,128.1 C433.15,136.93 412.79,146.87 394,158 C374.81,169.37 356.45,186.36 342.69,200.76 " fill="none" id="C_0000978161556763682069-C_0000885653978909508775" style="stroke: #A80036; stroke-width: 1.0;"/><polygon fill="#A80036" points="338.94,204.75,348.0285,200.9555,342.374,201.1157,342.2137,195.4611,338.94,204.75" style="stroke: #A80036; stroke-width: 1.0;"/><rect fill="none" height="6" style="stroke: #C82930; stroke-width: 1.0;" width="6" x="397" y="164.0664"/><text fill="#000000" font-family="sans-serif" font-size="13" lengthAdjust="spacingAndGlyphs" textLength="43" x="407" y="171.0669">sensor</text><!--link C_0000978161556763682069 to C_0000077851926960506546--><path d="M561.28,128.31 C534.88,148.97 509.78,174.71 495,205 C479.17,237.45 481.22,279.48 485.62,308.69 " fill="none" id="C_0000978161556763682069-C_0000077851926960506546" style="stroke: #A80036; stroke-width: 1.0;"/><polygon fill="#A80036" points="486.47,313.99,489.0075,304.4736,485.6851,309.052,481.1067,305.7296,486.47,313.99" style="stroke: #A80036; stroke-width: 1.0;"/><rect fill="none" height="6" style="stroke: #C82930; stroke-width: 1.0;" width="6" x="498" y="226.5664"/><text fill="#000000" font-family="sans-serif" font-size="13" lengthAdjust="spacingAndGlyphs" textLength="48" x="508" y="233.5669">planner</text><!--link C_0000978161556763682069 to C_0000517477364643921331--><path d="M664,128.21 C664,152.68 664,179.91 664,199.73 " fill="none" id="C_0000978161556763682069-C_0000517477364643921331" style="stroke: #A80036; stroke-width: 1.0;"/><polygon fill="#A80036" points="664,204.86,668,195.86,664,199.86,660,195.86,664,204.86" style="stroke: #A80036; stroke-width: 1.0;"/><rect fill="none" height="6" style="stroke: #C82930; stroke-width: 1.0;" width="6" x="667" y="164.0664"/><text fill="#000000" font-family="sans-serif" font-size="13" lengthAdjust="spacingAndGlyphs" textLength="48" x="677" y="171.0669">planner</text><!--link C_0000978161556763682069 to C_0001842507930156265638--><path d="M768.25,135.3 C807.17,160.05 848.85,186.56 877.62,204.86 " fill="none" id="C_0000978161556763682069-C_0001842507930156265638" style="stroke: #A80036; stroke-width: 1.0;"/><polygon fill="#FFFFFF" points="757.09,128.21,760.0089,134.8039,767.2183,134.6457,764.2994,128.0517,757.09,128.21" style="stroke: #A80036; stroke-width: 1.0;"/><rect fill="none" height="6" style="stroke: #C82930; stroke-width: 1.0;" width="6" x="829" y="164.0664"/><text fill="#000000" font-family="sans-serif" font-size="13" lengthAdjust="spacingAndGlyphs" textLength="40" x="839" y="171.0669">actors</text><!--
@startuml
class "std::shared_ptr<Sensor>" as C_0000885653978909508775
class C_0000885653978909508775 {
__
}
class "std::shared_ptr<Planner>" as C_0000517477364643921331
class C_0000517477364643921331 {
__
}
class "std::shared_ptr<Actor>" as C_0001908735947263318269
class C_0001908735947263318269 {
__
}
class "std::vector<std::shared_ptr<Actor>>" as C_0001842507930156265638
class C_0001842507930156265638 {
__
}
class "EnvironmentModel" as C_0000723521372703994295
class C_0000723521372703994295 {
__
}
class "Sensor" as C_0001816244285415343406
class C_0001816244285415343406 {
+model_environment() : EnvironmentModel
__
}
class "Trajectory" as C_0000740826215814649639
class C_0000740826215814649639 {
__
}
class "Planner" as C_0000077851926960506546
class C_0000077851926960506546 {
+plan_vehicle_behavior(const EnvironmentModel &) : Trajectory
__
}
enum "DrivingMode" as C_0000790902628272918616
enum C_0000790902628272918616 {
normal
emergency
}
class "DrivingModeNotSupported" as C_0001732491848753319804
class C_0001732491848753319804 {
+logic_error(const char *) : void
__
}
abstract "Actor" as C_0001243971194173295032
abstract C_0001243971194173295032 {
+~Actor() = default : void
..
{abstract} +control_vehicle(const Trajectory &, const DrivingMode &) = 0 : void
__
}
class "Acceleration" as C_0000796543511279331718
class C_0000796543511279331718 {
__
+value : MetresPerSquareSecond
}
class "PowerTrain" as C_0001971792373968053805
class C_0001971792373968053805 {
+PowerTrain(const Acceleration & acceleration_limit) : void
..
+control_vehicle(const Trajectory &, const DrivingMode & driving_mode) : void
__
-acceleration_limit : Acceleration
}
class "Brake" as C_0001143070539853614602
class C_0001143070539853614602 {
+Brake(const Acceleration & deceleration_limit) : void
..
+control_vehicle(const Trajectory &, const DrivingMode & driving_mode) : void
-get_current_deceleration_limit(const DrivingMode & driving_mode) const : const Acceleration &
__
-deceleration_limit : Acceleration
}
class "Torque" as C_0001070886243531016382
class C_0001070886243531016382 {
__
+value : NewtonMetre
}
class "SteeringWheel" as C_0000346611438033482912
class C_0000346611438033482912 {
+SteeringWheel(const Torque & torque_limit) : void
..
+control_vehicle(const Trajectory &, const DrivingMode &) : void
__
-torque_limit : Torque
}
class "DrivingSystem" as C_0000978161556763682069
class C_0000978161556763682069 {
+DrivingSystem(std::shared_ptr<Sensor> sensor, std::shared_ptr<Planner> planner, DrivingSystem::Actors actors) : void
..
+one_cycle(const DrivingMode & driving_mode) : void
__
-actors : DrivingSystem::Actors
-planner : std::shared_ptr<Planner>
-sensor : std::shared_ptr<Sensor>
}
C_0000885653978909508775 ..> C_0001816244285415343406
C_0000517477364643921331 ..> C_0000077851926960506546
C_0001908735947263318269 ..> C_0001243971194173295032
C_0001842507930156265638 ..> C_0001908735947263318269
C_0001816244285415343406 ..> C_0000723521372703994295
C_0000077851926960506546 ..> C_0000723521372703994295
C_0000077851926960506546 ..> C_0000740826215814649639
C_0001243971194173295032 ..> C_0000740826215814649639
C_0001243971194173295032 ..> C_0000790902628272918616
C_0001971792373968053805 ..> C_0000740826215814649639
C_0001971792373968053805 ..> C_0000790902628272918616
C_0001971792373968053805 o- - C_0000796543511279331718 : -acceleration_limit
C_0001243971194173295032 <|- - C_0001971792373968053805
C_0001143070539853614602 ..> C_0000740826215814649639
C_0001143070539853614602 ..> C_0000790902628272918616
C_0001143070539853614602 o- - C_0000796543511279331718 : -deceleration_limit
C_0001243971194173295032 <|- - C_0001143070539853614602
C_0000346611438033482912 ..> C_0000740826215814649639
C_0000346611438033482912 ..> C_0000790902628272918616
C_0000346611438033482912 o- - C_0001070886243531016382 : -torque_limit
C_0001243971194173295032 <|- - C_0000346611438033482912
C_0000978161556763682069 ..> C_0001243971194173295032
C_0000978161556763682069 ..> C_0000790902628272918616
C_0000978161556763682069 - -> C_0001816244285415343406 : -sensor
C_0000978161556763682069 - -> C_0000885653978909508775 : -sensor
C_0000978161556763682069 - -> C_0000077851926960506546 : -planner
C_0000978161556763682069 - -> C_0000517477364643921331 : -planner
C_0000978161556763682069 o- - C_0001842507930156265638 : -actors

@enduml

PlantUML version 1.2018.13(Mon Nov 26 18:11:51 CET 2018)
(GPL source distribution)
Java Runtime: OpenJDK Runtime Environment
JVM: OpenJDK 64-Bit Server VM
Java Version: 11.0.21+9-post-Ubuntu-0ubuntu120.04
Operating System: Linux
OS Version: 5.15.0-91-generic
Default Encoding: UTF-8
Language: de
Country: DE
--></g></svg>