<?xml version="1.0" encoding="UTF-8" standalone="no"?><svg xmlns="http://www.w3.org/2000/svg" xmlns:xlink="http://www.w3.org/1999/xlink" contentScriptType="application/ecmascript" contentStyleType="text/css" height="821px" preserveAspectRatio="none" style="width:1389px;height:821px;" version="1.1" viewBox="0 0 1389 821" width="1389px" zoomAndPan="magnify"><defs><filter height="300%" id="f1tljhwoixqcex" width="300%" x="-1" y="-1"><feGaussianBlur result="blurOut" stdDeviation="2.0"/><feColorMatrix in="blurOut" result="blurOut2" type="matrix" values="0 0 0 0 0 0 0 0 0 0 0 0 0 0 0 0 0 0 .4 0"/><feOffset dx="4.0" dy="4.0" in="blurOut2" result="blurOut3"/><feBlend in="SourceGraphic" in2="blurOut3" mode="normal"/></filter></defs><g><!--class C_0000885653978909508775--><rect fill="#FEFECE" filter="url(#f1tljhwoixqcex)" height="48" id="C_0000885653978909508775" style="stroke: #A80036; stroke-width: 1.5;" width="175" x="399.5" y="205"/><ellipse cx="414.5" cy="221" fill="#ADD1B2" rx="11" ry="11" style="stroke: #A80036; stroke-width: 1.0;"/><path d="M417.4688,226.6406 Q416.8906,226.9375 416.25,227.0781 Q415.6094,227.2344 414.9063,227.2344 Q412.4063,227.2344 411.0781,225.5938 Q409.7656,223.9375 409.7656,220.8125 Q409.7656,217.6875 411.0781,216.0313 Q412.4063,214.375 414.9063,214.375 Q415.6094,214.375 416.25,214.5313 Q416.9063,214.6875 417.4688,214.9844 L417.4688,217.7031 Q416.8438,217.125 416.25,216.8594 Q415.6563,216.5781 415.0313,216.5781 Q413.6875,216.5781 413,217.6563 Q412.3125,218.7188 412.3125,220.8125 Q412.3125,222.9063 413,223.9844 Q413.6875,225.0469 415.0313,225.0469 Q415.6563,225.0469 416.25,224.7813 Q416.8438,224.5 417.4688,223.9219 L417.4688,226.6406 Z "/><text fill="#000000" font-family="sans-serif" font-size="12" lengthAdjust="spacingAndGlyphs" textLength="96" x="428.5" y="225.1543">std::shared_ptr</text><rect fill="#FFFFFF" height="15.9688" style="stroke: #000000; stroke-width: 1.0; stroke-dasharray: 2.0,2.0;" width="45" x="532.5" y="202"/><text fill="#000000" font-family="sans-serif" font-size="12" font-style="italic" lengthAdjust="spacingAndGlyphs" textLength="43" x="533.5" y="214.1387">Sensor</text><line style="stroke: #A80036; stroke-width: 1.5;" x1="400.5" x2="573.5" y1="237" y2="237"/><line style="stroke: #A80036; stroke-width: 1.5;" x1="400.5" x2="573.5" y1="245" y2="245"/><!--class C_0000517477364643921331--><rect fill="#FEFECE" filter="url(#f1tljhwoixqcex)" height="48" id="C_0000517477364643921331" style="stroke: #A80036; stroke-width: 1.5;" width="179" x="52.5" y="205"/><ellipse cx="67.5" cy="221" fill="#ADD1B2" rx="11" ry="11" style="stroke: #A80036; stroke-width: 1.0;"/><path d="M70.4688,226.6406 Q69.8906,226.9375 69.25,227.0781 Q68.6094,227.2344 67.9063,227.2344 Q65.4063,227.2344 64.0781,225.5938 Q62.7656,223.9375 62.7656,220.8125 Q62.7656,217.6875 64.0781,216.0313 Q65.4063,214.375 67.9063,214.375 Q68.6094,214.375 69.25,214.5313 Q69.9063,214.6875 70.4688,214.9844 L70.4688,217.7031 Q69.8438,217.125 69.25,216.8594 Q68.6563,216.5781 68.0313,216.5781 Q66.6875,216.5781 66,217.6563 Q65.3125,218.7188 65.3125,220.8125 Q65.3125,222.9063 66,223.9844 Q66.6875,225.0469 68.0313,225.0469 Q68.6563,225.0469 69.25,224.7813 Q69.8438,224.5 70.4688,223.9219 L70.4688,226.6406 Z "/><text fill="#000000" font-family="sans-serif" font-size="12" lengthAdjust="spacingAndGlyphs" textLength="96" x="81.5" y="225.1543">std::shared_ptr</text><rect fill="#FFFFFF" height="15.9688" style="stroke: #000000; stroke-width: 1.0; stroke-dasharray: 2.0,2.0;" width="49" x="185.5" y="202"/><text fill="#000000" font-family="sans-serif" font-size="12" font-style="italic" lengthAdjust="spacingAndGlyphs" textLength="47" x="186.5" y="214.1387">Planner</text><line style="stroke: #A80036; stroke-width: 1.5;" x1="53.5" x2="230.5" y1="237" y2="237"/><line style="stroke: #A80036; stroke-width: 1.5;" x1="53.5" x2="230.5" y1="245" y2="245"/><!--class C_0001908735947263318269--><rect fill="#FEFECE" filter="url(#f1tljhwoixqcex)" height="48" id="C_0001908735947263318269" style="stroke: #A80036; stroke-width: 1.5;" width="165" x="829.5" y="320.5"/><ellipse cx="844.5" cy="336.5" fill="#ADD1B2" rx="11" ry="11" style="stroke: #A80036; stroke-width: 1.0;"/><path d="M847.4688,342.1406 Q846.8906,342.4375 846.25,342.5781 Q845.6094,342.7344 844.9063,342.7344 Q842.4063,342.7344 841.0781,341.0938 Q839.7656,339.4375 839.7656,336.3125 Q839.7656,333.1875 841.0781,331.5313 Q842.4063,329.875 844.9063,329.875 Q845.6094,329.875 846.25,330.0313 Q846.9063,330.1875 847.4688,330.4844 L847.4688,333.2031 Q846.8438,332.625 846.25,332.3594 Q845.6563,332.0781 845.0313,332.0781 Q843.6875,332.0781 843,333.1563 Q842.3125,334.2188 842.3125,336.3125 Q842.3125,338.4063 843,339.4844 Q843.6875,340.5469 845.0313,340.5469 Q845.6563,340.5469 846.25,340.2813 Q846.8438,340 847.4688,339.4219 L847.4688,342.1406 Z "/><text fill="#000000" font-family="sans-serif" font-size="12" lengthAdjust="spacingAndGlyphs" textLength="96" x="858.5" y="340.6543">std::shared_ptr</text><rect fill="#FFFFFF" height="15.9688" style="stroke: #000000; stroke-width: 1.0; stroke-dasharray: 2.0,2.0;" width="35" x="962.5" y="317.5"/><text fill="#000000" font-family="sans-serif" font-size="12" font-style="italic" lengthAdjust="spacingAndGlyphs" textLength="33" x="963.5" y="329.6387">Actor</text><line style="stroke: #A80036; stroke-width: 1.5;" x1="830.5" x2="993.5" y1="352.5" y2="352.5"/><line style="stroke: #A80036; stroke-width: 1.5;" x1="830.5" x2="993.5" y1="360.5" y2="360.5"/><!--class C_0001842507930156265638--><rect fill="#FEFECE" filter="url(#f1tljhwoixqcex)" height="48" id="C_0001842507930156265638" style="stroke: #A80036; stroke-width: 1.5;" width="250" x="808" y="205"/><ellipse cx="823" cy="221" fill="#ADD1B2" rx="11" ry="11" style="stroke: #A80036; stroke-width: 1.0;"/><path d="M825.9688,226.6406 Q825.3906,226.9375 824.75,227.0781 Q824.1094,227.2344 823.4063,227.2344 Q820.9063,227.2344 819.5781,225.5938 Q818.2656,223.9375 818.2656,220.8125 Q818.2656,217.6875 819.5781,216.0313 Q820.9063,214.375 823.4063,214.375 Q824.1094,214.375 824.75,214.5313 Q825.4063,214.6875 825.9688,214.9844 L825.9688,217.7031 Q825.3438,217.125 824.75,216.8594 Q824.1563,216.5781 823.5313,216.5781 Q822.1875,216.5781 821.5,217.6563 Q820.8125,218.7188 820.8125,220.8125 Q820.8125,222.9063 821.5,223.9844 Q822.1875,225.0469 823.5313,225.0469 Q824.1563,225.0469 824.75,224.7813 Q825.3438,224.5 825.9688,223.9219 L825.9688,226.6406 Z "/><text fill="#000000" font-family="sans-serif" font-size="12" lengthAdjust="spacingAndGlyphs" textLength="67" x="837" y="225.1543">std::vector</text><rect fill="#FFFFFF" height="15.9688" style="stroke: #000000; stroke-width: 1.0; stroke-dasharray: 2.0,2.0;" width="149" x="912" y="202"/><text fill="#000000" font-family="sans-serif" font-size="12" font-style="italic" lengthAdjust="spacingAndGlyphs" textLength="147" x="913" y="214.1387">std::shared_ptr&lt;Actor&gt;</text><line style="stroke: #A80036; stroke-width: 1.5;" x1="809" x2="1057" y1="237" y2="237"/><line style="stroke: #A80036; stroke-width: 1.5;" x1="809" x2="1057" y1="245" y2="245"/><!--class C_0000723521372703994295--><rect fill="#FEFECE" filter="url(#f1tljhwoixqcex)" height="48" id="C_0000723521372703994295" style="stroke: #A80036; stroke-width: 1.5;" width="147" x="307.5" y="453"/><ellipse cx="322.5" cy="469" fill="#ADD1B2" rx="11" ry="11" style="stroke: #A80036; stroke-width: 1.0;"/><path d="M325.4688,474.6406 Q324.8906,474.9375 324.25,475.0781 Q323.6094,475.2344 322.9063,475.2344 Q320.4063,475.2344 319.0781,473.5938 Q317.7656,471.9375 317.7656,468.8125 Q317.7656,465.6875 319.0781,464.0313 Q320.4063,462.375 322.9063,462.375 Q323.6094,462.375 324.25,462.5313 Q324.9063,462.6875 325.4688,462.9844 L325.4688,465.7031 Q324.8438,465.125 324.25,464.8594 Q323.6563,464.5781 323.0313,464.5781 Q321.6875,464.5781 321,465.6563 Q320.3125,466.7188 320.3125,468.8125 Q320.3125,470.9063 321,471.9844 Q321.6875,473.0469 323.0313,473.0469 Q323.6563,473.0469 324.25,472.7813 Q324.8438,472.5 325.4688,471.9219 L325.4688,474.6406 Z "/><text fill="#000000" font-family="sans-serif" font-size="12" lengthAdjust="spacingAndGlyphs" textLength="115" x="336.5" y="473.1543">EnvironmentModel</text><line style="stroke: #A80036; stroke-width: 1.5;" x1="308.5" x2="453.5" y1="485" y2="485"/><line style="stroke: #A80036; stroke-width: 1.5;" x1="308.5" x2="453.5" y1="493" y2="493"/><!--class C_0001816244285415343406--><rect fill="#FEFECE" filter="url(#f1tljhwoixqcex)" height="60.8047" id="C_0001816244285415343406" style="stroke: #A80036; stroke-width: 1.5;" width="262" x="421" y="314"/><ellipse cx="525.75" cy="330" fill="#ADD1B2" rx="11" ry="11" style="stroke: #A80036; stroke-width: 1.0;"/><path d="M528.7188,335.6406 Q528.1406,335.9375 527.5,336.0781 Q526.8594,336.2344 526.1563,336.2344 Q523.6563,336.2344 522.3281,334.5938 Q521.0156,332.9375 521.0156,329.8125 Q521.0156,326.6875 522.3281,325.0313 Q523.6563,323.375 526.1563,323.375 Q526.8594,323.375 527.5,323.5313 Q528.1563,323.6875 528.7188,323.9844 L528.7188,326.7031 Q528.0938,326.125 527.5,325.8594 Q526.9063,325.5781 526.2813,325.5781 Q524.9375,325.5781 524.25,326.6563 Q523.5625,327.7188 523.5625,329.8125 Q523.5625,331.9063 524.25,332.9844 Q524.9375,334.0469 526.2813,334.0469 Q526.9063,334.0469 527.5,333.7813 Q528.0938,333.5 528.7188,332.9219 L528.7188,335.6406 Z "/><text fill="#000000" font-family="sans-serif" font-size="12" lengthAdjust="spacingAndGlyphs" textLength="44" x="546.25" y="334.1543">Sensor</text><line style="stroke: #A80036; stroke-width: 1.5;" x1="422" x2="682" y1="346" y2="346"/><ellipse cx="432" cy="357.9023" fill="#84BE84" rx="3" ry="3" style="stroke: #038048; stroke-width: 1.0;"/><text fill="#000000" font-family="sans-serif" font-size="11" lengthAdjust="spacingAndGlyphs" textLength="236" x="441" y="360.2104">model_environment() : EnvironmentModel</text><line style="stroke: #A80036; stroke-width: 1.5;" x1="422" x2="682" y1="366.8047" y2="366.8047"/><!--class C_0000740826215814649639--><rect fill="#FEFECE" filter="url(#f1tljhwoixqcex)" height="48" id="C_0000740826215814649639" style="stroke: #A80036; stroke-width: 1.5;" width="94" x="753" y="756.5"/><ellipse cx="768" cy="772.5" fill="#ADD1B2" rx="11" ry="11" style="stroke: #A80036; stroke-width: 1.0;"/><path d="M770.9688,778.1406 Q770.3906,778.4375 769.75,778.5781 Q769.1094,778.7344 768.4063,778.7344 Q765.9063,778.7344 764.5781,777.0938 Q763.2656,775.4375 763.2656,772.3125 Q763.2656,769.1875 764.5781,767.5313 Q765.9063,765.875 768.4063,765.875 Q769.1094,765.875 769.75,766.0313 Q770.4063,766.1875 770.9688,766.4844 L770.9688,769.2031 Q770.3438,768.625 769.75,768.3594 Q769.1563,768.0781 768.5313,768.0781 Q767.1875,768.0781 766.5,769.1563 Q765.8125,770.2188 765.8125,772.3125 Q765.8125,774.4063 766.5,775.4844 Q767.1875,776.5469 768.5313,776.5469 Q769.1563,776.5469 769.75,776.2813 Q770.3438,776 770.9688,775.4219 L770.9688,778.1406 Z "/><text fill="#000000" font-family="sans-serif" font-size="12" lengthAdjust="spacingAndGlyphs" textLength="62" x="782" y="776.6543">Trajectory</text><line style="stroke: #A80036; stroke-width: 1.5;" x1="754" x2="846" y1="788.5" y2="788.5"/><line style="stroke: #A80036; stroke-width: 1.5;" x1="754" x2="846" y1="796.5" y2="796.5"/><!--class C_0000077851926960506546--><rect fill="#FEFECE" filter="url(#f1tljhwoixqcex)" height="60.8047" id="C_0000077851926960506546" style="stroke: #A80036; stroke-width: 1.5;" width="380" x="6" y="314"/><ellipse cx="167.75" cy="330" fill="#ADD1B2" rx="11" ry="11" style="stroke: #A80036; stroke-width: 1.0;"/><path d="M170.7188,335.6406 Q170.1406,335.9375 169.5,336.0781 Q168.8594,336.2344 168.1563,336.2344 Q165.6563,336.2344 164.3281,334.5938 Q163.0156,332.9375 163.0156,329.8125 Q163.0156,326.6875 164.3281,325.0313 Q165.6563,323.375 168.1563,323.375 Q168.8594,323.375 169.5,323.5313 Q170.1563,323.6875 170.7188,323.9844 L170.7188,326.7031 Q170.0938,326.125 169.5,325.8594 Q168.9063,325.5781 168.2813,325.5781 Q166.9375,325.5781 166.25,326.6563 Q165.5625,327.7188 165.5625,329.8125 Q165.5625,331.9063 166.25,332.9844 Q166.9375,334.0469 168.2813,334.0469 Q168.9063,334.0469 169.5,333.7813 Q170.0938,333.5 170.7188,332.9219 L170.7188,335.6406 Z "/><text fill="#000000" font-family="sans-serif" font-size="12" lengthAdjust="spacingAndGlyphs" textLength="48" x="188.25" y="334.1543">Planner</text><line style="stroke: #A80036; stroke-width: 1.5;" x1="7" x2="385" y1="346" y2="346"/><ellipse cx="17" cy="357.9023" fill="#84BE84" rx="3" ry="3" style="stroke: #038048; stroke-width: 1.0;"/><text fill="#000000" font-family="sans-serif" font-size="11" lengthAdjust="spacingAndGlyphs" textLength="354" x="26" y="360.2104">plan_vehicle_behavior(const EnvironmentModel &amp;) : Trajectory</text><line style="stroke: #A80036; stroke-width: 1.5;" x1="7" x2="385" y1="366.8047" y2="366.8047"/><!--class C_0001243971194173295032--><rect fill="#FEFECE" filter="url(#f1tljhwoixqcex)" height="81.6094" id="C_0001243971194173295032" style="stroke: #A80036; stroke-width: 1.5;" width="284" x="690" y="436"/><ellipse cx="811.25" cy="452" fill="#A9DCDF" rx="11" ry="11" style="stroke: #A80036; stroke-width: 1.0;"/><path d="M811.3594,447.3438 L810.2031,452.4219 L812.5313,452.4219 L811.3594,447.3438 Z M809.875,445.1094 L812.8594,445.1094 L816.2188,457.5 L813.7656,457.5 L813,454.4375 L809.7188,454.4375 L808.9688,457.5 L806.5313,457.5 L809.875,445.1094 Z "/><text fill="#000000" font-family="sans-serif" font-size="12" font-style="italic" lengthAdjust="spacingAndGlyphs" textLength="33" x="831.75" y="456.1543">Actor</text><line style="stroke: #A80036; stroke-width: 1.5;" x1="691" x2="973" y1="468" y2="468"/><ellipse cx="701" cy="479.9023" fill="#84BE84" rx="3" ry="3" style="stroke: #038048; stroke-width: 1.0;"/><text fill="#000000" font-family="sans-serif" font-size="11" lengthAdjust="spacingAndGlyphs" textLength="137" x="710" y="482.2104">~Actor() = default : void</text><line style="stroke: #A80036; stroke-width: 1.0; stroke-dasharray: 1.0,2.0;" x1="691" x2="973" y1="488.8047" y2="488.8047"/><ellipse cx="701" cy="500.707" fill="#84BE84" rx="3" ry="3" style="stroke: #038048; stroke-width: 1.0;"/><text fill="#000000" font-family="sans-serif" font-size="11" font-style="italic" lengthAdjust="spacingAndGlyphs" textLength="258" x="710" y="503.0151">control_vehicle(const Trajectory &amp;) = 0 : void</text><line style="stroke: #A80036; stroke-width: 1.5;" x1="691" x2="973" y1="509.6094" y2="509.6094"/><!--class C_0000796543511279331718--><rect fill="#FEFECE" filter="url(#f1tljhwoixqcex)" height="60.8047" id="C_0000796543511279331718" style="stroke: #A80036; stroke-width: 1.5;" width="209" x="407.5" y="750"/><ellipse cx="468.75" cy="766" fill="#ADD1B2" rx="11" ry="11" style="stroke: #A80036; stroke-width: 1.0;"/><path d="M471.7188,771.6406 Q471.1406,771.9375 470.5,772.0781 Q469.8594,772.2344 469.1563,772.2344 Q466.6563,772.2344 465.3281,770.5938 Q464.0156,768.9375 464.0156,765.8125 Q464.0156,762.6875 465.3281,761.0313 Q466.6563,759.375 469.1563,759.375 Q469.8594,759.375 470.5,759.5313 Q471.1563,759.6875 471.7188,759.9844 L471.7188,762.7031 Q471.0938,762.125 470.5,761.8594 Q469.9063,761.5781 469.2813,761.5781 Q467.9375,761.5781 467.25,762.6563 Q466.5625,763.7188 466.5625,765.8125 Q466.5625,767.9063 467.25,768.9844 Q467.9375,770.0469 469.2813,770.0469 Q469.9063,770.0469 470.5,769.7813 Q471.0938,769.5 471.7188,768.9219 L471.7188,771.6406 Z "/><text fill="#000000" font-family="sans-serif" font-size="12" lengthAdjust="spacingAndGlyphs" textLength="78" x="489.25" y="770.1543">Acceleration</text><line style="stroke: #A80036; stroke-width: 1.5;" x1="408.5" x2="615.5" y1="782" y2="782"/><line style="stroke: #A80036; stroke-width: 1.5;" x1="408.5" x2="615.5" y1="790" y2="790"/><ellipse cx="418.5" cy="801.9023" fill="none" rx="3" ry="3" style="stroke: #038048; stroke-width: 1.0;"/><text fill="#000000" font-family="sans-serif" font-size="11" lengthAdjust="spacingAndGlyphs" textLength="183" x="427.5" y="804.2104">value : MetresPerSquareSecond</text><!--class C_0001971792373968053805--><rect fill="#FEFECE" filter="url(#f1tljhwoixqcex)" height="94.4141" id="C_0001971792373968053805" style="stroke: #A80036; stroke-width: 1.5;" width="354" x="249" y="579"/><ellipse cx="387.25" cy="595" fill="#ADD1B2" rx="11" ry="11" style="stroke: #A80036; stroke-width: 1.0;"/><path d="M390.2188,600.6406 Q389.6406,600.9375 389,601.0781 Q388.3594,601.2344 387.6563,601.2344 Q385.1563,601.2344 383.8281,599.5938 Q382.5156,597.9375 382.5156,594.8125 Q382.5156,591.6875 383.8281,590.0313 Q385.1563,588.375 387.6563,588.375 Q388.3594,588.375 389,588.5313 Q389.6563,588.6875 390.2188,588.9844 L390.2188,591.7031 Q389.5938,591.125 389,590.8594 Q388.4063,590.5781 387.7813,590.5781 Q386.4375,590.5781 385.75,591.6563 Q385.0625,592.7188 385.0625,594.8125 Q385.0625,596.9063 385.75,597.9844 Q386.4375,599.0469 387.7813,599.0469 Q388.4063,599.0469 389,598.7813 Q389.5938,598.5 390.2188,597.9219 L390.2188,600.6406 Z "/><text fill="#000000" font-family="sans-serif" font-size="12" lengthAdjust="spacingAndGlyphs" textLength="69" x="407.75" y="599.1543">PowerTrain</text><line style="stroke: #A80036; stroke-width: 1.5;" x1="250" x2="602" y1="611" y2="611"/><ellipse cx="260" cy="622.9023" fill="#84BE84" rx="3" ry="3" style="stroke: #038048; stroke-width: 1.0;"/><text fill="#000000" font-family="sans-serif" font-size="11" lengthAdjust="spacingAndGlyphs" textLength="328" x="269" y="625.2104">PowerTrain(const Acceleration &amp; acceleration_limit) : void</text><line style="stroke: #A80036; stroke-width: 1.0; stroke-dasharray: 1.0,2.0;" x1="250" x2="602" y1="631.8047" y2="631.8047"/><ellipse cx="260" cy="643.707" fill="#84BE84" rx="3" ry="3" style="stroke: #038048; stroke-width: 1.0;"/><text fill="#000000" font-family="sans-serif" font-size="11" lengthAdjust="spacingAndGlyphs" textLength="233" x="269" y="646.0151">control_vehicle(const Trajectory &amp;) : void</text><line style="stroke: #A80036; stroke-width: 1.5;" x1="250" x2="602" y1="652.6094" y2="652.6094"/><rect fill="none" height="6" style="stroke: #C82930; stroke-width: 1.0;" width="6" x="257" y="661.5117"/><text fill="#000000" font-family="sans-serif" font-size="11" lengthAdjust="spacingAndGlyphs" textLength="180" x="269" y="666.8198">acceleration_limit : Acceleration</text><!--class C_0001143070539853614602--><rect fill="#FEFECE" filter="url(#f1tljhwoixqcex)" height="94.4141" id="C_0001143070539853614602" style="stroke: #A80036; stroke-width: 1.5;" width="324" x="638" y="579"/><ellipse cx="777.75" cy="595" fill="#ADD1B2" rx="11" ry="11" style="stroke: #A80036; stroke-width: 1.0;"/><path d="M780.7188,600.6406 Q780.1406,600.9375 779.5,601.0781 Q778.8594,601.2344 778.1563,601.2344 Q775.6563,601.2344 774.3281,599.5938 Q773.0156,597.9375 773.0156,594.8125 Q773.0156,591.6875 774.3281,590.0313 Q775.6563,588.375 778.1563,588.375 Q778.8594,588.375 779.5,588.5313 Q780.1563,588.6875 780.7188,588.9844 L780.7188,591.7031 Q780.0938,591.125 779.5,590.8594 Q778.9063,590.5781 778.2813,590.5781 Q776.9375,590.5781 776.25,591.6563 Q775.5625,592.7188 775.5625,594.8125 Q775.5625,596.9063 776.25,597.9844 Q776.9375,599.0469 778.2813,599.0469 Q778.9063,599.0469 779.5,598.7813 Q780.0938,598.5 780.7188,597.9219 L780.7188,600.6406 Z "/><text fill="#000000" font-family="sans-serif" font-size="12" lengthAdjust="spacingAndGlyphs" textLength="36" x="798.25" y="599.1543">Brake</text><line style="stroke: #A80036; stroke-width: 1.5;" x1="639" x2="961" y1="611" y2="611"/><ellipse cx="649" cy="622.9023" fill="#84BE84" rx="3" ry="3" style="stroke: #038048; stroke-width: 1.0;"/><text fill="#000000" font-family="sans-serif" font-size="11" lengthAdjust="spacingAndGlyphs" textLength="298" x="658" y="625.2104">Brake(const Acceleration &amp; deceleration_limit) : void</text><line style="stroke: #A80036; stroke-width: 1.0; stroke-dasharray: 1.0,2.0;" x1="639" x2="961" y1="631.8047" y2="631.8047"/><ellipse cx="649" cy="643.707" fill="#84BE84" rx="3" ry="3" style="stroke: #038048; stroke-width: 1.0;"/><text fill="#000000" font-family="sans-serif" font-size="11" lengthAdjust="spacingAndGlyphs" textLength="233" x="658" y="646.0151">control_vehicle(const Trajectory &amp;) : void</text><line style="stroke: #A80036; stroke-width: 1.5;" x1="639" x2="961" y1="652.6094" y2="652.6094"/><rect fill="none" height="6" style="stroke: #C82930; stroke-width: 1.0;" width="6" x="646" y="661.5117"/><text fill="#000000" font-family="sans-serif" font-size="11" lengthAdjust="spacingAndGlyphs" textLength="181" x="658" y="666.8198">deceleration_limit : Acceleration</text><!--class C_0001070886243531016382--><rect fill="#FEFECE" filter="url(#f1tljhwoixqcex)" height="60.8047" id="C_0001070886243531016382" style="stroke: #A80036; stroke-width: 1.5;" width="142" x="1152" y="750"/><ellipse cx="1196.75" cy="766" fill="#ADD1B2" rx="11" ry="11" style="stroke: #A80036; stroke-width: 1.0;"/><path d="M1199.7188,771.6406 Q1199.1406,771.9375 1198.5,772.0781 Q1197.8594,772.2344 1197.1563,772.2344 Q1194.6563,772.2344 1193.3281,770.5938 Q1192.0156,768.9375 1192.0156,765.8125 Q1192.0156,762.6875 1193.3281,761.0313 Q1194.6563,759.375 1197.1563,759.375 Q1197.8594,759.375 1198.5,759.5313 Q1199.1563,759.6875 1199.7188,759.9844 L1199.7188,762.7031 Q1199.0938,762.125 1198.5,761.8594 Q1197.9063,761.5781 1197.2813,761.5781 Q1195.9375,761.5781 1195.25,762.6563 Q1194.5625,763.7188 1194.5625,765.8125 Q1194.5625,767.9063 1195.25,768.9844 Q1195.9375,770.0469 1197.2813,770.0469 Q1197.9063,770.0469 1198.5,769.7813 Q1199.0938,769.5 1199.7188,768.9219 L1199.7188,771.6406 Z "/><text fill="#000000" font-family="sans-serif" font-size="12" lengthAdjust="spacingAndGlyphs" textLength="44" x="1217.25" y="770.1543">Torque</text><line style="stroke: #A80036; stroke-width: 1.5;" x1="1153" x2="1293" y1="782" y2="782"/><line style="stroke: #A80036; stroke-width: 1.5;" x1="1153" x2="1293" y1="790" y2="790"/><ellipse cx="1163" cy="801.9023" fill="none" rx="3" ry="3" style="stroke: #038048; stroke-width: 1.0;"/><text fill="#000000" font-family="sans-serif" font-size="11" lengthAdjust="spacingAndGlyphs" textLength="116" x="1172" y="804.2104">value : NewtonMetre</text><!--class C_0000346611438033482912--><rect fill="#FEFECE" filter="url(#f1tljhwoixqcex)" height="94.4141" id="C_0000346611438033482912" style="stroke: #A80036; stroke-width: 1.5;" width="310" x="1068" y="579"/><ellipse cx="1173.25" cy="595" fill="#ADD1B2" rx="11" ry="11" style="stroke: #A80036; stroke-width: 1.0;"/><path d="M1176.2188,600.6406 Q1175.6406,600.9375 1175,601.0781 Q1174.3594,601.2344 1173.6563,601.2344 Q1171.1563,601.2344 1169.8281,599.5938 Q1168.5156,597.9375 1168.5156,594.8125 Q1168.5156,591.6875 1169.8281,590.0313 Q1171.1563,588.375 1173.6563,588.375 Q1174.3594,588.375 1175,588.5313 Q1175.6563,588.6875 1176.2188,588.9844 L1176.2188,591.7031 Q1175.5938,591.125 1175,590.8594 Q1174.4063,590.5781 1173.7813,590.5781 Q1172.4375,590.5781 1171.75,591.6563 Q1171.0625,592.7188 1171.0625,594.8125 Q1171.0625,596.9063 1171.75,597.9844 Q1172.4375,599.0469 1173.7813,599.0469 Q1174.4063,599.0469 1175,598.7813 Q1175.5938,598.5 1176.2188,597.9219 L1176.2188,600.6406 Z "/><text fill="#000000" font-family="sans-serif" font-size="12" lengthAdjust="spacingAndGlyphs" textLength="91" x="1193.75" y="599.1543">SteeringWheel</text><line style="stroke: #A80036; stroke-width: 1.5;" x1="1069" x2="1377" y1="611" y2="611"/><ellipse cx="1079" cy="622.9023" fill="#84BE84" rx="3" ry="3" style="stroke: #038048; stroke-width: 1.0;"/><text fill="#000000" font-family="sans-serif" font-size="11" lengthAdjust="spacingAndGlyphs" textLength="284" x="1088" y="625.2104">SteeringWheel(const Torque &amp; torque_limit) : void</text><line style="stroke: #A80036; stroke-width: 1.0; stroke-dasharray: 1.0,2.0;" x1="1069" x2="1377" y1="631.8047" y2="631.8047"/><ellipse cx="1079" cy="643.707" fill="#84BE84" rx="3" ry="3" style="stroke: #038048; stroke-width: 1.0;"/><text fill="#000000" font-family="sans-serif" font-size="11" lengthAdjust="spacingAndGlyphs" textLength="233" x="1088" y="646.0151">control_vehicle(const Trajectory &amp;) : void</text><line style="stroke: #A80036; stroke-width: 1.5;" x1="1069" x2="1377" y1="652.6094" y2="652.6094"/><rect fill="none" height="6" style="stroke: #C82930; stroke-width: 1.0;" width="6" x="1076" y="661.5117"/><text fill="#000000" font-family="sans-serif" font-size="11" lengthAdjust="spacingAndGlyphs" textLength="119" x="1088" y="666.8198">torque_limit : Torque</text><!--class C_0000978161556763682069--><rect fill="#FEFECE" filter="url(#f1tljhwoixqcex)" height="120.0234" id="C_0000978161556763682069" style="stroke: #A80036; stroke-width: 1.5;" width="720" x="245" y="8"/><ellipse cx="557.25" cy="24" fill="#ADD1B2" rx="11" ry="11" style="stroke: #A80036; stroke-width: 1.0;"/><path d="M560.2188,29.6406 Q559.6406,29.9375 559,30.0781 Q558.3594,30.2344 557.6563,30.2344 Q555.1563,30.2344 553.8281,28.5938 Q552.5156,26.9375 552.5156,23.8125 Q552.5156,20.6875 553.8281,19.0313 Q555.1563,17.375 557.6563,17.375 Q558.3594,17.375 559,17.5313 Q559.6563,17.6875 560.2188,17.9844 L560.2188,20.7031 Q559.5938,20.125 559,19.8594 Q558.4063,19.5781 557.7813,19.5781 Q556.4375,19.5781 555.75,20.6563 Q555.0625,21.7188 555.0625,23.8125 Q555.0625,25.9063 555.75,26.9844 Q556.4375,28.0469 557.7813,28.0469 Q558.4063,28.0469 559,27.7813 Q559.5938,27.5 560.2188,26.9219 L560.2188,29.6406 Z "/><text fill="#000000" font-family="sans-serif" font-size="12" lengthAdjust="spacingAndGlyphs" textLength="87" x="577.75" y="28.1543">DrivingSystem</text><line style="stroke: #A80036; stroke-width: 1.5;" x1="246" x2="964" y1="40" y2="40"/><ellipse cx="256" cy="51.9023" fill="#84BE84" rx="3" ry="3" style="stroke: #038048; stroke-width: 1.0;"/><text fill="#000000" font-family="sans-serif" font-size="11" lengthAdjust="spacingAndGlyphs" textLength="694" x="265" y="54.2104">DrivingSystem(std::shared_ptr&lt;Sensor&gt; sensor, std::shared_ptr&lt;Planner&gt; planner, DrivingSystem::Actors actors) : void</text><line style="stroke: #A80036; stroke-width: 1.0; stroke-dasharray: 1.0,2.0;" x1="246" x2="964" y1="60.8047" y2="60.8047"/><ellipse cx="256" cy="72.707" fill="#84BE84" rx="3" ry="3" style="stroke: #038048; stroke-width: 1.0;"/><text fill="#000000" font-family="sans-serif" font-size="11" lengthAdjust="spacingAndGlyphs" textLength="98" x="265" y="75.0151">one_cycle() : void</text><line style="stroke: #A80036; stroke-width: 1.5;" x1="246" x2="964" y1="81.6094" y2="81.6094"/><rect fill="none" height="6" style="stroke: #C82930; stroke-width: 1.0;" width="6" x="253" y="90.5117"/><text fill="#000000" font-family="sans-serif" font-size="11" lengthAdjust="spacingAndGlyphs" textLength="174" x="265" y="95.8198">actors : DrivingSystem::Actors</text><rect fill="none" height="6" style="stroke: #C82930; stroke-width: 1.0;" width="6" x="253" y="103.3164"/><text fill="#000000" font-family="sans-serif" font-size="11" lengthAdjust="spacingAndGlyphs" textLength="204" x="265" y="108.6245">planner : std::shared_ptr&lt;Planner&gt;</text><rect fill="none" height="6" style="stroke: #C82930; stroke-width: 1.0;" width="6" x="253" y="116.1211"/><text fill="#000000" font-family="sans-serif" font-size="11" lengthAdjust="spacingAndGlyphs" textLength="199" x="265" y="121.4292">sensor : std::shared_ptr&lt;Sensor&gt;</text><!--link C_0000885653978909508775 to C_0001816244285415343406--><path d="M500.31,253.24 C509.56,269.39 522.03,291.16 532.4,309.28 " fill="none" id="C_0000885653978909508775-C_0001816244285415343406" style="stroke: #A80036; stroke-width: 1.0; stroke-dasharray: 7.0,7.0;"/><polygon fill="#A80036" points="534.99,313.81,533.9908,304.012,532.5062,309.4705,527.0477,307.986,534.99,313.81" style="stroke: #A80036; stroke-width: 1.0;"/><!--link C_0000517477364643921331 to C_0000077851926960506546--><path d="M153.06,253.24 C160.74,269.39 171.1,291.16 179.72,309.28 " fill="none" id="C_0000517477364643921331-C_0000077851926960506546" style="stroke: #A80036; stroke-width: 1.0; stroke-dasharray: 7.0,7.0;"/><polygon fill="#A80036" points="181.87,313.81,181.6241,303.9642,179.7259,309.2931,174.397,307.3948,181.87,313.81" style="stroke: #A80036; stroke-width: 1.0;"/><!--link C_0001908735947263318269 to C_0001243971194173295032--><path d="M897.88,368.53 C887.24,385.88 872.33,410.21 859.38,431.34 " fill="none" id="C_0001908735947263318269-C_0001243971194173295032" style="stroke: #A80036; stroke-width: 1.0; stroke-dasharray: 7.0,7.0;"/><polygon fill="#A80036" points="856.65,435.79,864.7683,430.2139,859.2665,431.5293,857.9511,426.0275,856.65,435.79" style="stroke: #A80036; stroke-width: 1.0;"/><!--link C_0001842507930156265638 to C_0001908735947263318269--><path d="M928.7,253.24 C925.39,271.15 920.79,295.98 917.26,315.07 " fill="none" id="C_0001842507930156265638-C_0001908735947263318269" style="stroke: #A80036; stroke-width: 1.0; stroke-dasharray: 7.0,7.0;"/><polygon fill="#A80036" points="916.29,320.29,921.8645,312.1706,917.202,315.3739,913.9987,310.7114,916.29,320.29" style="stroke: #A80036; stroke-width: 1.0;"/><!--link C_0001816244285415343406 to C_0000723521372703994295--><path d="M513.2,375.11 C483.8,397.55 443.78,428.09 415.49,449.67 " fill="none" id="C_0001816244285415343406-C_0000723521372703994295" style="stroke: #A80036; stroke-width: 1.0; stroke-dasharray: 7.0,7.0;"/><polygon fill="#A80036" points="411.41,452.79,420.9869,450.4914,415.379,449.749,416.1213,444.1411,411.41,452.79" style="stroke: #A80036; stroke-width: 1.0;"/><!--link C_0000077851926960506546 to C_0000723521372703994295--><path d="M237.98,375.11 C269.78,397.55 313.08,428.09 343.68,449.67 " fill="none" id="C_0000077851926960506546-C_0000723521372703994295" style="stroke: #A80036; stroke-width: 1.0; stroke-dasharray: 7.0,7.0;"/><polygon fill="#A80036" points="348.1,452.79,343.0366,444.3424,344.0092,449.915,338.4366,450.8876,348.1,452.79" style="stroke: #A80036; stroke-width: 1.0;"/><!--link C_0000077851926960506546 to C_0000740826215814649639--><path d="M189.17,375.13 C176.51,438.28 156.95,587.36 231,673 C290.63,741.97 543.93,735.86 634,750 C672.15,755.99 715.07,763.64 747.71,769.65 " fill="none" id="C_0000077851926960506546-C_0000740826215814649639" style="stroke: #A80036; stroke-width: 1.0; stroke-dasharray: 7.0,7.0;"/><polygon fill="#A80036" points="752.86,770.6,744.7278,765.0441,747.9418,769.6993,743.2867,772.9133,752.86,770.6" style="stroke: #A80036; stroke-width: 1.0;"/><!--link C_0001243971194173295032 to C_0000740826215814649639--><path d="M919.94,518.09 C943.76,533.53 966.63,553.69 980,579 C999.51,615.94 1000.7,636.71 980,673 C952.81,720.68 894.96,749.19 852.15,764.54 " fill="none" id="C_0001243971194173295032-C_0000740826215814649639" style="stroke: #A80036; stroke-width: 1.0; stroke-dasharray: 7.0,7.0;"/><polygon fill="#A80036" points="847.27,766.25,857.0864,767.0483,851.9886,764.5963,854.4406,759.4985,847.27,766.25" style="stroke: #A80036; stroke-width: 1.0;"/><!--link C_0001971792373968053805 to C_0000740826215814649639--><path d="M603.26,669.76 C669.48,685.94 729.69,700.98 733,703 C753.16,715.28 770.53,735.59 782.53,752.2 " fill="none" id="C_0001971792373968053805-C_0000740826215814649639" style="stroke: #A80036; stroke-width: 1.0; stroke-dasharray: 7.0,7.0;"/><polygon fill="#A80036" points="785.47,756.34,783.5291,746.6843,782.5787,752.2607,777.0023,751.3103,785.47,756.34" style="stroke: #A80036; stroke-width: 1.0;"/><!--link C_0001971792373968053805 to C_0000796543511279331718--><path d="M419.17,686.19 C420.01,697.9 422.55,709.74 428,720 C434.2,731.68 443.84,741.58 454.4,749.75 " fill="none" id="C_0001971792373968053805-C_0000796543511279331718" style="stroke: #A80036; stroke-width: 1.0;"/><polygon fill="#FFFFFF" points="418.88,673.1,415.0196,679.1908,419.1572,685.0968,423.0175,679.006,418.88,673.1" style="stroke: #A80036; stroke-width: 1.0;"/><rect fill="none" height="6" style="stroke: #C82930; stroke-width: 1.0;" width="6" x="431" y="709.0664"/><text fill="#000000" font-family="sans-serif" font-size="13" lengthAdjust="spacingAndGlyphs" textLength="112" x="441" y="716.0669">acceleration_limit</text><!--link C_0001243971194173295032 to C_0001971792373968053805--><path d="M702.33,524.95 C654.6,542.23 600.61,561.78 553.1,578.98 " fill="none" id="C_0001243971194173295032-C_0001971792373968053805" style="stroke: #A80036; stroke-width: 1.0;"/><polygon fill="none" points="700.14,518.3,721.33,518.07,704.9,531.46,700.14,518.3" style="stroke: #A80036; stroke-width: 1.0;"/><!--link C_0001143070539853614602 to C_0000740826215814649639--><path d="M800,673.17 C800,698.65 800,729.48 800,751.36 " fill="none" id="C_0001143070539853614602-C_0000740826215814649639" style="stroke: #A80036; stroke-width: 1.0; stroke-dasharray: 7.0,7.0;"/><polygon fill="#A80036" points="800,756.44,804,747.44,800,751.44,796,747.44,800,756.44" style="stroke: #A80036; stroke-width: 1.0;"/><!--link C_0001143070539853614602 to C_0000796543511279331718--><path d="M701.06,679.39 C656.6,702.93 605.78,729.84 568.03,749.83 " fill="none" id="C_0001143070539853614602-C_0000796543511279331718" style="stroke: #A80036; stroke-width: 1.0;"/><polygon fill="#FFFFFF" points="712.81,673.17,705.6355,672.4446,702.2065,678.7883,709.381,679.5137,712.81,673.17" style="stroke: #A80036; stroke-width: 1.0;"/><rect fill="none" height="6" style="stroke: #C82930; stroke-width: 1.0;" width="6" x="659" y="709.0664"/><text fill="#000000" font-family="sans-serif" font-size="13" lengthAdjust="spacingAndGlyphs" textLength="113" x="669" y="716.0669">deceleration_limit</text><!--link C_0001243971194173295032 to C_0001143070539853614602--><path d="M818.92,538.1 C815.95,551.72 812.85,565.97 810.03,578.9 " fill="none" id="C_0001243971194173295032-C_0001143070539853614602" style="stroke: #A80036; stroke-width: 1.0;"/><polygon fill="none" points="812.16,536.22,823.26,518.17,825.84,539.2,812.16,536.22" style="stroke: #A80036; stroke-width: 1.0;"/><!--link C_0000346611438033482912 to C_0000740826215814649639--><path d="M1142.82,673.02 C1111.74,689.5 1075.41,707.16 1041,720 C977.76,743.6 901.7,760.6 852.17,770.23 " fill="none" id="C_0000346611438033482912-C_0000740826215814649639" style="stroke: #A80036; stroke-width: 1.0; stroke-dasharray: 7.0,7.0;"/><polygon fill="#A80036" points="847.16,771.2,856.7525,773.4325,852.0704,770.2579,855.2451,765.5758,847.16,771.2" style="stroke: #A80036; stroke-width: 1.0;"/><!--link C_0000346611438033482912 to C_0001070886243531016382--><path d="M1223,686.39 C1223,708.13 1223,731.8 1223,749.83 " fill="none" id="C_0000346611438033482912-C_0001070886243531016382" style="stroke: #A80036; stroke-width: 1.0;"/><polygon fill="#FFFFFF" points="1223,673.17,1219,679.17,1223,685.17,1227,679.17,1223,673.17" style="stroke: #A80036; stroke-width: 1.0;"/><rect fill="none" height="6" style="stroke: #C82930; stroke-width: 1.0;" width="6" x="1226" y="709.0664"/><text fill="#000000" font-family="sans-serif" font-size="13" lengthAdjust="spacingAndGlyphs" textLength="76" x="1236" y="716.0669">torque_limit</text><!--link C_0001243971194173295032 to C_0000346611438033482912--><path d="M975.98,524.6 C997.86,532.15 1020.1,540.09 1041,548 C1066.03,557.47 1092.7,568.32 1117.69,578.82 " fill="none" id="C_0001243971194173295032-C_0000346611438033482912" style="stroke: #A80036; stroke-width: 1.0;"/><polygon fill="none" points="973.55,531.17,956.89,518.08,978.08,517.92,973.55,531.17" style="stroke: #A80036; stroke-width: 1.0;"/><!--link C_0000978161556763682069 to C_0001243971194173295032--><path d="M638.01,128.18 C683.85,210.38 765.79,357.29 806.95,431.09 " fill="none" id="C_0000978161556763682069-C_0001243971194173295032" style="stroke: #A80036; stroke-width: 1.0; stroke-dasharray: 7.0,7.0;"/><polygon fill="#A80036" points="809.6,435.84,808.6877,426.0335,807.1548,431.4787,801.7096,429.9458,809.6,435.84" style="stroke: #A80036; stroke-width: 1.0;"/><!--link C_0000978161556763682069 to C_0001816244285415343406--><path d="M607.15,128.13 C606.95,164.77 603.86,212.43 592,253 C586.4,272.14 577.66,292.53 569.77,309.1 " fill="none" id="C_0000978161556763682069-C_0001816244285415343406" style="stroke: #A80036; stroke-width: 1.0;"/><polygon fill="#A80036" points="567.57,313.67,575.0595,307.2741,569.7258,309.1586,567.8413,303.8249,567.57,313.67" style="stroke: #A80036; stroke-width: 1.0;"/><rect fill="none" height="6" style="stroke: #C82930; stroke-width: 1.0;" width="6" x="605" y="226.5664"/><text fill="#000000" font-family="sans-serif" font-size="13" lengthAdjust="spacingAndGlyphs" textLength="43" x="615" y="233.5669">sensor</text><!--link C_0000978161556763682069 to C_0000885653978909508775--><path d="M561.06,128.21 C542.59,153.1 522,180.84 507.23,200.74 " fill="none" id="C_0000978161556763682069-C_0000885653978909508775" style="stroke: #A80036; stroke-width: 1.0;"/><polygon fill="#A80036" points="504.17,204.86,512.7314,199.9914,507.1379,200.8362,506.2932,195.2427,504.17,204.86" style="stroke: #A80036; stroke-width: 1.0;"/><rect fill="none" height="6" style="stroke: #C82930; stroke-width: 1.0;" width="6" x="542" y="164.0664"/><text fill="#000000" font-family="sans-serif" font-size="13" lengthAdjust="spacingAndGlyphs" textLength="43" x="552" y="171.0669">sensor</text><!--link C_0000978161556763682069 to C_0000077851926960506546--><path d="M452.93,128.04 C408.01,148.98 360.15,174.93 320,205 C279.95,235 242.93,279.46 219.96,309.86 " fill="none" id="C_0000978161556763682069-C_0000077851926960506546" style="stroke: #A80036; stroke-width: 1.0;"/><polygon fill="#A80036" points="216.95,313.87,225.55,309.07,219.95,309.87,219.15,304.27,216.95,313.87" style="stroke: #A80036; stroke-width: 1.0;"/><rect fill="none" height="6" style="stroke: #C82930; stroke-width: 1.0;" width="6" x="323" y="226.5664"/><text fill="#000000" font-family="sans-serif" font-size="13" lengthAdjust="spacingAndGlyphs" textLength="48" x="333" y="233.5669">planner</text><!--link C_0000978161556763682069 to C_0000517477364643921331--><path d="M280.29,128.03 C257.3,136.69 234.95,146.62 214,158 C194.54,168.57 176.66,185.89 163.58,200.66 " fill="none" id="C_0000978161556763682069-C_0000517477364643921331" style="stroke: #A80036; stroke-width: 1.0;"/><polygon fill="#A80036" points="160.03,204.75,168.9489,200.5724,163.3063,200.973,162.9057,195.3303,160.03,204.75" style="stroke: #A80036; stroke-width: 1.0;"/><rect fill="none" height="6" style="stroke: #C82930; stroke-width: 1.0;" width="6" x="217" y="164.0664"/><text fill="#000000" font-family="sans-serif" font-size="13" lengthAdjust="spacingAndGlyphs" textLength="48" x="227" y="171.0669">planner</text><!--link C_0000978161556763682069 to C_0001842507930156265638--><path d="M739.16,134.03 C790.96,159.14 846.87,186.25 885.27,204.86 " fill="none" id="C_0000978161556763682069-C_0001842507930156265638" style="stroke: #A80036; stroke-width: 1.0;"/><polygon fill="#FFFFFF" points="727.14,128.21,730.7943,134.4266,737.9382,133.4443,734.2839,127.2277,727.14,128.21" style="stroke: #A80036; stroke-width: 1.0;"/><rect fill="none" height="6" style="stroke: #C82930; stroke-width: 1.0;" width="6" x="820" y="164.0664"/><text fill="#000000" font-family="sans-serif" font-size="13" lengthAdjust="spacingAndGlyphs" textLength="40" x="830" y="171.0669">actors</text><!--
@startuml
class "std::shared_ptr<Sensor>" as C_0000885653978909508775
class C_0000885653978909508775 {
__
}
class "std::shared_ptr<Planner>" as C_0000517477364643921331
class C_0000517477364643921331 {
__
}
class "std::shared_ptr<Actor>" as C_0001908735947263318269
class C_0001908735947263318269 {
__
}
class "std::vector<std::shared_ptr<Actor>>" as C_0001842507930156265638
class C_0001842507930156265638 {
__
}
class "EnvironmentModel" as C_0000723521372703994295
class C_0000723521372703994295 {
__
}
class "Sensor" as C_0001816244285415343406
class C_0001816244285415343406 {
+model_environment() : EnvironmentModel
__
}
class "Trajectory" as C_0000740826215814649639
class C_0000740826215814649639 {
__
}
class "Planner" as C_0000077851926960506546
class C_0000077851926960506546 {
+plan_vehicle_behavior(const EnvironmentModel &) : Trajectory
__
}
abstract "Actor" as C_0001243971194173295032
abstract C_0001243971194173295032 {
+~Actor() = default : void
..
{abstract} +control_vehicle(const Trajectory &) = 0 : void
__
}
class "Acceleration" as C_0000796543511279331718
class C_0000796543511279331718 {
__
+value : MetresPerSquareSecond
}
class "PowerTrain" as C_0001971792373968053805
class C_0001971792373968053805 {
+PowerTrain(const Acceleration & acceleration_limit) : void
..
+control_vehicle(const Trajectory &) : void
__
-acceleration_limit : Acceleration
}
class "Brake" as C_0001143070539853614602
class C_0001143070539853614602 {
+Brake(const Acceleration & deceleration_limit) : void
..
+control_vehicle(const Trajectory &) : void
__
-deceleration_limit : Acceleration
}
class "Torque" as C_0001070886243531016382
class C_0001070886243531016382 {
__
+value : NewtonMetre
}
class "SteeringWheel" as C_0000346611438033482912
class C_0000346611438033482912 {
+SteeringWheel(const Torque & torque_limit) : void
..
+control_vehicle(const Trajectory &) : void
__
-torque_limit : Torque
}
class "DrivingSystem" as C_0000978161556763682069
class C_0000978161556763682069 {
+DrivingSystem(std::shared_ptr<Sensor> sensor, std::shared_ptr<Planner> planner, DrivingSystem::Actors actors) : void
..
+one_cycle() : void
__
-actors : DrivingSystem::Actors
-planner : std::shared_ptr<Planner>
-sensor : std::shared_ptr<Sensor>
}
C_0000885653978909508775 ..> C_0001816244285415343406
C_0000517477364643921331 ..> C_0000077851926960506546
C_0001908735947263318269 ..> C_0001243971194173295032
C_0001842507930156265638 ..> C_0001908735947263318269
C_0001816244285415343406 ..> C_0000723521372703994295
C_0000077851926960506546 ..> C_0000723521372703994295
C_0000077851926960506546 ..> C_0000740826215814649639
C_0001243971194173295032 ..> C_0000740826215814649639
C_0001971792373968053805 ..> C_0000740826215814649639
C_0001971792373968053805 o- - C_0000796543511279331718 : -acceleration_limit
C_0001243971194173295032 <|- - C_0001971792373968053805
C_0001143070539853614602 ..> C_0000740826215814649639
C_0001143070539853614602 o- - C_0000796543511279331718 : -deceleration_limit
C_0001243971194173295032 <|- - C_0001143070539853614602
C_0000346611438033482912 ..> C_0000740826215814649639
C_0000346611438033482912 o- - C_0001070886243531016382 : -torque_limit
C_0001243971194173295032 <|- - C_0000346611438033482912
C_0000978161556763682069 ..> C_0001243971194173295032
C_0000978161556763682069 - -> C_0001816244285415343406 : -sensor
C_0000978161556763682069 - -> C_0000885653978909508775 : -sensor
C_0000978161556763682069 - -> C_0000077851926960506546 : -planner
C_0000978161556763682069 - -> C_0000517477364643921331 : -planner
C_0000978161556763682069 o- - C_0001842507930156265638 : -actors

@enduml

PlantUML version 1.2018.13(Mon Nov 26 18:11:51 CET 2018)
(GPL source distribution)
Java Runtime: OpenJDK Runtime Environment
JVM: OpenJDK 64-Bit Server VM
Java Version: 11.0.21+9-post-Ubuntu-0ubuntu120.04
Operating System: Linux
OS Version: 5.15.0-91-generic
Default Encoding: UTF-8
Language: de
Country: DE
--></g></svg>