<?xml version="1.0" encoding="UTF-8" standalone="no"?><svg xmlns="http://www.w3.org/2000/svg" xmlns:xlink="http://www.w3.org/1999/xlink" contentScriptType="application/ecmascript" contentStyleType="text/css" height="797px" preserveAspectRatio="none" style="width:1626px;height:797px;" version="1.1" viewBox="0 0 1626 797" width="1626px" zoomAndPan="magnify"><defs><filter height="300%" id="f1nl2fwse2zkdy" width="300%" x="-1" y="-1"><feGaussianBlur result="blurOut" stdDeviation="2.0"/><feColorMatrix in="blurOut" result="blurOut2" type="matrix" values="0 0 0 0 0 0 0 0 0 0 0 0 0 0 0 0 0 0 .4 0"/><feOffset dx="4.0" dy="4.0" in="blurOut2" result="blurOut3"/><feBlend in="SourceGraphic" in2="blurOut3" mode="normal"/></filter></defs><g><!--class C_0000885653978909508775--><rect fill="#FEFECE" filter="url(#f1nl2fwse2zkdy)" height="48" id="C_0000885653978909508775" style="stroke: #A80036; stroke-width: 1.5;" width="175" x="49.5" y="205"/><ellipse cx="64.5" cy="221" fill="#ADD1B2" rx="11" ry="11" style="stroke: #A80036; stroke-width: 1.0;"/><path d="M67.4688,226.6406 Q66.8906,226.9375 66.25,227.0781 Q65.6094,227.2344 64.9063,227.2344 Q62.4063,227.2344 61.0781,225.5938 Q59.7656,223.9375 59.7656,220.8125 Q59.7656,217.6875 61.0781,216.0313 Q62.4063,214.375 64.9063,214.375 Q65.6094,214.375 66.25,214.5313 Q66.9063,214.6875 67.4688,214.9844 L67.4688,217.7031 Q66.8438,217.125 66.25,216.8594 Q65.6563,216.5781 65.0313,216.5781 Q63.6875,216.5781 63,217.6563 Q62.3125,218.7188 62.3125,220.8125 Q62.3125,222.9063 63,223.9844 Q63.6875,225.0469 65.0313,225.0469 Q65.6563,225.0469 66.25,224.7813 Q66.8438,224.5 67.4688,223.9219 L67.4688,226.6406 Z "/><text fill="#000000" font-family="sans-serif" font-size="12" lengthAdjust="spacingAndGlyphs" textLength="96" x="78.5" y="225.1543">std::shared_ptr</text><rect fill="#FFFFFF" height="15.9688" style="stroke: #000000; stroke-width: 1.0; stroke-dasharray: 2.0,2.0;" width="45" x="182.5" y="202"/><text fill="#000000" font-family="sans-serif" font-size="12" font-style="italic" lengthAdjust="spacingAndGlyphs" textLength="43" x="183.5" y="214.1387">Sensor</text><line style="stroke: #A80036; stroke-width: 1.5;" x1="50.5" x2="223.5" y1="237" y2="237"/><line style="stroke: #A80036; stroke-width: 1.5;" x1="50.5" x2="223.5" y1="245" y2="245"/><!--class C_0000517477364643921331--><rect fill="#FEFECE" filter="url(#f1nl2fwse2zkdy)" height="48" id="C_0000517477364643921331" style="stroke: #A80036; stroke-width: 1.5;" width="179" x="519.5" y="205"/><ellipse cx="534.5" cy="221" fill="#ADD1B2" rx="11" ry="11" style="stroke: #A80036; stroke-width: 1.0;"/><path d="M537.4688,226.6406 Q536.8906,226.9375 536.25,227.0781 Q535.6094,227.2344 534.9063,227.2344 Q532.4063,227.2344 531.0781,225.5938 Q529.7656,223.9375 529.7656,220.8125 Q529.7656,217.6875 531.0781,216.0313 Q532.4063,214.375 534.9063,214.375 Q535.6094,214.375 536.25,214.5313 Q536.9063,214.6875 537.4688,214.9844 L537.4688,217.7031 Q536.8438,217.125 536.25,216.8594 Q535.6563,216.5781 535.0313,216.5781 Q533.6875,216.5781 533,217.6563 Q532.3125,218.7188 532.3125,220.8125 Q532.3125,222.9063 533,223.9844 Q533.6875,225.0469 535.0313,225.0469 Q535.6563,225.0469 536.25,224.7813 Q536.8438,224.5 537.4688,223.9219 L537.4688,226.6406 Z "/><text fill="#000000" font-family="sans-serif" font-size="12" lengthAdjust="spacingAndGlyphs" textLength="96" x="548.5" y="225.1543">std::shared_ptr</text><rect fill="#FFFFFF" height="15.9688" style="stroke: #000000; stroke-width: 1.0; stroke-dasharray: 2.0,2.0;" width="49" x="652.5" y="202"/><text fill="#000000" font-family="sans-serif" font-size="12" font-style="italic" lengthAdjust="spacingAndGlyphs" textLength="47" x="653.5" y="214.1387">Planner</text><line style="stroke: #A80036; stroke-width: 1.5;" x1="520.5" x2="697.5" y1="237" y2="237"/><line style="stroke: #A80036; stroke-width: 1.5;" x1="520.5" x2="697.5" y1="245" y2="245"/><!--class C_0001908735947263318269--><rect fill="#FEFECE" filter="url(#f1nl2fwse2zkdy)" height="48" id="C_0001908735947263318269" style="stroke: #A80036; stroke-width: 1.5;" width="165" x="847.5" y="320.5"/><ellipse cx="862.5" cy="336.5" fill="#ADD1B2" rx="11" ry="11" style="stroke: #A80036; stroke-width: 1.0;"/><path d="M865.4688,342.1406 Q864.8906,342.4375 864.25,342.5781 Q863.6094,342.7344 862.9063,342.7344 Q860.4063,342.7344 859.0781,341.0938 Q857.7656,339.4375 857.7656,336.3125 Q857.7656,333.1875 859.0781,331.5313 Q860.4063,329.875 862.9063,329.875 Q863.6094,329.875 864.25,330.0313 Q864.9063,330.1875 865.4688,330.4844 L865.4688,333.2031 Q864.8438,332.625 864.25,332.3594 Q863.6563,332.0781 863.0313,332.0781 Q861.6875,332.0781 861,333.1563 Q860.3125,334.2188 860.3125,336.3125 Q860.3125,338.4063 861,339.4844 Q861.6875,340.5469 863.0313,340.5469 Q863.6563,340.5469 864.25,340.2813 Q864.8438,340 865.4688,339.4219 L865.4688,342.1406 Z "/><text fill="#000000" font-family="sans-serif" font-size="12" lengthAdjust="spacingAndGlyphs" textLength="96" x="876.5" y="340.6543">std::shared_ptr</text><rect fill="#FFFFFF" height="15.9688" style="stroke: #000000; stroke-width: 1.0; stroke-dasharray: 2.0,2.0;" width="35" x="980.5" y="317.5"/><text fill="#000000" font-family="sans-serif" font-size="12" font-style="italic" lengthAdjust="spacingAndGlyphs" textLength="33" x="981.5" y="329.6387">Actor</text><line style="stroke: #A80036; stroke-width: 1.5;" x1="848.5" x2="1011.5" y1="352.5" y2="352.5"/><line style="stroke: #A80036; stroke-width: 1.5;" x1="848.5" x2="1011.5" y1="360.5" y2="360.5"/><!--class C_0001842507930156265638--><rect fill="#FEFECE" filter="url(#f1nl2fwse2zkdy)" height="48" id="C_0001842507930156265638" style="stroke: #A80036; stroke-width: 1.5;" width="250" x="805" y="205"/><ellipse cx="820" cy="221" fill="#ADD1B2" rx="11" ry="11" style="stroke: #A80036; stroke-width: 1.0;"/><path d="M822.9688,226.6406 Q822.3906,226.9375 821.75,227.0781 Q821.1094,227.2344 820.4063,227.2344 Q817.9063,227.2344 816.5781,225.5938 Q815.2656,223.9375 815.2656,220.8125 Q815.2656,217.6875 816.5781,216.0313 Q817.9063,214.375 820.4063,214.375 Q821.1094,214.375 821.75,214.5313 Q822.4063,214.6875 822.9688,214.9844 L822.9688,217.7031 Q822.3438,217.125 821.75,216.8594 Q821.1563,216.5781 820.5313,216.5781 Q819.1875,216.5781 818.5,217.6563 Q817.8125,218.7188 817.8125,220.8125 Q817.8125,222.9063 818.5,223.9844 Q819.1875,225.0469 820.5313,225.0469 Q821.1563,225.0469 821.75,224.7813 Q822.3438,224.5 822.9688,223.9219 L822.9688,226.6406 Z "/><text fill="#000000" font-family="sans-serif" font-size="12" lengthAdjust="spacingAndGlyphs" textLength="67" x="834" y="225.1543">std::vector</text><rect fill="#FFFFFF" height="15.9688" style="stroke: #000000; stroke-width: 1.0; stroke-dasharray: 2.0,2.0;" width="149" x="909" y="202"/><text fill="#000000" font-family="sans-serif" font-size="12" font-style="italic" lengthAdjust="spacingAndGlyphs" textLength="147" x="910" y="214.1387">std::shared_ptr&lt;Actor&gt;</text><line style="stroke: #A80036; stroke-width: 1.5;" x1="806" x2="1054" y1="237" y2="237"/><line style="stroke: #A80036; stroke-width: 1.5;" x1="806" x2="1054" y1="245" y2="245"/><!--class C_0000723521372703994295--><rect fill="#FEFECE" filter="url(#f1nl2fwse2zkdy)" height="48" id="C_0000723521372703994295" style="stroke: #A80036; stroke-width: 1.5;" width="147" x="71.5" y="459"/><ellipse cx="86.5" cy="475" fill="#ADD1B2" rx="11" ry="11" style="stroke: #A80036; stroke-width: 1.0;"/><path d="M89.4688,480.6406 Q88.8906,480.9375 88.25,481.0781 Q87.6094,481.2344 86.9063,481.2344 Q84.4063,481.2344 83.0781,479.5938 Q81.7656,477.9375 81.7656,474.8125 Q81.7656,471.6875 83.0781,470.0313 Q84.4063,468.375 86.9063,468.375 Q87.6094,468.375 88.25,468.5313 Q88.9063,468.6875 89.4688,468.9844 L89.4688,471.7031 Q88.8438,471.125 88.25,470.8594 Q87.6563,470.5781 87.0313,470.5781 Q85.6875,470.5781 85,471.6563 Q84.3125,472.7188 84.3125,474.8125 Q84.3125,476.9063 85,477.9844 Q85.6875,479.0469 87.0313,479.0469 Q87.6563,479.0469 88.25,478.7813 Q88.8438,478.5 89.4688,477.9219 L89.4688,480.6406 Z "/><text fill="#000000" font-family="sans-serif" font-size="12" lengthAdjust="spacingAndGlyphs" textLength="115" x="100.5" y="479.1543">EnvironmentModel</text><line style="stroke: #A80036; stroke-width: 1.5;" x1="72.5" x2="217.5" y1="491" y2="491"/><line style="stroke: #A80036; stroke-width: 1.5;" x1="72.5" x2="217.5" y1="499" y2="499"/><!--class C_0001816244285415343406--><rect fill="#FEFECE" filter="url(#f1nl2fwse2zkdy)" height="60.8047" id="C_0001816244285415343406" style="stroke: #A80036; stroke-width: 1.5;" width="262" x="6" y="314"/><ellipse cx="110.75" cy="330" fill="#ADD1B2" rx="11" ry="11" style="stroke: #A80036; stroke-width: 1.0;"/><path d="M113.7188,335.6406 Q113.1406,335.9375 112.5,336.0781 Q111.8594,336.2344 111.1563,336.2344 Q108.6563,336.2344 107.3281,334.5938 Q106.0156,332.9375 106.0156,329.8125 Q106.0156,326.6875 107.3281,325.0313 Q108.6563,323.375 111.1563,323.375 Q111.8594,323.375 112.5,323.5313 Q113.1563,323.6875 113.7188,323.9844 L113.7188,326.7031 Q113.0938,326.125 112.5,325.8594 Q111.9063,325.5781 111.2813,325.5781 Q109.9375,325.5781 109.25,326.6563 Q108.5625,327.7188 108.5625,329.8125 Q108.5625,331.9063 109.25,332.9844 Q109.9375,334.0469 111.2813,334.0469 Q111.9063,334.0469 112.5,333.7813 Q113.0938,333.5 113.7188,332.9219 L113.7188,335.6406 Z "/><text fill="#000000" font-family="sans-serif" font-size="12" lengthAdjust="spacingAndGlyphs" textLength="44" x="131.25" y="334.1543">Sensor</text><line style="stroke: #A80036; stroke-width: 1.5;" x1="7" x2="267" y1="346" y2="346"/><ellipse cx="17" cy="357.9023" fill="#84BE84" rx="3" ry="3" style="stroke: #038048; stroke-width: 1.0;"/><text fill="#000000" font-family="sans-serif" font-size="11" lengthAdjust="spacingAndGlyphs" textLength="236" x="26" y="360.2104">model_environment() : EnvironmentModel</text><line style="stroke: #A80036; stroke-width: 1.5;" x1="7" x2="267" y1="366.8047" y2="366.8047"/><!--class C_0000740826215814649639--><rect fill="#FEFECE" filter="url(#f1nl2fwse2zkdy)" height="48" id="C_0000740826215814649639" style="stroke: #A80036; stroke-width: 1.5;" width="94" x="883" y="738"/><ellipse cx="898" cy="754" fill="#ADD1B2" rx="11" ry="11" style="stroke: #A80036; stroke-width: 1.0;"/><path d="M900.9688,759.6406 Q900.3906,759.9375 899.75,760.0781 Q899.1094,760.2344 898.4063,760.2344 Q895.9063,760.2344 894.5781,758.5938 Q893.2656,756.9375 893.2656,753.8125 Q893.2656,750.6875 894.5781,749.0313 Q895.9063,747.375 898.4063,747.375 Q899.1094,747.375 899.75,747.5313 Q900.4063,747.6875 900.9688,747.9844 L900.9688,750.7031 Q900.3438,750.125 899.75,749.8594 Q899.1563,749.5781 898.5313,749.5781 Q897.1875,749.5781 896.5,750.6563 Q895.8125,751.7188 895.8125,753.8125 Q895.8125,755.9063 896.5,756.9844 Q897.1875,758.0469 898.5313,758.0469 Q899.1563,758.0469 899.75,757.7813 Q900.3438,757.5 900.9688,756.9219 L900.9688,759.6406 Z "/><text fill="#000000" font-family="sans-serif" font-size="12" lengthAdjust="spacingAndGlyphs" textLength="62" x="912" y="758.1543">Trajectory</text><line style="stroke: #A80036; stroke-width: 1.5;" x1="884" x2="976" y1="770" y2="770"/><line style="stroke: #A80036; stroke-width: 1.5;" x1="884" x2="976" y1="778" y2="778"/><!--class C_0000077851926960506546--><rect fill="#FEFECE" filter="url(#f1nl2fwse2zkdy)" height="60.8047" id="C_0000077851926960506546" style="stroke: #A80036; stroke-width: 1.5;" width="380" x="303" y="314"/><ellipse cx="464.75" cy="330" fill="#ADD1B2" rx="11" ry="11" style="stroke: #A80036; stroke-width: 1.0;"/><path d="M467.7188,335.6406 Q467.1406,335.9375 466.5,336.0781 Q465.8594,336.2344 465.1563,336.2344 Q462.6563,336.2344 461.3281,334.5938 Q460.0156,332.9375 460.0156,329.8125 Q460.0156,326.6875 461.3281,325.0313 Q462.6563,323.375 465.1563,323.375 Q465.8594,323.375 466.5,323.5313 Q467.1563,323.6875 467.7188,323.9844 L467.7188,326.7031 Q467.0938,326.125 466.5,325.8594 Q465.9063,325.5781 465.2813,325.5781 Q463.9375,325.5781 463.25,326.6563 Q462.5625,327.7188 462.5625,329.8125 Q462.5625,331.9063 463.25,332.9844 Q463.9375,334.0469 465.2813,334.0469 Q465.9063,334.0469 466.5,333.7813 Q467.0938,333.5 467.7188,332.9219 L467.7188,335.6406 Z "/><text fill="#000000" font-family="sans-serif" font-size="12" lengthAdjust="spacingAndGlyphs" textLength="48" x="485.25" y="334.1543">Planner</text><line style="stroke: #A80036; stroke-width: 1.5;" x1="304" x2="682" y1="346" y2="346"/><ellipse cx="314" cy="357.9023" fill="#84BE84" rx="3" ry="3" style="stroke: #038048; stroke-width: 1.0;"/><text fill="#000000" font-family="sans-serif" font-size="11" lengthAdjust="spacingAndGlyphs" textLength="354" x="323" y="360.2104">plan_vehicle_behavior(const EnvironmentModel &amp;) : Trajectory</text><line style="stroke: #A80036; stroke-width: 1.5;" x1="304" x2="682" y1="366.8047" y2="366.8047"/><!--class C_0001243971194173295032--><rect fill="#FEFECE" filter="url(#f1nl2fwse2zkdy)" height="94.4141" id="C_0001243971194173295032" style="stroke: #A80036; stroke-width: 1.5;" width="284" x="788" y="436"/><ellipse cx="909.25" cy="452" fill="#A9DCDF" rx="11" ry="11" style="stroke: #A80036; stroke-width: 1.0;"/><path d="M909.3594,447.3438 L908.2031,452.4219 L910.5313,452.4219 L909.3594,447.3438 Z M907.875,445.1094 L910.8594,445.1094 L914.2188,457.5 L911.7656,457.5 L911,454.4375 L907.7188,454.4375 L906.9688,457.5 L904.5313,457.5 L907.875,445.1094 Z "/><text fill="#000000" font-family="sans-serif" font-size="12" font-style="italic" lengthAdjust="spacingAndGlyphs" textLength="33" x="929.75" y="456.1543">Actor</text><line style="stroke: #A80036; stroke-width: 1.5;" x1="789" x2="1071" y1="468" y2="468"/><ellipse cx="799" cy="479.9023" fill="#84BE84" rx="3" ry="3" style="stroke: #038048; stroke-width: 1.0;"/><text fill="#000000" font-family="sans-serif" font-size="11" lengthAdjust="spacingAndGlyphs" textLength="137" x="808" y="482.2104">~Actor() = default : void</text><line style="stroke: #A80036; stroke-width: 1.0; stroke-dasharray: 1.0,2.0;" x1="789" x2="1071" y1="488.8047" y2="488.8047"/><ellipse cx="799" cy="500.707" fill="#84BE84" rx="3" ry="3" style="stroke: #038048; stroke-width: 1.0;"/><text fill="#000000" font-family="sans-serif" font-size="11" font-style="italic" lengthAdjust="spacingAndGlyphs" textLength="258" x="808" y="503.0151">control_vehicle(const Trajectory &amp;) = 0 : void</text><ellipse cx="799" cy="513.5117" fill="#84BE84" rx="3" ry="3" style="stroke: #038048; stroke-width: 1.0;"/><text fill="#000000" font-family="sans-serif" font-size="11" font-style="italic" lengthAdjust="spacingAndGlyphs" textLength="153" x="808" y="515.8198">set_limit(double) = 0 : void</text><line style="stroke: #A80036; stroke-width: 1.5;" x1="789" x2="1071" y1="522.4141" y2="522.4141"/><!--class C_0001971792373968053805--><rect fill="#FEFECE" filter="url(#f1nl2fwse2zkdy)" height="86.4141" id="C_0001971792373968053805" style="stroke: #A80036; stroke-width: 1.5;" width="377" x="328.5" y="591"/><ellipse cx="478.25" cy="607" fill="#ADD1B2" rx="11" ry="11" style="stroke: #A80036; stroke-width: 1.0;"/><path d="M481.2188,612.6406 Q480.6406,612.9375 480,613.0781 Q479.3594,613.2344 478.6563,613.2344 Q476.1563,613.2344 474.8281,611.5938 Q473.5156,609.9375 473.5156,606.8125 Q473.5156,603.6875 474.8281,602.0313 Q476.1563,600.375 478.6563,600.375 Q479.3594,600.375 480,600.5313 Q480.6563,600.6875 481.2188,600.9844 L481.2188,603.7031 Q480.5938,603.125 480,602.8594 Q479.4063,602.5781 478.7813,602.5781 Q477.4375,602.5781 476.75,603.6563 Q476.0625,604.7188 476.0625,606.8125 Q476.0625,608.9063 476.75,609.9844 Q477.4375,611.0469 478.7813,611.0469 Q479.4063,611.0469 480,610.7813 Q480.5938,610.5 481.2188,609.9219 L481.2188,612.6406 Z "/><text fill="#000000" font-family="sans-serif" font-size="12" lengthAdjust="spacingAndGlyphs" textLength="69" x="498.75" y="611.1543">PowerTrain</text><line style="stroke: #A80036; stroke-width: 1.5;" x1="329.5" x2="704.5" y1="623" y2="623"/><ellipse cx="339.5" cy="634.9023" fill="#84BE84" rx="3" ry="3" style="stroke: #038048; stroke-width: 1.0;"/><text fill="#000000" font-family="sans-serif" font-size="11" lengthAdjust="spacingAndGlyphs" textLength="233" x="348.5" y="637.2104">control_vehicle(const Trajectory &amp;) : void</text><ellipse cx="339.5" cy="647.707" fill="#84BE84" rx="3" ry="3" style="stroke: #038048; stroke-width: 1.0;"/><text fill="#000000" font-family="sans-serif" font-size="11" lengthAdjust="spacingAndGlyphs" textLength="351" x="348.5" y="650.0151">set_limit(double acceleration_limit_metres_per_second) : void</text><line style="stroke: #A80036; stroke-width: 1.5;" x1="329.5" x2="704.5" y1="656.6094" y2="656.6094"/><rect fill="none" height="6" style="stroke: #C82930; stroke-width: 1.0;" width="6" x="336.5" y="665.5117"/><text fill="#000000" font-family="sans-serif" font-size="11" lengthAdjust="spacingAndGlyphs" textLength="268" x="348.5" y="670.8198">max_acceleration_metres_per_second : double</text><!--class C_0001143070539853614602--><rect fill="#FEFECE" filter="url(#f1nl2fwse2zkdy)" height="86.4141" id="C_0001143070539853614602" style="stroke: #A80036; stroke-width: 1.5;" width="378" x="741" y="591"/><ellipse cx="907.75" cy="607" fill="#ADD1B2" rx="11" ry="11" style="stroke: #A80036; stroke-width: 1.0;"/><path d="M910.7188,612.6406 Q910.1406,612.9375 909.5,613.0781 Q908.8594,613.2344 908.1563,613.2344 Q905.6563,613.2344 904.3281,611.5938 Q903.0156,609.9375 903.0156,606.8125 Q903.0156,603.6875 904.3281,602.0313 Q905.6563,600.375 908.1563,600.375 Q908.8594,600.375 909.5,600.5313 Q910.1563,600.6875 910.7188,600.9844 L910.7188,603.7031 Q910.0938,603.125 909.5,602.8594 Q908.9063,602.5781 908.2813,602.5781 Q906.9375,602.5781 906.25,603.6563 Q905.5625,604.7188 905.5625,606.8125 Q905.5625,608.9063 906.25,609.9844 Q906.9375,611.0469 908.2813,611.0469 Q908.9063,611.0469 909.5,610.7813 Q910.0938,610.5 910.7188,609.9219 L910.7188,612.6406 Z "/><text fill="#000000" font-family="sans-serif" font-size="12" lengthAdjust="spacingAndGlyphs" textLength="36" x="928.25" y="611.1543">Brake</text><line style="stroke: #A80036; stroke-width: 1.5;" x1="742" x2="1118" y1="623" y2="623"/><ellipse cx="752" cy="634.9023" fill="#84BE84" rx="3" ry="3" style="stroke: #038048; stroke-width: 1.0;"/><text fill="#000000" font-family="sans-serif" font-size="11" lengthAdjust="spacingAndGlyphs" textLength="233" x="761" y="637.2104">control_vehicle(const Trajectory &amp;) : void</text><ellipse cx="752" cy="647.707" fill="#84BE84" rx="3" ry="3" style="stroke: #038048; stroke-width: 1.0;"/><text fill="#000000" font-family="sans-serif" font-size="11" lengthAdjust="spacingAndGlyphs" textLength="352" x="761" y="650.0151">set_limit(double deceleration_limit_metres_per_second) : void</text><line style="stroke: #A80036; stroke-width: 1.5;" x1="742" x2="1118" y1="656.6094" y2="656.6094"/><rect fill="none" height="6" style="stroke: #C82930; stroke-width: 1.0;" width="6" x="749" y="665.5117"/><text fill="#000000" font-family="sans-serif" font-size="11" lengthAdjust="spacingAndGlyphs" textLength="269" x="761" y="670.8198">max_deceleration_metres_per_second : double</text><!--class C_0000346611438033482912--><rect fill="#FEFECE" filter="url(#f1nl2fwse2zkdy)" height="86.4141" id="C_0000346611438033482912" style="stroke: #A80036; stroke-width: 1.5;" width="320" x="1154" y="591"/><ellipse cx="1264.25" cy="607" fill="#ADD1B2" rx="11" ry="11" style="stroke: #A80036; stroke-width: 1.0;"/><path d="M1267.2188,612.6406 Q1266.6406,612.9375 1266,613.0781 Q1265.3594,613.2344 1264.6563,613.2344 Q1262.1563,613.2344 1260.8281,611.5938 Q1259.5156,609.9375 1259.5156,606.8125 Q1259.5156,603.6875 1260.8281,602.0313 Q1262.1563,600.375 1264.6563,600.375 Q1265.3594,600.375 1266,600.5313 Q1266.6563,600.6875 1267.2188,600.9844 L1267.2188,603.7031 Q1266.5938,603.125 1266,602.8594 Q1265.4063,602.5781 1264.7813,602.5781 Q1263.4375,602.5781 1262.75,603.6563 Q1262.0625,604.7188 1262.0625,606.8125 Q1262.0625,608.9063 1262.75,609.9844 Q1263.4375,611.0469 1264.7813,611.0469 Q1265.4063,611.0469 1266,610.7813 Q1266.5938,610.5 1267.2188,609.9219 L1267.2188,612.6406 Z "/><text fill="#000000" font-family="sans-serif" font-size="12" lengthAdjust="spacingAndGlyphs" textLength="91" x="1284.75" y="611.1543">SteeringWheel</text><line style="stroke: #A80036; stroke-width: 1.5;" x1="1155" x2="1473" y1="623" y2="623"/><ellipse cx="1165" cy="634.9023" fill="#84BE84" rx="3" ry="3" style="stroke: #038048; stroke-width: 1.0;"/><text fill="#000000" font-family="sans-serif" font-size="11" lengthAdjust="spacingAndGlyphs" textLength="233" x="1174" y="637.2104">control_vehicle(const Trajectory &amp;) : void</text><ellipse cx="1165" cy="647.707" fill="#84BE84" rx="3" ry="3" style="stroke: #038048; stroke-width: 1.0;"/><text fill="#000000" font-family="sans-serif" font-size="11" lengthAdjust="spacingAndGlyphs" textLength="294" x="1174" y="650.0151">set_limit(double torque_limit_newton_metres) : void</text><line style="stroke: #A80036; stroke-width: 1.5;" x1="1155" x2="1473" y1="656.6094" y2="656.6094"/><rect fill="none" height="6" style="stroke: #C82930; stroke-width: 1.0;" width="6" x="1162" y="665.5117"/><text fill="#000000" font-family="sans-serif" font-size="11" lengthAdjust="spacingAndGlyphs" textLength="211" x="1174" y="670.8198">max_torque_newton_metres : double</text><!--class C_0000978161556763682069--><rect fill="#FEFECE" filter="url(#f1nl2fwse2zkdy)" height="120.0234" id="C_0000978161556763682069" style="stroke: #A80036; stroke-width: 1.5;" width="720" x="155" y="8"/><ellipse cx="467.25" cy="24" fill="#ADD1B2" rx="11" ry="11" style="stroke: #A80036; stroke-width: 1.0;"/><path d="M470.2188,29.6406 Q469.6406,29.9375 469,30.0781 Q468.3594,30.2344 467.6563,30.2344 Q465.1563,30.2344 463.8281,28.5938 Q462.5156,26.9375 462.5156,23.8125 Q462.5156,20.6875 463.8281,19.0313 Q465.1563,17.375 467.6563,17.375 Q468.3594,17.375 469,17.5313 Q469.6563,17.6875 470.2188,17.9844 L470.2188,20.7031 Q469.5938,20.125 469,19.8594 Q468.4063,19.5781 467.7813,19.5781 Q466.4375,19.5781 465.75,20.6563 Q465.0625,21.7188 465.0625,23.8125 Q465.0625,25.9063 465.75,26.9844 Q466.4375,28.0469 467.7813,28.0469 Q468.4063,28.0469 469,27.7813 Q469.5938,27.5 470.2188,26.9219 L470.2188,29.6406 Z "/><text fill="#000000" font-family="sans-serif" font-size="12" lengthAdjust="spacingAndGlyphs" textLength="87" x="487.75" y="28.1543">DrivingSystem</text><line style="stroke: #A80036; stroke-width: 1.5;" x1="156" x2="874" y1="40" y2="40"/><ellipse cx="166" cy="51.9023" fill="#84BE84" rx="3" ry="3" style="stroke: #038048; stroke-width: 1.0;"/><text fill="#000000" font-family="sans-serif" font-size="11" lengthAdjust="spacingAndGlyphs" textLength="694" x="175" y="54.2104">DrivingSystem(std::shared_ptr&lt;Sensor&gt; sensor, std::shared_ptr&lt;Planner&gt; planner, DrivingSystem::Actors actors) : void</text><line style="stroke: #A80036; stroke-width: 1.0; stroke-dasharray: 1.0,2.0;" x1="156" x2="874" y1="60.8047" y2="60.8047"/><ellipse cx="166" cy="72.707" fill="#84BE84" rx="3" ry="3" style="stroke: #038048; stroke-width: 1.0;"/><text fill="#000000" font-family="sans-serif" font-size="11" lengthAdjust="spacingAndGlyphs" textLength="98" x="175" y="75.0151">one_cycle() : void</text><line style="stroke: #A80036; stroke-width: 1.5;" x1="156" x2="874" y1="81.6094" y2="81.6094"/><rect fill="none" height="6" style="stroke: #C82930; stroke-width: 1.0;" width="6" x="163" y="90.5117"/><text fill="#000000" font-family="sans-serif" font-size="11" lengthAdjust="spacingAndGlyphs" textLength="174" x="175" y="95.8198">actors : DrivingSystem::Actors</text><rect fill="none" height="6" style="stroke: #C82930; stroke-width: 1.0;" width="6" x="163" y="103.3164"/><text fill="#000000" font-family="sans-serif" font-size="11" lengthAdjust="spacingAndGlyphs" textLength="204" x="175" y="108.6245">planner : std::shared_ptr&lt;Planner&gt;</text><rect fill="none" height="6" style="stroke: #C82930; stroke-width: 1.0;" width="6" x="163" y="116.1211"/><text fill="#000000" font-family="sans-serif" font-size="11" lengthAdjust="spacingAndGlyphs" textLength="199" x="175" y="121.4292">sensor : std::shared_ptr&lt;Sensor&gt;</text><!--link C_0000885653978909508775 to C_0001816244285415343406--><path d="M137,253.24 C137,269.11 137,290.43 137,308.36 " fill="none" id="C_0000885653978909508775-C_0001816244285415343406" style="stroke: #A80036; stroke-width: 1.0; stroke-dasharray: 7.0,7.0;"/><polygon fill="#A80036" points="137,313.81,141,304.81,137,308.81,133,304.81,137,313.81" style="stroke: #A80036; stroke-width: 1.0;"/><!--link C_0000517477364643921331 to C_0000077851926960506546--><path d="M585.25,253.24 C568.47,269.66 545.73,291.9 527.03,310.2 " fill="none" id="C_0000517477364643921331-C_0000077851926960506546" style="stroke: #A80036; stroke-width: 1.0; stroke-dasharray: 7.0,7.0;"/><polygon fill="#A80036" points="523.35,313.81,532.5776,310.3675,526.9211,310.3104,526.9782,304.6538,523.35,313.81" style="stroke: #A80036; stroke-width: 1.0;"/><!--link C_0001908735947263318269 to C_0001243971194173295032--><path d="M930,368.66 C930,385.63 930,409.33 930,430.68 " fill="none" id="C_0001908735947263318269-C_0001243971194173295032" style="stroke: #A80036; stroke-width: 1.0; stroke-dasharray: 7.0,7.0;"/><polygon fill="#A80036" points="930,435.76,934,426.76,930,430.76,926,426.76,930,435.76" style="stroke: #A80036; stroke-width: 1.0;"/><!--link C_0001842507930156265638 to C_0001908735947263318269--><path d="M930,253.24 C930,271.15 930,295.98 930,315.07 " fill="none" id="C_0001842507930156265638-C_0001908735947263318269" style="stroke: #A80036; stroke-width: 1.0; stroke-dasharray: 7.0,7.0;"/><polygon fill="#A80036" points="930,320.29,934,311.29,930,315.29,926,311.29,930,320.29" style="stroke: #A80036; stroke-width: 1.0;"/><!--link C_0001816244285415343406 to C_0000723521372703994295--><path d="M138.74,375.12 C140.1,398.45 142,430.75 143.34,453.72 " fill="none" id="C_0001816244285415343406-C_0000723521372703994295" style="stroke: #A80036; stroke-width: 1.0; stroke-dasharray: 7.0,7.0;"/><polygon fill="#A80036" points="143.64,458.77,147.0922,449.546,143.3397,453.779,139.1067,450.0265,143.64,458.77" style="stroke: #A80036; stroke-width: 1.0;"/><!--link C_0000077851926960506546 to C_0000723521372703994295--><path d="M332.03,375.08 C303.68,382.99 274.96,392.83 249,405 C221.35,417.96 193.74,438.87 173.92,455.63 " fill="none" id="C_0000077851926960506546-C_0000723521372703994295" style="stroke: #A80036; stroke-width: 1.0; stroke-dasharray: 7.0,7.0;"/><polygon fill="#A80036" points="170.07,458.92,179.5177,456.1379,173.8793,455.6813,174.3359,450.0429,170.07,458.92" style="stroke: #A80036; stroke-width: 1.0;"/><!--link C_0000077851926960506546 to C_0000740826215814649639--><path d="M454.32,375.15 C378.78,436.52 226.13,579.83 311,677 C348.16,719.54 734.74,748.47 877.45,757.77 " fill="none" id="C_0000077851926960506546-C_0000740826215814649639" style="stroke: #A80036; stroke-width: 1.0; stroke-dasharray: 7.0,7.0;"/><polygon fill="#A80036" points="882.83,758.12,874.1125,753.5368,877.8408,757.7912,873.5864,761.5195,882.83,758.12" style="stroke: #A80036; stroke-width: 1.0;"/><!--link C_0001243971194173295032 to C_0000740826215814649639--><path d="M1072.35,487.3 C1276.49,496.96 1614.98,534.27 1492,677 C1426.34,753.2 1108.68,761.3 982.16,761.45 " fill="none" id="C_0001243971194173295032-C_0000740826215814649639" style="stroke: #A80036; stroke-width: 1.0; stroke-dasharray: 7.0,7.0;"/><polygon fill="#A80036" points="977.01,761.45,986.01,765.45,982.01,761.45,986.01,757.45,977.01,761.45" style="stroke: #A80036; stroke-width: 1.0;"/><!--link C_0001971792373968053805 to C_0000740826215814649639--><path d="M654.81,677.04 C731.32,700.39 822.02,728.06 877.79,745.07 " fill="none" id="C_0001971792373968053805-C_0000740826215814649639" style="stroke: #A80036; stroke-width: 1.0; stroke-dasharray: 7.0,7.0;"/><polygon fill="#A80036" points="882.74,746.58,875.2953,740.132,877.9568,745.1236,872.9651,747.7851,882.74,746.58" style="stroke: #A80036; stroke-width: 1.0;"/><!--link C_0001243971194173295032 to C_0001971792373968053805--><path d="M783.49,536.86 C734.28,554.61 680.1,574.16 633.52,590.96 " fill="none" id="C_0001243971194173295032-C_0001971792373968053805" style="stroke: #A80036; stroke-width: 1.0;"/><polygon fill="none" points="781.25,530.23,802.43,530.02,786,543.39,781.25,530.23" style="stroke: #A80036; stroke-width: 1.0;"/><!--link C_0001143070539853614602 to C_0000740826215814649639--><path d="M930,677.31 C930,695.42 930,716.1 930,732.37 " fill="none" id="C_0001143070539853614602-C_0000740826215814649639" style="stroke: #A80036; stroke-width: 1.0; stroke-dasharray: 7.0,7.0;"/><polygon fill="#A80036" points="930,737.71,934,728.71,930,732.71,926,728.71,930,737.71" style="stroke: #A80036; stroke-width: 1.0;"/><!--link C_0001243971194173295032 to C_0001143070539853614602--><path d="M930,550.55 C930,564.21 930,578.23 930,590.75 " fill="none" id="C_0001243971194173295032-C_0001143070539853614602" style="stroke: #A80036; stroke-width: 1.0;"/><polygon fill="none" points="923,550.33,930,530.33,937,550.33,923,550.33" style="stroke: #A80036; stroke-width: 1.0;"/><!--link C_0000346611438033482912 to C_0000740826215814649639--><path d="M1185.87,677.04 C1116.35,699.85 1034.23,726.8 982.14,743.89 " fill="none" id="C_0000346611438033482912-C_0000740826215814649639" style="stroke: #A80036; stroke-width: 1.0; stroke-dasharray: 7.0,7.0;"/><polygon fill="#A80036" points="977.19,745.51,986.9878,746.5118,981.9419,743.9546,984.4991,738.9087,977.19,745.51" style="stroke: #A80036; stroke-width: 1.0;"/><!--link C_0001243971194173295032 to C_0000346611438033482912--><path d="M1067.44,537.33 C1112.86,554.95 1162.73,574.3 1205.66,590.96 " fill="none" id="C_0001243971194173295032-C_0000346611438033482912" style="stroke: #A80036; stroke-width: 1.0;"/><polygon fill="none" points="1064.72,543.78,1048.61,530.02,1069.79,530.73,1064.72,543.78" style="stroke: #A80036; stroke-width: 1.0;"/><!--link C_0000978161556763682069 to C_0001243971194173295032--><path d="M618.44,128.04 C651.69,149.78 687.31,176.19 716,205 C780.19,269.46 773.43,303.76 830,375 C845.36,394.34 863.47,414.42 880.02,431.88 " fill="none" id="C_0000978161556763682069-C_0001243971194173295032" style="stroke: #A80036; stroke-width: 1.0; stroke-dasharray: 7.0,7.0;"/><polygon fill="#A80036" points="883.75,435.79,880.457,426.508,880.3085,432.1629,874.6536,432.0144,883.75,435.79" style="stroke: #A80036; stroke-width: 1.0;"/><!--link C_0000978161556763682069 to C_0001816244285415343406--><path d="M433.45,128.22 C356.51,184.1 244,265.8 182.06,310.78 " fill="none" id="C_0000978161556763682069-C_0001816244285415343406" style="stroke: #A80036; stroke-width: 1.0;"/><polygon fill="#A80036" points="177.69,313.95,187.3252,311.9096,181.7392,311.0168,182.6321,305.4309,177.69,313.95" style="stroke: #A80036; stroke-width: 1.0;"/><rect fill="none" height="6" style="stroke: #C82930; stroke-width: 1.0;" width="6" x="331" y="226.5664"/><text fill="#000000" font-family="sans-serif" font-size="13" lengthAdjust="spacingAndGlyphs" textLength="43" x="341" y="233.5669">sensor</text><!--link C_0000978161556763682069 to C_0000885653978909508775--><path d="M274.93,128 C253.08,136.77 231.76,146.73 212,158 C192.48,169.13 173.99,186.29 160.25,200.83 " fill="none" id="C_0000978161556763682069-C_0000885653978909508775" style="stroke: #A80036; stroke-width: 1.0;"/><polygon fill="#A80036" points="156.51,204.85,165.5756,201.001,159.9221,201.1952,159.7279,195.5417,156.51,204.85" style="stroke: #A80036; stroke-width: 1.0;"/><rect fill="none" height="6" style="stroke: #C82930; stroke-width: 1.0;" width="6" x="215" y="164.0664"/><text fill="#000000" font-family="sans-serif" font-size="13" lengthAdjust="spacingAndGlyphs" textLength="43" x="225" y="171.0669">sensor</text><!--link C_0000978161556763682069 to C_0000077851926960506546--><path d="M473.87,128.18 C460.29,151.1 446.89,178.24 440,205 C434.68,225.66 434.41,232.41 440,253 C445.45,273.08 456.59,293.26 467.26,309.46 " fill="none" id="C_0000978161556763682069-C_0000077851926960506546" style="stroke: #A80036; stroke-width: 1.0;"/><polygon fill="#A80036" points="470.25,313.92,468.5628,304.2167,467.4666,309.7663,461.917,308.6701,470.25,313.92" style="stroke: #A80036; stroke-width: 1.0;"/><rect fill="none" height="6" style="stroke: #C82930; stroke-width: 1.0;" width="6" x="443" y="226.5664"/><text fill="#000000" font-family="sans-serif" font-size="13" lengthAdjust="spacingAndGlyphs" textLength="48" x="453" y="233.5669">planner</text><!--link C_0000978161556763682069 to C_0000517477364643921331--><path d="M550,128.21 C564.66,153 580.98,180.61 592.74,200.49 " fill="none" id="C_0000978161556763682069-C_0000517477364643921331" style="stroke: #A80036; stroke-width: 1.0;"/><polygon fill="#A80036" points="595.32,204.86,594.1819,195.0771,592.7749,200.5562,587.2958,199.1493,595.32,204.86" style="stroke: #A80036; stroke-width: 1.0;"/><rect fill="none" height="6" style="stroke: #C82930; stroke-width: 1.0;" width="6" x="579" y="164.0664"/><text fill="#000000" font-family="sans-serif" font-size="13" lengthAdjust="spacingAndGlyphs" textLength="48" x="589" y="171.0669">planner</text><!--link C_0000978161556763682069 to C_0001842507930156265638--><path d="M710.11,132.46 C733.12,140.7 756.17,149.31 778,158 C813.9,172.29 853.52,190.63 883.31,204.95 " fill="none" id="C_0000978161556763682069-C_0001842507930156265638" style="stroke: #A80036; stroke-width: 1.0;"/><polygon fill="#FFFFFF" points="697.71,128.05,702.0275,133.8257,709.0195,132.0618,704.702,126.286,697.71,128.05" style="stroke: #A80036; stroke-width: 1.0;"/><rect fill="none" height="6" style="stroke: #C82930; stroke-width: 1.0;" width="6" x="819" y="164.0664"/><text fill="#000000" font-family="sans-serif" font-size="13" lengthAdjust="spacingAndGlyphs" textLength="40" x="829" y="171.0669">actors</text><!--
@startuml
class "std::shared_ptr<Sensor>" as C_0000885653978909508775
class C_0000885653978909508775 {
__
}
class "std::shared_ptr<Planner>" as C_0000517477364643921331
class C_0000517477364643921331 {
__
}
class "std::shared_ptr<Actor>" as C_0001908735947263318269
class C_0001908735947263318269 {
__
}
class "std::vector<std::shared_ptr<Actor>>" as C_0001842507930156265638
class C_0001842507930156265638 {
__
}
class "EnvironmentModel" as C_0000723521372703994295
class C_0000723521372703994295 {
__
}
class "Sensor" as C_0001816244285415343406
class C_0001816244285415343406 {
+model_environment() : EnvironmentModel
__
}
class "Trajectory" as C_0000740826215814649639
class C_0000740826215814649639 {
__
}
class "Planner" as C_0000077851926960506546
class C_0000077851926960506546 {
+plan_vehicle_behavior(const EnvironmentModel &) : Trajectory
__
}
abstract "Actor" as C_0001243971194173295032
abstract C_0001243971194173295032 {
+~Actor() = default : void
..
{abstract} +control_vehicle(const Trajectory &) = 0 : void
{abstract} +set_limit(double) = 0 : void
__
}
class "PowerTrain" as C_0001971792373968053805
class C_0001971792373968053805 {
+control_vehicle(const Trajectory &) : void
+set_limit(double acceleration_limit_metres_per_second) : void
__
-max_acceleration_metres_per_second : double
}
class "Brake" as C_0001143070539853614602
class C_0001143070539853614602 {
+control_vehicle(const Trajectory &) : void
+set_limit(double deceleration_limit_metres_per_second) : void
__
-max_deceleration_metres_per_second : double
}
class "SteeringWheel" as C_0000346611438033482912
class C_0000346611438033482912 {
+control_vehicle(const Trajectory &) : void
+set_limit(double torque_limit_newton_metres) : void
__
-max_torque_newton_metres : double
}
class "DrivingSystem" as C_0000978161556763682069
class C_0000978161556763682069 {
+DrivingSystem(std::shared_ptr<Sensor> sensor, std::shared_ptr<Planner> planner, DrivingSystem::Actors actors) : void
..
+one_cycle() : void
__
-actors : DrivingSystem::Actors
-planner : std::shared_ptr<Planner>
-sensor : std::shared_ptr<Sensor>
}
C_0000885653978909508775 ..> C_0001816244285415343406
C_0000517477364643921331 ..> C_0000077851926960506546
C_0001908735947263318269 ..> C_0001243971194173295032
C_0001842507930156265638 ..> C_0001908735947263318269
C_0001816244285415343406 ..> C_0000723521372703994295
C_0000077851926960506546 ..> C_0000723521372703994295
C_0000077851926960506546 ..> C_0000740826215814649639
C_0001243971194173295032 ..> C_0000740826215814649639
C_0001971792373968053805 ..> C_0000740826215814649639
C_0001243971194173295032 <|- - C_0001971792373968053805
C_0001143070539853614602 ..> C_0000740826215814649639
C_0001243971194173295032 <|- - C_0001143070539853614602
C_0000346611438033482912 ..> C_0000740826215814649639
C_0001243971194173295032 <|- - C_0000346611438033482912
C_0000978161556763682069 ..> C_0001243971194173295032
C_0000978161556763682069 - -> C_0001816244285415343406 : -sensor
C_0000978161556763682069 - -> C_0000885653978909508775 : -sensor
C_0000978161556763682069 - -> C_0000077851926960506546 : -planner
C_0000978161556763682069 - -> C_0000517477364643921331 : -planner
C_0000978161556763682069 o- - C_0001842507930156265638 : -actors

@enduml

PlantUML version 1.2018.13(Mon Nov 26 18:11:51 CET 2018)
(GPL source distribution)
Java Runtime: OpenJDK Runtime Environment
JVM: OpenJDK 64-Bit Server VM
Java Version: 11.0.21+9-post-Ubuntu-0ubuntu120.04
Operating System: Linux
OS Version: 5.15.0-91-generic
Default Encoding: UTF-8
Language: de
Country: DE
--></g></svg>