<?xml version="1.0" encoding="UTF-8" standalone="no"?><svg xmlns="http://www.w3.org/2000/svg" xmlns:xlink="http://www.w3.org/1999/xlink" contentScriptType="application/ecmascript" contentStyleType="text/css" height="760px" preserveAspectRatio="none" style="width:1472px;height:760px;" version="1.1" viewBox="0 0 1472 760" width="1472px" zoomAndPan="magnify"><defs><filter height="300%" id="f1k6uqpscyp30t" width="300%" x="-1" y="-1"><feGaussianBlur result="blurOut" stdDeviation="2.0"/><feColorMatrix in="blurOut" result="blurOut2" type="matrix" values="0 0 0 0 0 0 0 0 0 0 0 0 0 0 0 0 0 0 .4 0"/><feOffset dx="4.0" dy="4.0" in="blurOut2" result="blurOut3"/><feBlend in="SourceGraphic" in2="blurOut3" mode="normal"/></filter></defs><g><!--class C_0000885653978909508775--><rect fill="#FEFECE" filter="url(#f1k6uqpscyp30t)" height="48" id="C_0000885653978909508775" style="stroke: #A80036; stroke-width: 1.5;" width="175" x="49.5" y="205"/><ellipse cx="64.5" cy="221" fill="#ADD1B2" rx="11" ry="11" style="stroke: #A80036; stroke-width: 1.0;"/><path d="M67.4688,226.6406 Q66.8906,226.9375 66.25,227.0781 Q65.6094,227.2344 64.9063,227.2344 Q62.4063,227.2344 61.0781,225.5938 Q59.7656,223.9375 59.7656,220.8125 Q59.7656,217.6875 61.0781,216.0313 Q62.4063,214.375 64.9063,214.375 Q65.6094,214.375 66.25,214.5313 Q66.9063,214.6875 67.4688,214.9844 L67.4688,217.7031 Q66.8438,217.125 66.25,216.8594 Q65.6563,216.5781 65.0313,216.5781 Q63.6875,216.5781 63,217.6563 Q62.3125,218.7188 62.3125,220.8125 Q62.3125,222.9063 63,223.9844 Q63.6875,225.0469 65.0313,225.0469 Q65.6563,225.0469 66.25,224.7813 Q66.8438,224.5 67.4688,223.9219 L67.4688,226.6406 Z "/><text fill="#000000" font-family="sans-serif" font-size="12" lengthAdjust="spacingAndGlyphs" textLength="96" x="78.5" y="225.1543">std::shared_ptr</text><rect fill="#FFFFFF" height="15.9688" style="stroke: #000000; stroke-width: 1.0; stroke-dasharray: 2.0,2.0;" width="45" x="182.5" y="202"/><text fill="#000000" font-family="sans-serif" font-size="12" font-style="italic" lengthAdjust="spacingAndGlyphs" textLength="43" x="183.5" y="214.1387">Sensor</text><line style="stroke: #A80036; stroke-width: 1.5;" x1="50.5" x2="223.5" y1="237" y2="237"/><line style="stroke: #A80036; stroke-width: 1.5;" x1="50.5" x2="223.5" y1="245" y2="245"/><!--class C_0000517477364643921331--><rect fill="#FEFECE" filter="url(#f1k6uqpscyp30t)" height="48" id="C_0000517477364643921331" style="stroke: #A80036; stroke-width: 1.5;" width="179" x="519.5" y="205"/><ellipse cx="534.5" cy="221" fill="#ADD1B2" rx="11" ry="11" style="stroke: #A80036; stroke-width: 1.0;"/><path d="M537.4688,226.6406 Q536.8906,226.9375 536.25,227.0781 Q535.6094,227.2344 534.9063,227.2344 Q532.4063,227.2344 531.0781,225.5938 Q529.7656,223.9375 529.7656,220.8125 Q529.7656,217.6875 531.0781,216.0313 Q532.4063,214.375 534.9063,214.375 Q535.6094,214.375 536.25,214.5313 Q536.9063,214.6875 537.4688,214.9844 L537.4688,217.7031 Q536.8438,217.125 536.25,216.8594 Q535.6563,216.5781 535.0313,216.5781 Q533.6875,216.5781 533,217.6563 Q532.3125,218.7188 532.3125,220.8125 Q532.3125,222.9063 533,223.9844 Q533.6875,225.0469 535.0313,225.0469 Q535.6563,225.0469 536.25,224.7813 Q536.8438,224.5 537.4688,223.9219 L537.4688,226.6406 Z "/><text fill="#000000" font-family="sans-serif" font-size="12" lengthAdjust="spacingAndGlyphs" textLength="96" x="548.5" y="225.1543">std::shared_ptr</text><rect fill="#FFFFFF" height="15.9688" style="stroke: #000000; stroke-width: 1.0; stroke-dasharray: 2.0,2.0;" width="49" x="652.5" y="202"/><text fill="#000000" font-family="sans-serif" font-size="12" font-style="italic" lengthAdjust="spacingAndGlyphs" textLength="47" x="653.5" y="214.1387">Planner</text><line style="stroke: #A80036; stroke-width: 1.5;" x1="520.5" x2="697.5" y1="237" y2="237"/><line style="stroke: #A80036; stroke-width: 1.5;" x1="520.5" x2="697.5" y1="245" y2="245"/><!--class C_0001908735947263318269--><rect fill="#FEFECE" filter="url(#f1k6uqpscyp30t)" height="48" id="C_0001908735947263318269" style="stroke: #A80036; stroke-width: 1.5;" width="165" x="847.5" y="320.5"/><ellipse cx="862.5" cy="336.5" fill="#ADD1B2" rx="11" ry="11" style="stroke: #A80036; stroke-width: 1.0;"/><path d="M865.4688,342.1406 Q864.8906,342.4375 864.25,342.5781 Q863.6094,342.7344 862.9063,342.7344 Q860.4063,342.7344 859.0781,341.0938 Q857.7656,339.4375 857.7656,336.3125 Q857.7656,333.1875 859.0781,331.5313 Q860.4063,329.875 862.9063,329.875 Q863.6094,329.875 864.25,330.0313 Q864.9063,330.1875 865.4688,330.4844 L865.4688,333.2031 Q864.8438,332.625 864.25,332.3594 Q863.6563,332.0781 863.0313,332.0781 Q861.6875,332.0781 861,333.1563 Q860.3125,334.2188 860.3125,336.3125 Q860.3125,338.4063 861,339.4844 Q861.6875,340.5469 863.0313,340.5469 Q863.6563,340.5469 864.25,340.2813 Q864.8438,340 865.4688,339.4219 L865.4688,342.1406 Z "/><text fill="#000000" font-family="sans-serif" font-size="12" lengthAdjust="spacingAndGlyphs" textLength="96" x="876.5" y="340.6543">std::shared_ptr</text><rect fill="#FFFFFF" height="15.9688" style="stroke: #000000; stroke-width: 1.0; stroke-dasharray: 2.0,2.0;" width="35" x="980.5" y="317.5"/><text fill="#000000" font-family="sans-serif" font-size="12" font-style="italic" lengthAdjust="spacingAndGlyphs" textLength="33" x="981.5" y="329.6387">Actor</text><line style="stroke: #A80036; stroke-width: 1.5;" x1="848.5" x2="1011.5" y1="352.5" y2="352.5"/><line style="stroke: #A80036; stroke-width: 1.5;" x1="848.5" x2="1011.5" y1="360.5" y2="360.5"/><!--class C_0001842507930156265638--><rect fill="#FEFECE" filter="url(#f1k6uqpscyp30t)" height="48" id="C_0001842507930156265638" style="stroke: #A80036; stroke-width: 1.5;" width="250" x="805" y="205"/><ellipse cx="820" cy="221" fill="#ADD1B2" rx="11" ry="11" style="stroke: #A80036; stroke-width: 1.0;"/><path d="M822.9688,226.6406 Q822.3906,226.9375 821.75,227.0781 Q821.1094,227.2344 820.4063,227.2344 Q817.9063,227.2344 816.5781,225.5938 Q815.2656,223.9375 815.2656,220.8125 Q815.2656,217.6875 816.5781,216.0313 Q817.9063,214.375 820.4063,214.375 Q821.1094,214.375 821.75,214.5313 Q822.4063,214.6875 822.9688,214.9844 L822.9688,217.7031 Q822.3438,217.125 821.75,216.8594 Q821.1563,216.5781 820.5313,216.5781 Q819.1875,216.5781 818.5,217.6563 Q817.8125,218.7188 817.8125,220.8125 Q817.8125,222.9063 818.5,223.9844 Q819.1875,225.0469 820.5313,225.0469 Q821.1563,225.0469 821.75,224.7813 Q822.3438,224.5 822.9688,223.9219 L822.9688,226.6406 Z "/><text fill="#000000" font-family="sans-serif" font-size="12" lengthAdjust="spacingAndGlyphs" textLength="67" x="834" y="225.1543">std::vector</text><rect fill="#FFFFFF" height="15.9688" style="stroke: #000000; stroke-width: 1.0; stroke-dasharray: 2.0,2.0;" width="149" x="909" y="202"/><text fill="#000000" font-family="sans-serif" font-size="12" font-style="italic" lengthAdjust="spacingAndGlyphs" textLength="147" x="910" y="214.1387">std::shared_ptr&lt;Actor&gt;</text><line style="stroke: #A80036; stroke-width: 1.5;" x1="806" x2="1054" y1="237" y2="237"/><line style="stroke: #A80036; stroke-width: 1.5;" x1="806" x2="1054" y1="245" y2="245"/><!--class C_0000723521372703994295--><rect fill="#FEFECE" filter="url(#f1k6uqpscyp30t)" height="48" id="C_0000723521372703994295" style="stroke: #A80036; stroke-width: 1.5;" width="147" x="205.5" y="453"/><ellipse cx="220.5" cy="469" fill="#ADD1B2" rx="11" ry="11" style="stroke: #A80036; stroke-width: 1.0;"/><path d="M223.4688,474.6406 Q222.8906,474.9375 222.25,475.0781 Q221.6094,475.2344 220.9063,475.2344 Q218.4063,475.2344 217.0781,473.5938 Q215.7656,471.9375 215.7656,468.8125 Q215.7656,465.6875 217.0781,464.0313 Q218.4063,462.375 220.9063,462.375 Q221.6094,462.375 222.25,462.5313 Q222.9063,462.6875 223.4688,462.9844 L223.4688,465.7031 Q222.8438,465.125 222.25,464.8594 Q221.6563,464.5781 221.0313,464.5781 Q219.6875,464.5781 219,465.6563 Q218.3125,466.7188 218.3125,468.8125 Q218.3125,470.9063 219,471.9844 Q219.6875,473.0469 221.0313,473.0469 Q221.6563,473.0469 222.25,472.7813 Q222.8438,472.5 223.4688,471.9219 L223.4688,474.6406 Z "/><text fill="#000000" font-family="sans-serif" font-size="12" lengthAdjust="spacingAndGlyphs" textLength="115" x="234.5" y="473.1543">EnvironmentModel</text><line style="stroke: #A80036; stroke-width: 1.5;" x1="206.5" x2="351.5" y1="485" y2="485"/><line style="stroke: #A80036; stroke-width: 1.5;" x1="206.5" x2="351.5" y1="493" y2="493"/><!--class C_0001816244285415343406--><rect fill="#FEFECE" filter="url(#f1k6uqpscyp30t)" height="60.8047" id="C_0001816244285415343406" style="stroke: #A80036; stroke-width: 1.5;" width="262" x="6" y="314"/><ellipse cx="110.75" cy="330" fill="#ADD1B2" rx="11" ry="11" style="stroke: #A80036; stroke-width: 1.0;"/><path d="M113.7188,335.6406 Q113.1406,335.9375 112.5,336.0781 Q111.8594,336.2344 111.1563,336.2344 Q108.6563,336.2344 107.3281,334.5938 Q106.0156,332.9375 106.0156,329.8125 Q106.0156,326.6875 107.3281,325.0313 Q108.6563,323.375 111.1563,323.375 Q111.8594,323.375 112.5,323.5313 Q113.1563,323.6875 113.7188,323.9844 L113.7188,326.7031 Q113.0938,326.125 112.5,325.8594 Q111.9063,325.5781 111.2813,325.5781 Q109.9375,325.5781 109.25,326.6563 Q108.5625,327.7188 108.5625,329.8125 Q108.5625,331.9063 109.25,332.9844 Q109.9375,334.0469 111.2813,334.0469 Q111.9063,334.0469 112.5,333.7813 Q113.0938,333.5 113.7188,332.9219 L113.7188,335.6406 Z "/><text fill="#000000" font-family="sans-serif" font-size="12" lengthAdjust="spacingAndGlyphs" textLength="44" x="131.25" y="334.1543">Sensor</text><line style="stroke: #A80036; stroke-width: 1.5;" x1="7" x2="267" y1="346" y2="346"/><ellipse cx="17" cy="357.9023" fill="#84BE84" rx="3" ry="3" style="stroke: #038048; stroke-width: 1.0;"/><text fill="#000000" font-family="sans-serif" font-size="11" lengthAdjust="spacingAndGlyphs" textLength="236" x="26" y="360.2104">model_environment() : EnvironmentModel</text><line style="stroke: #A80036; stroke-width: 1.5;" x1="7" x2="267" y1="366.8047" y2="366.8047"/><!--class C_0000740826215814649639--><rect fill="#FEFECE" filter="url(#f1k6uqpscyp30t)" height="48" id="C_0000740826215814649639" style="stroke: #A80036; stroke-width: 1.5;" width="94" x="883" y="701"/><ellipse cx="898" cy="717" fill="#ADD1B2" rx="11" ry="11" style="stroke: #A80036; stroke-width: 1.0;"/><path d="M900.9688,722.6406 Q900.3906,722.9375 899.75,723.0781 Q899.1094,723.2344 898.4063,723.2344 Q895.9063,723.2344 894.5781,721.5938 Q893.2656,719.9375 893.2656,716.8125 Q893.2656,713.6875 894.5781,712.0313 Q895.9063,710.375 898.4063,710.375 Q899.1094,710.375 899.75,710.5313 Q900.4063,710.6875 900.9688,710.9844 L900.9688,713.7031 Q900.3438,713.125 899.75,712.8594 Q899.1563,712.5781 898.5313,712.5781 Q897.1875,712.5781 896.5,713.6563 Q895.8125,714.7188 895.8125,716.8125 Q895.8125,718.9063 896.5,719.9844 Q897.1875,721.0469 898.5313,721.0469 Q899.1563,721.0469 899.75,720.7813 Q900.3438,720.5 900.9688,719.9219 L900.9688,722.6406 Z "/><text fill="#000000" font-family="sans-serif" font-size="12" lengthAdjust="spacingAndGlyphs" textLength="62" x="912" y="721.1543">Trajectory</text><line style="stroke: #A80036; stroke-width: 1.5;" x1="884" x2="976" y1="733" y2="733"/><line style="stroke: #A80036; stroke-width: 1.5;" x1="884" x2="976" y1="741" y2="741"/><!--class C_0000077851926960506546--><rect fill="#FEFECE" filter="url(#f1k6uqpscyp30t)" height="60.8047" id="C_0000077851926960506546" style="stroke: #A80036; stroke-width: 1.5;" width="380" x="303" y="314"/><ellipse cx="464.75" cy="330" fill="#ADD1B2" rx="11" ry="11" style="stroke: #A80036; stroke-width: 1.0;"/><path d="M467.7188,335.6406 Q467.1406,335.9375 466.5,336.0781 Q465.8594,336.2344 465.1563,336.2344 Q462.6563,336.2344 461.3281,334.5938 Q460.0156,332.9375 460.0156,329.8125 Q460.0156,326.6875 461.3281,325.0313 Q462.6563,323.375 465.1563,323.375 Q465.8594,323.375 466.5,323.5313 Q467.1563,323.6875 467.7188,323.9844 L467.7188,326.7031 Q467.0938,326.125 466.5,325.8594 Q465.9063,325.5781 465.2813,325.5781 Q463.9375,325.5781 463.25,326.6563 Q462.5625,327.7188 462.5625,329.8125 Q462.5625,331.9063 463.25,332.9844 Q463.9375,334.0469 465.2813,334.0469 Q465.9063,334.0469 466.5,333.7813 Q467.0938,333.5 467.7188,332.9219 L467.7188,335.6406 Z "/><text fill="#000000" font-family="sans-serif" font-size="12" lengthAdjust="spacingAndGlyphs" textLength="48" x="485.25" y="334.1543">Planner</text><line style="stroke: #A80036; stroke-width: 1.5;" x1="304" x2="682" y1="346" y2="346"/><ellipse cx="314" cy="357.9023" fill="#84BE84" rx="3" ry="3" style="stroke: #038048; stroke-width: 1.0;"/><text fill="#000000" font-family="sans-serif" font-size="11" lengthAdjust="spacingAndGlyphs" textLength="354" x="323" y="360.2104">plan_vehicle_behavior(const EnvironmentModel &amp;) : Trajectory</text><line style="stroke: #A80036; stroke-width: 1.5;" x1="304" x2="682" y1="366.8047" y2="366.8047"/><!--class C_0001243971194173295032--><rect fill="#FEFECE" filter="url(#f1k6uqpscyp30t)" height="81.6094" id="C_0001243971194173295032" style="stroke: #A80036; stroke-width: 1.5;" width="284" x="788" y="436"/><ellipse cx="909.25" cy="452" fill="#A9DCDF" rx="11" ry="11" style="stroke: #A80036; stroke-width: 1.0;"/><path d="M909.3594,447.3438 L908.2031,452.4219 L910.5313,452.4219 L909.3594,447.3438 Z M907.875,445.1094 L910.8594,445.1094 L914.2188,457.5 L911.7656,457.5 L911,454.4375 L907.7188,454.4375 L906.9688,457.5 L904.5313,457.5 L907.875,445.1094 Z "/><text fill="#000000" font-family="sans-serif" font-size="12" font-style="italic" lengthAdjust="spacingAndGlyphs" textLength="33" x="929.75" y="456.1543">Actor</text><line style="stroke: #A80036; stroke-width: 1.5;" x1="789" x2="1071" y1="468" y2="468"/><ellipse cx="799" cy="479.9023" fill="#84BE84" rx="3" ry="3" style="stroke: #038048; stroke-width: 1.0;"/><text fill="#000000" font-family="sans-serif" font-size="11" lengthAdjust="spacingAndGlyphs" textLength="137" x="808" y="482.2104">~Actor() = default : void</text><line style="stroke: #A80036; stroke-width: 1.0; stroke-dasharray: 1.0,2.0;" x1="789" x2="1071" y1="488.8047" y2="488.8047"/><ellipse cx="799" cy="500.707" fill="#84BE84" rx="3" ry="3" style="stroke: #038048; stroke-width: 1.0;"/><text fill="#000000" font-family="sans-serif" font-size="11" font-style="italic" lengthAdjust="spacingAndGlyphs" textLength="258" x="808" y="503.0151">control_vehicle(const Trajectory &amp;) = 0 : void</text><line style="stroke: #A80036; stroke-width: 1.5;" x1="789" x2="1071" y1="509.6094" y2="509.6094"/><!--class C_0001971792373968053805--><rect fill="#FEFECE" filter="url(#f1k6uqpscyp30t)" height="60.8047" id="C_0001971792373968053805" style="stroke: #A80036; stroke-width: 1.5;" width="259" x="506.5" y="579"/><ellipse cx="597.25" cy="595" fill="#ADD1B2" rx="11" ry="11" style="stroke: #A80036; stroke-width: 1.0;"/><path d="M600.2188,600.6406 Q599.6406,600.9375 599,601.0781 Q598.3594,601.2344 597.6563,601.2344 Q595.1563,601.2344 593.8281,599.5938 Q592.5156,597.9375 592.5156,594.8125 Q592.5156,591.6875 593.8281,590.0313 Q595.1563,588.375 597.6563,588.375 Q598.3594,588.375 599,588.5313 Q599.6563,588.6875 600.2188,588.9844 L600.2188,591.7031 Q599.5938,591.125 599,590.8594 Q598.4063,590.5781 597.7813,590.5781 Q596.4375,590.5781 595.75,591.6563 Q595.0625,592.7188 595.0625,594.8125 Q595.0625,596.9063 595.75,597.9844 Q596.4375,599.0469 597.7813,599.0469 Q598.4063,599.0469 599,598.7813 Q599.5938,598.5 600.2188,597.9219 L600.2188,600.6406 Z "/><text fill="#000000" font-family="sans-serif" font-size="12" lengthAdjust="spacingAndGlyphs" textLength="69" x="617.75" y="599.1543">PowerTrain</text><line style="stroke: #A80036; stroke-width: 1.5;" x1="507.5" x2="764.5" y1="611" y2="611"/><ellipse cx="517.5" cy="622.9023" fill="#84BE84" rx="3" ry="3" style="stroke: #038048; stroke-width: 1.0;"/><text fill="#000000" font-family="sans-serif" font-size="11" lengthAdjust="spacingAndGlyphs" textLength="233" x="526.5" y="625.2104">control_vehicle(const Trajectory &amp;) : void</text><line style="stroke: #A80036; stroke-width: 1.5;" x1="507.5" x2="764.5" y1="631.8047" y2="631.8047"/><!--class C_0001143070539853614602--><rect fill="#FEFECE" filter="url(#f1k6uqpscyp30t)" height="60.8047" id="C_0001143070539853614602" style="stroke: #A80036; stroke-width: 1.5;" width="259" x="800.5" y="579"/><ellipse cx="907.75" cy="595" fill="#ADD1B2" rx="11" ry="11" style="stroke: #A80036; stroke-width: 1.0;"/><path d="M910.7188,600.6406 Q910.1406,600.9375 909.5,601.0781 Q908.8594,601.2344 908.1563,601.2344 Q905.6563,601.2344 904.3281,599.5938 Q903.0156,597.9375 903.0156,594.8125 Q903.0156,591.6875 904.3281,590.0313 Q905.6563,588.375 908.1563,588.375 Q908.8594,588.375 909.5,588.5313 Q910.1563,588.6875 910.7188,588.9844 L910.7188,591.7031 Q910.0938,591.125 909.5,590.8594 Q908.9063,590.5781 908.2813,590.5781 Q906.9375,590.5781 906.25,591.6563 Q905.5625,592.7188 905.5625,594.8125 Q905.5625,596.9063 906.25,597.9844 Q906.9375,599.0469 908.2813,599.0469 Q908.9063,599.0469 909.5,598.7813 Q910.0938,598.5 910.7188,597.9219 L910.7188,600.6406 Z "/><text fill="#000000" font-family="sans-serif" font-size="12" lengthAdjust="spacingAndGlyphs" textLength="36" x="928.25" y="599.1543">Brake</text><line style="stroke: #A80036; stroke-width: 1.5;" x1="801.5" x2="1058.5" y1="611" y2="611"/><ellipse cx="811.5" cy="622.9023" fill="#84BE84" rx="3" ry="3" style="stroke: #038048; stroke-width: 1.0;"/><text fill="#000000" font-family="sans-serif" font-size="11" lengthAdjust="spacingAndGlyphs" textLength="233" x="820.5" y="625.2104">control_vehicle(const Trajectory &amp;) : void</text><line style="stroke: #A80036; stroke-width: 1.5;" x1="801.5" x2="1058.5" y1="631.8047" y2="631.8047"/><!--class C_0000346611438033482912--><rect fill="#FEFECE" filter="url(#f1k6uqpscyp30t)" height="60.8047" id="C_0000346611438033482912" style="stroke: #A80036; stroke-width: 1.5;" width="259" x="1094.5" y="579"/><ellipse cx="1174.25" cy="595" fill="#ADD1B2" rx="11" ry="11" style="stroke: #A80036; stroke-width: 1.0;"/><path d="M1177.2188,600.6406 Q1176.6406,600.9375 1176,601.0781 Q1175.3594,601.2344 1174.6563,601.2344 Q1172.1563,601.2344 1170.8281,599.5938 Q1169.5156,597.9375 1169.5156,594.8125 Q1169.5156,591.6875 1170.8281,590.0313 Q1172.1563,588.375 1174.6563,588.375 Q1175.3594,588.375 1176,588.5313 Q1176.6563,588.6875 1177.2188,588.9844 L1177.2188,591.7031 Q1176.5938,591.125 1176,590.8594 Q1175.4063,590.5781 1174.7813,590.5781 Q1173.4375,590.5781 1172.75,591.6563 Q1172.0625,592.7188 1172.0625,594.8125 Q1172.0625,596.9063 1172.75,597.9844 Q1173.4375,599.0469 1174.7813,599.0469 Q1175.4063,599.0469 1176,598.7813 Q1176.5938,598.5 1177.2188,597.9219 L1177.2188,600.6406 Z "/><text fill="#000000" font-family="sans-serif" font-size="12" lengthAdjust="spacingAndGlyphs" textLength="91" x="1194.75" y="599.1543">SteeringWheel</text><line style="stroke: #A80036; stroke-width: 1.5;" x1="1095.5" x2="1352.5" y1="611" y2="611"/><ellipse cx="1105.5" cy="622.9023" fill="#84BE84" rx="3" ry="3" style="stroke: #038048; stroke-width: 1.0;"/><text fill="#000000" font-family="sans-serif" font-size="11" lengthAdjust="spacingAndGlyphs" textLength="233" x="1114.5" y="625.2104">control_vehicle(const Trajectory &amp;) : void</text><line style="stroke: #A80036; stroke-width: 1.5;" x1="1095.5" x2="1352.5" y1="631.8047" y2="631.8047"/><!--class C_0000978161556763682069--><rect fill="#FEFECE" filter="url(#f1k6uqpscyp30t)" height="120.0234" id="C_0000978161556763682069" style="stroke: #A80036; stroke-width: 1.5;" width="720" x="155" y="8"/><ellipse cx="467.25" cy="24" fill="#ADD1B2" rx="11" ry="11" style="stroke: #A80036; stroke-width: 1.0;"/><path d="M470.2188,29.6406 Q469.6406,29.9375 469,30.0781 Q468.3594,30.2344 467.6563,30.2344 Q465.1563,30.2344 463.8281,28.5938 Q462.5156,26.9375 462.5156,23.8125 Q462.5156,20.6875 463.8281,19.0313 Q465.1563,17.375 467.6563,17.375 Q468.3594,17.375 469,17.5313 Q469.6563,17.6875 470.2188,17.9844 L470.2188,20.7031 Q469.5938,20.125 469,19.8594 Q468.4063,19.5781 467.7813,19.5781 Q466.4375,19.5781 465.75,20.6563 Q465.0625,21.7188 465.0625,23.8125 Q465.0625,25.9063 465.75,26.9844 Q466.4375,28.0469 467.7813,28.0469 Q468.4063,28.0469 469,27.7813 Q469.5938,27.5 470.2188,26.9219 L470.2188,29.6406 Z "/><text fill="#000000" font-family="sans-serif" font-size="12" lengthAdjust="spacingAndGlyphs" textLength="87" x="487.75" y="28.1543">DrivingSystem</text><line style="stroke: #A80036; stroke-width: 1.5;" x1="156" x2="874" y1="40" y2="40"/><ellipse cx="166" cy="51.9023" fill="#84BE84" rx="3" ry="3" style="stroke: #038048; stroke-width: 1.0;"/><text fill="#000000" font-family="sans-serif" font-size="11" lengthAdjust="spacingAndGlyphs" textLength="694" x="175" y="54.2104">DrivingSystem(std::shared_ptr&lt;Sensor&gt; sensor, std::shared_ptr&lt;Planner&gt; planner, DrivingSystem::Actors actors) : void</text><line style="stroke: #A80036; stroke-width: 1.0; stroke-dasharray: 1.0,2.0;" x1="156" x2="874" y1="60.8047" y2="60.8047"/><ellipse cx="166" cy="72.707" fill="#84BE84" rx="3" ry="3" style="stroke: #038048; stroke-width: 1.0;"/><text fill="#000000" font-family="sans-serif" font-size="11" lengthAdjust="spacingAndGlyphs" textLength="98" x="175" y="75.0151">one_cycle() : void</text><line style="stroke: #A80036; stroke-width: 1.5;" x1="156" x2="874" y1="81.6094" y2="81.6094"/><rect fill="none" height="6" style="stroke: #C82930; stroke-width: 1.0;" width="6" x="163" y="90.5117"/><text fill="#000000" font-family="sans-serif" font-size="11" lengthAdjust="spacingAndGlyphs" textLength="174" x="175" y="95.8198">actors : DrivingSystem::Actors</text><rect fill="none" height="6" style="stroke: #C82930; stroke-width: 1.0;" width="6" x="163" y="103.3164"/><text fill="#000000" font-family="sans-serif" font-size="11" lengthAdjust="spacingAndGlyphs" textLength="204" x="175" y="108.6245">planner : std::shared_ptr&lt;Planner&gt;</text><rect fill="none" height="6" style="stroke: #C82930; stroke-width: 1.0;" width="6" x="163" y="116.1211"/><text fill="#000000" font-family="sans-serif" font-size="11" lengthAdjust="spacingAndGlyphs" textLength="199" x="175" y="121.4292">sensor : std::shared_ptr&lt;Sensor&gt;</text><!--link C_0000885653978909508775 to C_0001816244285415343406--><path d="M137,253.24 C137,269.11 137,290.43 137,308.36 " fill="none" id="C_0000885653978909508775-C_0001816244285415343406" style="stroke: #A80036; stroke-width: 1.0; stroke-dasharray: 7.0,7.0;"/><polygon fill="#A80036" points="137,313.81,141,304.81,137,308.81,133,304.81,137,313.81" style="stroke: #A80036; stroke-width: 1.0;"/><!--link C_0000517477364643921331 to C_0000077851926960506546--><path d="M585.25,253.24 C568.47,269.66 545.73,291.9 527.03,310.2 " fill="none" id="C_0000517477364643921331-C_0000077851926960506546" style="stroke: #A80036; stroke-width: 1.0; stroke-dasharray: 7.0,7.0;"/><polygon fill="#A80036" points="523.35,313.81,532.5776,310.3675,526.9211,310.3104,526.9782,304.6538,523.35,313.81" style="stroke: #A80036; stroke-width: 1.0;"/><!--link C_0001908735947263318269 to C_0001243971194173295032--><path d="M930,368.53 C930,385.66 930,409.6 930,430.54 " fill="none" id="C_0001908735947263318269-C_0001243971194173295032" style="stroke: #A80036; stroke-width: 1.0; stroke-dasharray: 7.0,7.0;"/><polygon fill="#A80036" points="930,435.79,934,426.79,930,430.79,926,426.79,930,435.79" style="stroke: #A80036; stroke-width: 1.0;"/><!--link C_0001842507930156265638 to C_0001908735947263318269--><path d="M930,253.24 C930,271.15 930,295.98 930,315.07 " fill="none" id="C_0001842507930156265638-C_0001908735947263318269" style="stroke: #A80036; stroke-width: 1.0; stroke-dasharray: 7.0,7.0;"/><polygon fill="#A80036" points="930,320.29,934,311.29,930,315.29,926,311.29,930,320.29" style="stroke: #A80036; stroke-width: 1.0;"/><!--link C_0001816244285415343406 to C_0000723521372703994295--><path d="M169.22,375.11 C193.36,397.29 226.11,427.4 249.55,448.94 " fill="none" id="C_0001816244285415343406-C_0000723521372703994295" style="stroke: #A80036; stroke-width: 1.0; stroke-dasharray: 7.0,7.0;"/><polygon fill="#A80036" points="253.52,452.58,249.579,443.554,249.8307,449.2053,244.1794,449.4569,253.52,452.58" style="stroke: #A80036; stroke-width: 1.0;"/><!--link C_0000077851926960506546 to C_0000723521372703994295--><path d="M444.44,375.11 C407.5,397.64 357.15,428.34 321.73,449.94 " fill="none" id="C_0000077851926960506546-C_0000723521372703994295" style="stroke: #A80036; stroke-width: 1.0; stroke-dasharray: 7.0,7.0;"/><polygon fill="#A80036" points="317.06,452.79,326.8225,451.4889,321.3207,450.1735,322.6361,444.6717,317.06,452.79" style="stroke: #A80036; stroke-width: 1.0;"/><!--link C_0000077851926960506546 to C_0000740826215814649639--><path d="M481.44,375.06 C460.84,433.19 425.6,563.38 489,640 C537.8,698.98 771.36,716.9 877.41,722.05 " fill="none" id="C_0000077851926960506546-C_0000740826215814649639" style="stroke: #A80036; stroke-width: 1.0; stroke-dasharray: 7.0,7.0;"/><polygon fill="#A80036" points="882.67,722.3,873.8753,717.8669,877.6759,722.0567,873.486,725.8574,882.67,722.3" style="stroke: #A80036; stroke-width: 1.0;"/><!--link C_0001243971194173295032 to C_0000740826215814649639--><path d="M1072.27,484.13 C1232.62,496.26 1460.05,532.39 1371,640 C1322.2,698.98 1088.64,716.9 982.59,722.05 " fill="none" id="C_0001243971194173295032-C_0000740826215814649639" style="stroke: #A80036; stroke-width: 1.0; stroke-dasharray: 7.0,7.0;"/><polygon fill="#A80036" points="977.33,722.3,986.514,725.8574,982.3241,722.0567,986.1247,717.8669,977.33,722.3" style="stroke: #A80036; stroke-width: 1.0;"/><!--link C_0001971792373968053805 to C_0000740826215814649639--><path d="M712.48,640.02 C764.52,660.11 832.01,686.17 877.92,703.89 " fill="none" id="C_0001971792373968053805-C_0000740826215814649639" style="stroke: #A80036; stroke-width: 1.0; stroke-dasharray: 7.0,7.0;"/><polygon fill="#A80036" points="882.85,705.8,875.8901,698.8315,878.1844,704.0022,873.0137,706.2965,882.85,705.8" style="stroke: #A80036; stroke-width: 1.0;"/><!--link C_0001243971194173295032 to C_0001971792373968053805--><path d="M821.25,526.27 C781.48,543.92 737.7,563.36 702.68,578.9 " fill="none" id="C_0001243971194173295032-C_0001971792373968053805" style="stroke: #A80036; stroke-width: 1.0;"/><polygon fill="none" points="818.67,519.76,839.79,518.04,824.35,532.55,818.67,519.76" style="stroke: #A80036; stroke-width: 1.0;"/><!--link C_0001143070539853614602 to C_0000740826215814649639--><path d="M930,640.02 C930,657.17 930,678.65 930,695.6 " fill="none" id="C_0001143070539853614602-C_0000740826215814649639" style="stroke: #A80036; stroke-width: 1.0; stroke-dasharray: 7.0,7.0;"/><polygon fill="#A80036" points="930,700.71,934,691.71,930,695.71,926,691.71,930,700.71" style="stroke: #A80036; stroke-width: 1.0;"/><!--link C_0001243971194173295032 to C_0001143070539853614602--><path d="M930,538.37 C930,552.49 930,566.91 930,578.98 " fill="none" id="C_0001243971194173295032-C_0001143070539853614602" style="stroke: #A80036; stroke-width: 1.0;"/><polygon fill="none" points="923,538.22,930,518.22,937,538.22,923,538.22" style="stroke: #A80036; stroke-width: 1.0;"/><!--link C_0000346611438033482912 to C_0000740826215814649639--><path d="M1147.52,640.02 C1095.48,660.11 1027.99,686.17 982.08,703.89 " fill="none" id="C_0000346611438033482912-C_0000740826215814649639" style="stroke: #A80036; stroke-width: 1.0; stroke-dasharray: 7.0,7.0;"/><polygon fill="#A80036" points="977.15,705.8,986.9863,706.2965,981.8156,704.0022,984.1099,698.8315,977.15,705.8" style="stroke: #A80036; stroke-width: 1.0;"/><!--link C_0001243971194173295032 to C_0000346611438033482912--><path d="M1038.75,526.27 C1078.52,543.92 1122.3,563.36 1157.32,578.9 " fill="none" id="C_0001243971194173295032-C_0000346611438033482912" style="stroke: #A80036; stroke-width: 1.0;"/><polygon fill="none" points="1035.65,532.55,1020.21,518.04,1041.33,519.76,1035.65,532.55" style="stroke: #A80036; stroke-width: 1.0;"/><!--link C_0000978161556763682069 to C_0001243971194173295032--><path d="M618.44,128.04 C651.69,149.78 687.31,176.19 716,205 C780.19,269.46 772.41,304.58 830,375 C846.12,394.71 865.5,414.94 882.88,432.07 " fill="none" id="C_0000978161556763682069-C_0001243971194173295032" style="stroke: #A80036; stroke-width: 1.0; stroke-dasharray: 7.0,7.0;"/><polygon fill="#A80036" points="886.79,435.9,883.1618,426.7438,883.2189,432.4004,877.5624,432.4575,886.79,435.9" style="stroke: #A80036; stroke-width: 1.0;"/><!--link C_0000978161556763682069 to C_0001816244285415343406--><path d="M433.45,128.22 C356.51,184.1 244,265.8 182.06,310.78 " fill="none" id="C_0000978161556763682069-C_0001816244285415343406" style="stroke: #A80036; stroke-width: 1.0;"/><polygon fill="#A80036" points="177.69,313.95,187.3252,311.9096,181.7392,311.0168,182.6321,305.4309,177.69,313.95" style="stroke: #A80036; stroke-width: 1.0;"/><rect fill="none" height="6" style="stroke: #C82930; stroke-width: 1.0;" width="6" x="331" y="226.5664"/><text fill="#000000" font-family="sans-serif" font-size="13" lengthAdjust="spacingAndGlyphs" textLength="43" x="341" y="233.5669">sensor</text><!--link C_0000978161556763682069 to C_0000885653978909508775--><path d="M274.93,128 C253.08,136.77 231.76,146.73 212,158 C192.48,169.13 173.99,186.29 160.25,200.83 " fill="none" id="C_0000978161556763682069-C_0000885653978909508775" style="stroke: #A80036; stroke-width: 1.0;"/><polygon fill="#A80036" points="156.51,204.85,165.5756,201.001,159.9221,201.1952,159.7279,195.5417,156.51,204.85" style="stroke: #A80036; stroke-width: 1.0;"/><rect fill="none" height="6" style="stroke: #C82930; stroke-width: 1.0;" width="6" x="215" y="164.0664"/><text fill="#000000" font-family="sans-serif" font-size="13" lengthAdjust="spacingAndGlyphs" textLength="43" x="225" y="171.0669">sensor</text><!--link C_0000978161556763682069 to C_0000077851926960506546--><path d="M473.87,128.18 C460.29,151.1 446.89,178.24 440,205 C434.68,225.66 434.41,232.41 440,253 C445.45,273.08 456.59,293.26 467.26,309.46 " fill="none" id="C_0000978161556763682069-C_0000077851926960506546" style="stroke: #A80036; stroke-width: 1.0;"/><polygon fill="#A80036" points="470.25,313.92,468.5628,304.2167,467.4666,309.7663,461.917,308.6701,470.25,313.92" style="stroke: #A80036; stroke-width: 1.0;"/><rect fill="none" height="6" style="stroke: #C82930; stroke-width: 1.0;" width="6" x="443" y="226.5664"/><text fill="#000000" font-family="sans-serif" font-size="13" lengthAdjust="spacingAndGlyphs" textLength="48" x="453" y="233.5669">planner</text><!--link C_0000978161556763682069 to C_0000517477364643921331--><path d="M550,128.21 C564.66,153 580.98,180.61 592.74,200.49 " fill="none" id="C_0000978161556763682069-C_0000517477364643921331" style="stroke: #A80036; stroke-width: 1.0;"/><polygon fill="#A80036" points="595.32,204.86,594.1819,195.0771,592.7749,200.5562,587.2958,199.1493,595.32,204.86" style="stroke: #A80036; stroke-width: 1.0;"/><rect fill="none" height="6" style="stroke: #C82930; stroke-width: 1.0;" width="6" x="579" y="164.0664"/><text fill="#000000" font-family="sans-serif" font-size="13" lengthAdjust="spacingAndGlyphs" textLength="48" x="589" y="171.0669">planner</text><!--link C_0000978161556763682069 to C_0001842507930156265638--><path d="M710.11,132.46 C733.12,140.7 756.17,149.31 778,158 C813.9,172.29 853.52,190.63 883.31,204.95 " fill="none" id="C_0000978161556763682069-C_0001842507930156265638" style="stroke: #A80036; stroke-width: 1.0;"/><polygon fill="#FFFFFF" points="697.71,128.05,702.0275,133.8257,709.0195,132.0618,704.702,126.286,697.71,128.05" style="stroke: #A80036; stroke-width: 1.0;"/><rect fill="none" height="6" style="stroke: #C82930; stroke-width: 1.0;" width="6" x="819" y="164.0664"/><text fill="#000000" font-family="sans-serif" font-size="13" lengthAdjust="spacingAndGlyphs" textLength="40" x="829" y="171.0669">actors</text><!--
@startuml
class "std::shared_ptr<Sensor>" as C_0000885653978909508775
class C_0000885653978909508775 {
__
}
class "std::shared_ptr<Planner>" as C_0000517477364643921331
class C_0000517477364643921331 {
__
}
class "std::shared_ptr<Actor>" as C_0001908735947263318269
class C_0001908735947263318269 {
__
}
class "std::vector<std::shared_ptr<Actor>>" as C_0001842507930156265638
class C_0001842507930156265638 {
__
}
class "EnvironmentModel" as C_0000723521372703994295
class C_0000723521372703994295 {
__
}
class "Sensor" as C_0001816244285415343406
class C_0001816244285415343406 {
+model_environment() : EnvironmentModel
__
}
class "Trajectory" as C_0000740826215814649639
class C_0000740826215814649639 {
__
}
class "Planner" as C_0000077851926960506546
class C_0000077851926960506546 {
+plan_vehicle_behavior(const EnvironmentModel &) : Trajectory
__
}
abstract "Actor" as C_0001243971194173295032
abstract C_0001243971194173295032 {
+~Actor() = default : void
..
{abstract} +control_vehicle(const Trajectory &) = 0 : void
__
}
class "PowerTrain" as C_0001971792373968053805
class C_0001971792373968053805 {
+control_vehicle(const Trajectory &) : void
__
}
class "Brake" as C_0001143070539853614602
class C_0001143070539853614602 {
+control_vehicle(const Trajectory &) : void
__
}
class "SteeringWheel" as C_0000346611438033482912
class C_0000346611438033482912 {
+control_vehicle(const Trajectory &) : void
__
}
class "DrivingSystem" as C_0000978161556763682069
class C_0000978161556763682069 {
+DrivingSystem(std::shared_ptr<Sensor> sensor, std::shared_ptr<Planner> planner, DrivingSystem::Actors actors) : void
..
+one_cycle() : void
__
-actors : DrivingSystem::Actors
-planner : std::shared_ptr<Planner>
-sensor : std::shared_ptr<Sensor>
}
C_0000885653978909508775 ..> C_0001816244285415343406
C_0000517477364643921331 ..> C_0000077851926960506546
C_0001908735947263318269 ..> C_0001243971194173295032
C_0001842507930156265638 ..> C_0001908735947263318269
C_0001816244285415343406 ..> C_0000723521372703994295
C_0000077851926960506546 ..> C_0000723521372703994295
C_0000077851926960506546 ..> C_0000740826215814649639
C_0001243971194173295032 ..> C_0000740826215814649639
C_0001971792373968053805 ..> C_0000740826215814649639
C_0001243971194173295032 <|- - C_0001971792373968053805
C_0001143070539853614602 ..> C_0000740826215814649639
C_0001243971194173295032 <|- - C_0001143070539853614602
C_0000346611438033482912 ..> C_0000740826215814649639
C_0001243971194173295032 <|- - C_0000346611438033482912
C_0000978161556763682069 ..> C_0001243971194173295032
C_0000978161556763682069 - -> C_0001816244285415343406 : -sensor
C_0000978161556763682069 - -> C_0000885653978909508775 : -sensor
C_0000978161556763682069 - -> C_0000077851926960506546 : -planner
C_0000978161556763682069 - -> C_0000517477364643921331 : -planner
C_0000978161556763682069 o- - C_0001842507930156265638 : -actors

@enduml

PlantUML version 1.2018.13(Mon Nov 26 18:11:51 CET 2018)
(GPL source distribution)
Java Runtime: OpenJDK Runtime Environment
JVM: OpenJDK 64-Bit Server VM
Java Version: 11.0.21+9-post-Ubuntu-0ubuntu120.04
Operating System: Linux
OS Version: 5.15.0-91-generic
Default Encoding: UTF-8
Language: de
Country: DE
--></g></svg>