<?xml version="1.0" encoding="UTF-8" standalone="no"?><svg xmlns="http://www.w3.org/2000/svg" xmlns:xlink="http://www.w3.org/1999/xlink" contentScriptType="application/ecmascript" contentStyleType="text/css" height="520px" preserveAspectRatio="none" style="width:1069px;height:520px;" version="1.1" viewBox="0 0 1069 520" width="1069px" zoomAndPan="magnify"><defs><filter height="300%" id="f25lr5rzomytw" width="300%" x="-1" y="-1"><feGaussianBlur result="blurOut" stdDeviation="2.0"/><feColorMatrix in="blurOut" result="blurOut2" type="matrix" values="0 0 0 0 0 0 0 0 0 0 0 0 0 0 0 0 0 0 .4 0"/><feOffset dx="4.0" dy="4.0" in="blurOut2" result="blurOut3"/><feBlend in="SourceGraphic" in2="blurOut3" mode="normal"/></filter></defs><g><!--class C_0000885653978909508775--><rect fill="#FEFECE" filter="url(#f25lr5rzomytw)" height="48" id="C_0000885653978909508775" style="stroke: #A80036; stroke-width: 1.5;" width="175" x="6" y="205"/><ellipse cx="21" cy="221" fill="#ADD1B2" rx="11" ry="11" style="stroke: #A80036; stroke-width: 1.0;"/><path d="M23.9688,226.6406 Q23.3906,226.9375 22.75,227.0781 Q22.1094,227.2344 21.4063,227.2344 Q18.9063,227.2344 17.5781,225.5938 Q16.2656,223.9375 16.2656,220.8125 Q16.2656,217.6875 17.5781,216.0313 Q18.9063,214.375 21.4063,214.375 Q22.1094,214.375 22.75,214.5313 Q23.4063,214.6875 23.9688,214.9844 L23.9688,217.7031 Q23.3438,217.125 22.75,216.8594 Q22.1563,216.5781 21.5313,216.5781 Q20.1875,216.5781 19.5,217.6563 Q18.8125,218.7188 18.8125,220.8125 Q18.8125,222.9063 19.5,223.9844 Q20.1875,225.0469 21.5313,225.0469 Q22.1563,225.0469 22.75,224.7813 Q23.3438,224.5 23.9688,223.9219 L23.9688,226.6406 Z "/><text fill="#000000" font-family="sans-serif" font-size="12" lengthAdjust="spacingAndGlyphs" textLength="96" x="35" y="225.1543">std::shared_ptr</text><rect fill="#FFFFFF" height="15.9688" style="stroke: #000000; stroke-width: 1.0; stroke-dasharray: 2.0,2.0;" width="45" x="139" y="202"/><text fill="#000000" font-family="sans-serif" font-size="12" font-style="italic" lengthAdjust="spacingAndGlyphs" textLength="43" x="140" y="214.1387">Sensor</text><line style="stroke: #A80036; stroke-width: 1.5;" x1="7" x2="180" y1="237" y2="237"/><line style="stroke: #A80036; stroke-width: 1.5;" x1="7" x2="180" y1="245" y2="245"/><!--class C_0000517477364643921331--><rect fill="#FEFECE" filter="url(#f25lr5rzomytw)" height="48" id="C_0000517477364643921331" style="stroke: #A80036; stroke-width: 1.5;" width="179" x="476" y="205"/><ellipse cx="491" cy="221" fill="#ADD1B2" rx="11" ry="11" style="stroke: #A80036; stroke-width: 1.0;"/><path d="M493.9688,226.6406 Q493.3906,226.9375 492.75,227.0781 Q492.1094,227.2344 491.4063,227.2344 Q488.9063,227.2344 487.5781,225.5938 Q486.2656,223.9375 486.2656,220.8125 Q486.2656,217.6875 487.5781,216.0313 Q488.9063,214.375 491.4063,214.375 Q492.1094,214.375 492.75,214.5313 Q493.4063,214.6875 493.9688,214.9844 L493.9688,217.7031 Q493.3438,217.125 492.75,216.8594 Q492.1563,216.5781 491.5313,216.5781 Q490.1875,216.5781 489.5,217.6563 Q488.8125,218.7188 488.8125,220.8125 Q488.8125,222.9063 489.5,223.9844 Q490.1875,225.0469 491.5313,225.0469 Q492.1563,225.0469 492.75,224.7813 Q493.3438,224.5 493.9688,223.9219 L493.9688,226.6406 Z "/><text fill="#000000" font-family="sans-serif" font-size="12" lengthAdjust="spacingAndGlyphs" textLength="96" x="505" y="225.1543">std::shared_ptr</text><rect fill="#FFFFFF" height="15.9688" style="stroke: #000000; stroke-width: 1.0; stroke-dasharray: 2.0,2.0;" width="49" x="609" y="202"/><text fill="#000000" font-family="sans-serif" font-size="12" font-style="italic" lengthAdjust="spacingAndGlyphs" textLength="47" x="610" y="214.1387">Planner</text><line style="stroke: #A80036; stroke-width: 1.5;" x1="477" x2="654" y1="237" y2="237"/><line style="stroke: #A80036; stroke-width: 1.5;" x1="477" x2="654" y1="245" y2="245"/><!--class C_0001637648692004357059--><rect fill="#FEFECE" filter="url(#f25lr5rzomytw)" height="48" id="C_0001637648692004357059" style="stroke: #A80036; stroke-width: 1.5;" width="171" x="690" y="205"/><ellipse cx="705" cy="221" fill="#ADD1B2" rx="11" ry="11" style="stroke: #A80036; stroke-width: 1.0;"/><path d="M707.9688,226.6406 Q707.3906,226.9375 706.75,227.0781 Q706.1094,227.2344 705.4063,227.2344 Q702.9063,227.2344 701.5781,225.5938 Q700.2656,223.9375 700.2656,220.8125 Q700.2656,217.6875 701.5781,216.0313 Q702.9063,214.375 705.4063,214.375 Q706.1094,214.375 706.75,214.5313 Q707.4063,214.6875 707.9688,214.9844 L707.9688,217.7031 Q707.3438,217.125 706.75,216.8594 Q706.1563,216.5781 705.5313,216.5781 Q704.1875,216.5781 703.5,217.6563 Q702.8125,218.7188 702.8125,220.8125 Q702.8125,222.9063 703.5,223.9844 Q704.1875,225.0469 705.5313,225.0469 Q706.1563,225.0469 706.75,224.7813 Q707.3438,224.5 707.9688,223.9219 L707.9688,226.6406 Z "/><text fill="#000000" font-family="sans-serif" font-size="12" lengthAdjust="spacingAndGlyphs" textLength="96" x="719" y="225.1543">std::shared_ptr</text><rect fill="#FFFFFF" height="15.9688" style="stroke: #000000; stroke-width: 1.0; stroke-dasharray: 2.0,2.0;" width="41" x="823" y="202"/><text fill="#000000" font-family="sans-serif" font-size="12" font-style="italic" lengthAdjust="spacingAndGlyphs" textLength="39" x="824" y="214.1387">Actors</text><line style="stroke: #A80036; stroke-width: 1.5;" x1="691" x2="860" y1="237" y2="237"/><line style="stroke: #A80036; stroke-width: 1.5;" x1="691" x2="860" y1="245" y2="245"/><!--class C_0000723521372703994295--><rect fill="#FEFECE" filter="url(#f25lr5rzomytw)" height="48" id="C_0000723521372703994295" style="stroke: #A80036; stroke-width: 1.5;" width="147" x="329" y="461"/><ellipse cx="344" cy="477" fill="#ADD1B2" rx="11" ry="11" style="stroke: #A80036; stroke-width: 1.0;"/><path d="M346.9688,482.6406 Q346.3906,482.9375 345.75,483.0781 Q345.1094,483.2344 344.4063,483.2344 Q341.9063,483.2344 340.5781,481.5938 Q339.2656,479.9375 339.2656,476.8125 Q339.2656,473.6875 340.5781,472.0313 Q341.9063,470.375 344.4063,470.375 Q345.1094,470.375 345.75,470.5313 Q346.4063,470.6875 346.9688,470.9844 L346.9688,473.7031 Q346.3438,473.125 345.75,472.8594 Q345.1563,472.5781 344.5313,472.5781 Q343.1875,472.5781 342.5,473.6563 Q341.8125,474.7188 341.8125,476.8125 Q341.8125,478.9063 342.5,479.9844 Q343.1875,481.0469 344.5313,481.0469 Q345.1563,481.0469 345.75,480.7813 Q346.3438,480.5 346.9688,479.9219 L346.9688,482.6406 Z "/><text fill="#000000" font-family="sans-serif" font-size="12" lengthAdjust="spacingAndGlyphs" textLength="115" x="358" y="481.1543">EnvironmentModel</text><line style="stroke: #A80036; stroke-width: 1.5;" x1="330" x2="475" y1="493" y2="493"/><line style="stroke: #A80036; stroke-width: 1.5;" x1="330" x2="475" y1="501" y2="501"/><!--class C_0001816244285415343406--><rect fill="#FEFECE" filter="url(#f25lr5rzomytw)" height="60.8047" id="C_0001816244285415343406" style="stroke: #A80036; stroke-width: 1.5;" width="262" x="40.5" y="326.5"/><ellipse cx="145.25" cy="342.5" fill="#ADD1B2" rx="11" ry="11" style="stroke: #A80036; stroke-width: 1.0;"/><path d="M148.2188,348.1406 Q147.6406,348.4375 147,348.5781 Q146.3594,348.7344 145.6563,348.7344 Q143.1563,348.7344 141.8281,347.0938 Q140.5156,345.4375 140.5156,342.3125 Q140.5156,339.1875 141.8281,337.5313 Q143.1563,335.875 145.6563,335.875 Q146.3594,335.875 147,336.0313 Q147.6563,336.1875 148.2188,336.4844 L148.2188,339.2031 Q147.5938,338.625 147,338.3594 Q146.4063,338.0781 145.7813,338.0781 Q144.4375,338.0781 143.75,339.1563 Q143.0625,340.2188 143.0625,342.3125 Q143.0625,344.4063 143.75,345.4844 Q144.4375,346.5469 145.7813,346.5469 Q146.4063,346.5469 147,346.2813 Q147.5938,346 148.2188,345.4219 L148.2188,348.1406 Z "/><text fill="#000000" font-family="sans-serif" font-size="12" lengthAdjust="spacingAndGlyphs" textLength="44" x="165.75" y="346.6543">Sensor</text><line style="stroke: #A80036; stroke-width: 1.5;" x1="41.5" x2="301.5" y1="358.5" y2="358.5"/><ellipse cx="51.5" cy="370.4023" fill="#84BE84" rx="3" ry="3" style="stroke: #038048; stroke-width: 1.0;"/><text fill="#000000" font-family="sans-serif" font-size="11" lengthAdjust="spacingAndGlyphs" textLength="236" x="60.5" y="372.7104">model_environment() : EnvironmentModel</text><line style="stroke: #A80036; stroke-width: 1.5;" x1="41.5" x2="301.5" y1="379.3047" y2="379.3047"/><!--class C_0000740826215814649639--><rect fill="#FEFECE" filter="url(#f25lr5rzomytw)" height="48" id="C_0000740826215814649639" style="stroke: #A80036; stroke-width: 1.5;" width="94" x="571.5" y="461"/><ellipse cx="586.5" cy="477" fill="#ADD1B2" rx="11" ry="11" style="stroke: #A80036; stroke-width: 1.0;"/><path d="M589.4688,482.6406 Q588.8906,482.9375 588.25,483.0781 Q587.6094,483.2344 586.9063,483.2344 Q584.4063,483.2344 583.0781,481.5938 Q581.7656,479.9375 581.7656,476.8125 Q581.7656,473.6875 583.0781,472.0313 Q584.4063,470.375 586.9063,470.375 Q587.6094,470.375 588.25,470.5313 Q588.9063,470.6875 589.4688,470.9844 L589.4688,473.7031 Q588.8438,473.125 588.25,472.8594 Q587.6563,472.5781 587.0313,472.5781 Q585.6875,472.5781 585,473.6563 Q584.3125,474.7188 584.3125,476.8125 Q584.3125,478.9063 585,479.9844 Q585.6875,481.0469 587.0313,481.0469 Q587.6563,481.0469 588.25,480.7813 Q588.8438,480.5 589.4688,479.9219 L589.4688,482.6406 Z "/><text fill="#000000" font-family="sans-serif" font-size="12" lengthAdjust="spacingAndGlyphs" textLength="62" x="600.5" y="481.1543">Trajectory</text><line style="stroke: #A80036; stroke-width: 1.5;" x1="572.5" x2="664.5" y1="493" y2="493"/><line style="stroke: #A80036; stroke-width: 1.5;" x1="572.5" x2="664.5" y1="501" y2="501"/><!--class C_0000077851926960506546--><rect fill="#FEFECE" filter="url(#f25lr5rzomytw)" height="60.8047" id="C_0000077851926960506546" style="stroke: #A80036; stroke-width: 1.5;" width="380" x="337.5" y="326.5"/><ellipse cx="499.25" cy="342.5" fill="#ADD1B2" rx="11" ry="11" style="stroke: #A80036; stroke-width: 1.0;"/><path d="M502.2188,348.1406 Q501.6406,348.4375 501,348.5781 Q500.3594,348.7344 499.6563,348.7344 Q497.1563,348.7344 495.8281,347.0938 Q494.5156,345.4375 494.5156,342.3125 Q494.5156,339.1875 495.8281,337.5313 Q497.1563,335.875 499.6563,335.875 Q500.3594,335.875 501,336.0313 Q501.6563,336.1875 502.2188,336.4844 L502.2188,339.2031 Q501.5938,338.625 501,338.3594 Q500.4063,338.0781 499.7813,338.0781 Q498.4375,338.0781 497.75,339.1563 Q497.0625,340.2188 497.0625,342.3125 Q497.0625,344.4063 497.75,345.4844 Q498.4375,346.5469 499.7813,346.5469 Q500.4063,346.5469 501,346.2813 Q501.5938,346 502.2188,345.4219 L502.2188,348.1406 Z "/><text fill="#000000" font-family="sans-serif" font-size="12" lengthAdjust="spacingAndGlyphs" textLength="48" x="519.75" y="346.6543">Planner</text><line style="stroke: #A80036; stroke-width: 1.5;" x1="338.5" x2="716.5" y1="358.5" y2="358.5"/><ellipse cx="348.5" cy="370.4023" fill="#84BE84" rx="3" ry="3" style="stroke: #038048; stroke-width: 1.0;"/><text fill="#000000" font-family="sans-serif" font-size="11" lengthAdjust="spacingAndGlyphs" textLength="354" x="357.5" y="372.7104">plan_vehicle_behavior(const EnvironmentModel &amp;) : Trajectory</text><line style="stroke: #A80036; stroke-width: 1.5;" x1="338.5" x2="716.5" y1="379.3047" y2="379.3047"/><!--class C_0000576256005287928873--><rect fill="#FEFECE" filter="url(#f25lr5rzomytw)" height="86.4141" id="C_0000576256005287928873" style="stroke: #A80036; stroke-width: 1.5;" width="306" x="752.5" y="314"/><ellipse cx="881.25" cy="330" fill="#ADD1B2" rx="11" ry="11" style="stroke: #A80036; stroke-width: 1.0;"/><path d="M884.2188,335.6406 Q883.6406,335.9375 883,336.0781 Q882.3594,336.2344 881.6563,336.2344 Q879.1563,336.2344 877.8281,334.5938 Q876.5156,332.9375 876.5156,329.8125 Q876.5156,326.6875 877.8281,325.0313 Q879.1563,323.375 881.6563,323.375 Q882.3594,323.375 883,323.5313 Q883.6563,323.6875 884.2188,323.9844 L884.2188,326.7031 Q883.5938,326.125 883,325.8594 Q882.4063,325.5781 881.7813,325.5781 Q880.4375,325.5781 879.75,326.6563 Q879.0625,327.7188 879.0625,329.8125 Q879.0625,331.9063 879.75,332.9844 Q880.4375,334.0469 881.7813,334.0469 Q882.4063,334.0469 883,333.7813 Q883.5938,333.5 884.2188,332.9219 L884.2188,335.6406 Z "/><text fill="#000000" font-family="sans-serif" font-size="12" lengthAdjust="spacingAndGlyphs" textLength="40" x="901.75" y="334.1543">Actors</text><line style="stroke: #A80036; stroke-width: 1.5;" x1="753.5" x2="1057.5" y1="346" y2="346"/><ellipse cx="763.5" cy="357.9023" fill="#84BE84" rx="3" ry="3" style="stroke: #038048; stroke-width: 1.0;"/><text fill="#000000" font-family="sans-serif" font-size="11" lengthAdjust="spacingAndGlyphs" textLength="226" x="772.5" y="360.2104">control_brake(const Trajectory &amp;) : void</text><ellipse cx="763.5" cy="370.707" fill="#84BE84" rx="3" ry="3" style="stroke: #038048; stroke-width: 1.0;"/><text fill="#000000" font-family="sans-serif" font-size="11" lengthAdjust="spacingAndGlyphs" textLength="261" x="772.5" y="373.0151">control_power_train(const Trajectory &amp;) : void</text><ellipse cx="763.5" cy="383.5117" fill="#84BE84" rx="3" ry="3" style="stroke: #038048; stroke-width: 1.0;"/><text fill="#000000" font-family="sans-serif" font-size="11" lengthAdjust="spacingAndGlyphs" textLength="280" x="772.5" y="385.8198">control_steering_wheel(const Trajectory &amp;) : void</text><line style="stroke: #A80036; stroke-width: 1.5;" x1="753.5" x2="1057.5" y1="392.4141" y2="392.4141"/><!--class C_0000978161556763682069--><rect fill="#FEFECE" filter="url(#f25lr5rzomytw)" height="120.0234" id="C_0000978161556763682069" style="stroke: #A80036; stroke-width: 1.5;" width="736" x="103.5" y="8"/><ellipse cx="423.75" cy="24" fill="#ADD1B2" rx="11" ry="11" style="stroke: #A80036; stroke-width: 1.0;"/><path d="M426.7188,29.6406 Q426.1406,29.9375 425.5,30.0781 Q424.8594,30.2344 424.1563,30.2344 Q421.6563,30.2344 420.3281,28.5938 Q419.0156,26.9375 419.0156,23.8125 Q419.0156,20.6875 420.3281,19.0313 Q421.6563,17.375 424.1563,17.375 Q424.8594,17.375 425.5,17.5313 Q426.1563,17.6875 426.7188,17.9844 L426.7188,20.7031 Q426.0938,20.125 425.5,19.8594 Q424.9063,19.5781 424.2813,19.5781 Q422.9375,19.5781 422.25,20.6563 Q421.5625,21.7188 421.5625,23.8125 Q421.5625,25.9063 422.25,26.9844 Q422.9375,28.0469 424.2813,28.0469 Q424.9063,28.0469 425.5,27.7813 Q426.0938,27.5 426.7188,26.9219 L426.7188,29.6406 Z "/><text fill="#000000" font-family="sans-serif" font-size="12" lengthAdjust="spacingAndGlyphs" textLength="87" x="444.25" y="28.1543">DrivingSystem</text><line style="stroke: #A80036; stroke-width: 1.5;" x1="104.5" x2="838.5" y1="40" y2="40"/><ellipse cx="114.5" cy="51.9023" fill="#84BE84" rx="3" ry="3" style="stroke: #038048; stroke-width: 1.0;"/><text fill="#000000" font-family="sans-serif" font-size="11" lengthAdjust="spacingAndGlyphs" textLength="710" x="123.5" y="54.2104">DrivingSystem(std::shared_ptr&lt;Sensor&gt; sensor, std::shared_ptr&lt;Planner&gt; planner, std::shared_ptr&lt;Actors&gt; actors) : void</text><line style="stroke: #A80036; stroke-width: 1.0; stroke-dasharray: 1.0,2.0;" x1="104.5" x2="838.5" y1="60.8047" y2="60.8047"/><ellipse cx="114.5" cy="72.707" fill="#84BE84" rx="3" ry="3" style="stroke: #038048; stroke-width: 1.0;"/><text fill="#000000" font-family="sans-serif" font-size="11" lengthAdjust="spacingAndGlyphs" textLength="98" x="123.5" y="75.0151">one_cycle() : void</text><line style="stroke: #A80036; stroke-width: 1.5;" x1="104.5" x2="838.5" y1="81.6094" y2="81.6094"/><rect fill="none" height="6" style="stroke: #C82930; stroke-width: 1.0;" width="6" x="111.5" y="90.5117"/><text fill="#000000" font-family="sans-serif" font-size="11" lengthAdjust="spacingAndGlyphs" textLength="190" x="123.5" y="95.8198">actors : std::shared_ptr&lt;Actors&gt;</text><rect fill="none" height="6" style="stroke: #C82930; stroke-width: 1.0;" width="6" x="111.5" y="103.3164"/><text fill="#000000" font-family="sans-serif" font-size="11" lengthAdjust="spacingAndGlyphs" textLength="204" x="123.5" y="108.6245">planner : std::shared_ptr&lt;Planner&gt;</text><rect fill="none" height="6" style="stroke: #C82930; stroke-width: 1.0;" width="6" x="111.5" y="116.1211"/><text fill="#000000" font-family="sans-serif" font-size="11" lengthAdjust="spacingAndGlyphs" textLength="199" x="123.5" y="121.4292">sensor : std::shared_ptr&lt;Sensor&gt;</text><!--link C_0000885653978909508775 to C_0001816244285415343406--><path d="M107.81,253.11 C119.76,272.43 136.98,300.24 150.5,322.08 " fill="none" id="C_0000885653978909508775-C_0001816244285415343406" style="stroke: #A80036; stroke-width: 1.0; stroke-dasharray: 7.0,7.0;"/><polygon fill="#A80036" points="153.15,326.36,151.8252,316.6007,150.5231,322.1056,145.0182,320.8036,153.15,326.36" style="stroke: #A80036; stroke-width: 1.0;"/><!--link C_0000517477364643921331 to C_0000077851926960506546--><path d="M558.53,253.11 C552.75,272.26 544.46,299.78 537.89,321.53 " fill="none" id="C_0000517477364643921331-C_0000077851926960506546" style="stroke: #A80036; stroke-width: 1.0; stroke-dasharray: 7.0,7.0;"/><polygon fill="#A80036" points="536.44,326.36,542.8677,318.8977,537.8833,321.5728,535.2082,316.5885,536.44,326.36" style="stroke: #A80036; stroke-width: 1.0;"/><!--link C_0001637648692004357059 to C_0000576256005287928873--><path d="M799.34,253.11 C815.77,269.03 838.15,290.72 858.12,310.08 " fill="none" id="C_0001637648692004357059-C_0000576256005287928873" style="stroke: #A80036; stroke-width: 1.0; stroke-dasharray: 7.0,7.0;"/><polygon fill="#A80036" points="862.08,313.92,858.3779,304.7934,858.4808,310.4493,852.8249,310.5522,862.08,313.92" style="stroke: #A80036; stroke-width: 1.0;"/><!--link C_0001816244285415343406 to C_0000723521372703994295--><path d="M225.66,387.54 C265.13,409.07 318.06,437.94 355.7,458.47 " fill="none" id="C_0001816244285415343406-C_0000723521372703994295" style="stroke: #A80036; stroke-width: 1.0; stroke-dasharray: 7.0,7.0;"/><polygon fill="#A80036" points="360.21,460.93,354.2243,453.1087,355.8205,458.5357,350.3935,460.1319,360.21,460.93" style="stroke: #A80036; stroke-width: 1.0;"/><!--link C_0000077851926960506546 to C_0000723521372703994295--><path d="M498.19,387.54 C477.27,408.63 449.35,436.77 429.08,457.21 " fill="none" id="C_0000077851926960506546-C_0000723521372703994295" style="stroke: #A80036; stroke-width: 1.0; stroke-dasharray: 7.0,7.0;"/><polygon fill="#A80036" points="425.38,460.93,434.5581,457.3574,428.9012,457.3802,428.8784,451.7234,425.38,460.93" style="stroke: #A80036; stroke-width: 1.0;"/><!--link C_0000077851926960506546 to C_0000740826215814649639--><path d="M548.84,387.54 C563.94,408.46 584.05,436.3 598.78,456.7 " fill="none" id="C_0000077851926960506546-C_0000740826215814649639" style="stroke: #A80036; stroke-width: 1.0; stroke-dasharray: 7.0,7.0;"/><polygon fill="#A80036" points="601.84,460.93,599.8381,451.2867,598.923,456.8691,593.3407,455.9539,601.84,460.93" style="stroke: #A80036; stroke-width: 1.0;"/><!--link C_0000576256005287928873 to C_0000740826215814649639--><path d="M809.53,400.13 C763.03,420.55 709.01,444.26 670.31,461.26 " fill="none" id="C_0000576256005287928873-C_0000740826215814649639" style="stroke: #A80036; stroke-width: 1.0; stroke-dasharray: 7.0,7.0;"/><polygon fill="#A80036" points="665.66,463.29,675.5088,463.3328,670.2378,461.2792,672.2914,456.0082,665.66,463.29" style="stroke: #A80036; stroke-width: 1.0;"/><!--link C_0000978161556763682069 to C_0001816244285415343406--><path d="M406.68,128.13 C380.93,151.85 351.14,179.54 324.5,205 C282.63,245.01 235.29,292.01 204.51,322.81 " fill="none" id="C_0000978161556763682069-C_0001816244285415343406" style="stroke: #A80036; stroke-width: 1.0;"/><polygon fill="#A80036" points="200.84,326.49,210.0324,322.9545,204.3755,322.9545,204.3755,317.2976,200.84,326.49" style="stroke: #A80036; stroke-width: 1.0;"/><rect fill="none" height="6" style="stroke: #C82930; stroke-width: 1.0;" width="6" x="327.5" y="226.5664"/><text fill="#000000" font-family="sans-serif" font-size="13" lengthAdjust="spacingAndGlyphs" textLength="43" x="337.5" y="233.5669">sensor</text><!--link C_0000978161556763682069 to C_0000885653978909508775--><path d="M231.43,128 C209.58,136.77 188.26,146.73 168.5,158 C148.98,169.13 130.49,186.29 116.75,200.83 " fill="none" id="C_0000978161556763682069-C_0000885653978909508775" style="stroke: #A80036; stroke-width: 1.0;"/><polygon fill="#A80036" points="113.01,204.85,122.0756,201.001,116.4221,201.1952,116.2279,195.5417,113.01,204.85" style="stroke: #A80036; stroke-width: 1.0;"/><rect fill="none" height="6" style="stroke: #C82930; stroke-width: 1.0;" width="6" x="171.5" y="164.0664"/><text fill="#000000" font-family="sans-serif" font-size="13" lengthAdjust="spacingAndGlyphs" textLength="43" x="181.5" y="171.0669">sensor</text><!--link C_0000978161556763682069 to C_0000077851926960506546--><path d="M421.47,128.28 C397.01,164.76 376.68,212.2 396.5,253 C410.9,282.64 438.42,306.3 464.54,323.43 " fill="none" id="C_0000978161556763682069-C_0000077851926960506546" style="stroke: #A80036; stroke-width: 1.0;"/><polygon fill="#A80036" points="469.05,326.33,463.6622,318.0855,464.8506,323.6161,459.32,324.8045,469.05,326.33" style="stroke: #A80036; stroke-width: 1.0;"/><rect fill="none" height="6" style="stroke: #C82930; stroke-width: 1.0;" width="6" x="399.5" y="226.5664"/><text fill="#000000" font-family="sans-serif" font-size="13" lengthAdjust="spacingAndGlyphs" textLength="48" x="409.5" y="233.5669">planner</text><!--link C_0000978161556763682069 to C_0000517477364643921331--><path d="M506.5,128.21 C521.16,153 537.48,180.61 549.24,200.49 " fill="none" id="C_0000978161556763682069-C_0000517477364643921331" style="stroke: #A80036; stroke-width: 1.0;"/><polygon fill="#A80036" points="551.82,204.86,550.6819,195.0771,549.2749,200.5562,543.7958,199.1493,551.82,204.86" style="stroke: #A80036; stroke-width: 1.0;"/><rect fill="none" height="6" style="stroke: #C82930; stroke-width: 1.0;" width="6" x="535.5" y="164.0664"/><text fill="#000000" font-family="sans-serif" font-size="13" lengthAdjust="spacingAndGlyphs" textLength="48" x="545.5" y="171.0669">planner</text><!--link C_0000978161556763682069 to C_0000576256005287928873--><path d="M773.57,128.06 C813.28,147.02 850,172.02 878.5,205 C902.96,233.31 908.71,276.02 908.91,308.8 " fill="none" id="C_0000978161556763682069-C_0000576256005287928873" style="stroke: #A80036; stroke-width: 1.0;"/><polygon fill="#A80036" points="908.9,313.97,912.9257,304.9815,908.9143,308.97,904.9257,304.9586,908.9,313.97" style="stroke: #A80036; stroke-width: 1.0;"/><rect fill="none" height="6" style="stroke: #C82930; stroke-width: 1.0;" width="6" x="905.5" y="226.5664"/><text fill="#000000" font-family="sans-serif" font-size="13" lengthAdjust="spacingAndGlyphs" textLength="40" x="915.5" y="233.5669">actors</text><!--link C_0000978161556763682069 to C_0001637648692004357059--><path d="M584.7,128.21 C633.69,153.83 688.44,182.47 726.68,202.47 " fill="none" id="C_0000978161556763682069-C_0001637648692004357059" style="stroke: #A80036; stroke-width: 1.0;"/><polygon fill="#A80036" points="731.27,204.86,725.1656,197.131,726.8445,202.533,721.4425,204.2119,731.27,204.86" style="stroke: #A80036; stroke-width: 1.0;"/><rect fill="none" height="6" style="stroke: #C82930; stroke-width: 1.0;" width="6" x="671.5" y="164.0664"/><text fill="#000000" font-family="sans-serif" font-size="13" lengthAdjust="spacingAndGlyphs" textLength="40" x="681.5" y="171.0669">actors</text><!--
@startuml
class "std::shared_ptr<Sensor>" as C_0000885653978909508775
class C_0000885653978909508775 {
__
}
class "std::shared_ptr<Planner>" as C_0000517477364643921331
class C_0000517477364643921331 {
__
}
class "std::shared_ptr<Actors>" as C_0001637648692004357059
class C_0001637648692004357059 {
__
}
class "EnvironmentModel" as C_0000723521372703994295
class C_0000723521372703994295 {
__
}
class "Sensor" as C_0001816244285415343406
class C_0001816244285415343406 {
+model_environment() : EnvironmentModel
__
}
class "Trajectory" as C_0000740826215814649639
class C_0000740826215814649639 {
__
}
class "Planner" as C_0000077851926960506546
class C_0000077851926960506546 {
+plan_vehicle_behavior(const EnvironmentModel &) : Trajectory
__
}
class "Actors" as C_0000576256005287928873
class C_0000576256005287928873 {
+control_brake(const Trajectory &) : void
+control_power_train(const Trajectory &) : void
+control_steering_wheel(const Trajectory &) : void
__
}
class "DrivingSystem" as C_0000978161556763682069
class C_0000978161556763682069 {
+DrivingSystem(std::shared_ptr<Sensor> sensor, std::shared_ptr<Planner> planner, std::shared_ptr<Actors> actors) : void
..
+one_cycle() : void
__
-actors : std::shared_ptr<Actors>
-planner : std::shared_ptr<Planner>
-sensor : std::shared_ptr<Sensor>
}
C_0000885653978909508775 ..> C_0001816244285415343406
C_0000517477364643921331 ..> C_0000077851926960506546
C_0001637648692004357059 ..> C_0000576256005287928873
C_0001816244285415343406 ..> C_0000723521372703994295
C_0000077851926960506546 ..> C_0000723521372703994295
C_0000077851926960506546 ..> C_0000740826215814649639
C_0000576256005287928873 ..> C_0000740826215814649639
C_0000978161556763682069 - -> C_0001816244285415343406 : -sensor
C_0000978161556763682069 - -> C_0000885653978909508775 : -sensor
C_0000978161556763682069 - -> C_0000077851926960506546 : -planner
C_0000978161556763682069 - -> C_0000517477364643921331 : -planner
C_0000978161556763682069 - -> C_0000576256005287928873 : -actors
C_0000978161556763682069 - -> C_0001637648692004357059 : -actors

@enduml

PlantUML version 1.2018.13(Mon Nov 26 18:11:51 CET 2018)
(GPL source distribution)
Java Runtime: OpenJDK Runtime Environment
JVM: OpenJDK 64-Bit Server VM
Java Version: 11.0.21+9-post-Ubuntu-0ubuntu120.04
Operating System: Linux
OS Version: 5.15.0-91-generic
Default Encoding: UTF-8
Language: de
Country: DE
--></g></svg>