<?xml version="1.0" encoding="UTF-8" standalone="no"?><svg xmlns="http://www.w3.org/2000/svg" xmlns:xlink="http://www.w3.org/1999/xlink" contentScriptType="application/ecmascript" contentStyleType="text/css" height="546px" preserveAspectRatio="none" style="width:708px;height:546px;" version="1.1" viewBox="0 0 708 546" width="708px" zoomAndPan="magnify"><defs><filter height="300%" id="f1wc9u1jx9owb6" width="300%" x="-1" y="-1"><feGaussianBlur result="blurOut" stdDeviation="2.0"/><feColorMatrix in="blurOut" result="blurOut2" type="matrix" values="0 0 0 0 0 0 0 0 0 0 0 0 0 0 0 0 0 0 .4 0"/><feOffset dx="4.0" dy="4.0" in="blurOut2" result="blurOut3"/><feBlend in="SourceGraphic" in2="blurOut3" mode="normal"/></filter></defs><g><!--class C_0000885653978909508775--><rect fill="#FEFECE" filter="url(#f1wc9u1jx9owb6)" height="48" id="C_0000885653978909508775" style="stroke: #A80036; stroke-width: 1.5;" width="175" x="155.5" y="192"/><ellipse cx="170.5" cy="208" fill="#ADD1B2" rx="11" ry="11" style="stroke: #A80036; stroke-width: 1.0;"/><path d="M173.4688,213.6406 Q172.8906,213.9375 172.25,214.0781 Q171.6094,214.2344 170.9063,214.2344 Q168.4063,214.2344 167.0781,212.5938 Q165.7656,210.9375 165.7656,207.8125 Q165.7656,204.6875 167.0781,203.0313 Q168.4063,201.375 170.9063,201.375 Q171.6094,201.375 172.25,201.5313 Q172.9063,201.6875 173.4688,201.9844 L173.4688,204.7031 Q172.8438,204.125 172.25,203.8594 Q171.6563,203.5781 171.0313,203.5781 Q169.6875,203.5781 169,204.6563 Q168.3125,205.7188 168.3125,207.8125 Q168.3125,209.9063 169,210.9844 Q169.6875,212.0469 171.0313,212.0469 Q171.6563,212.0469 172.25,211.7813 Q172.8438,211.5 173.4688,210.9219 L173.4688,213.6406 Z "/><text fill="#000000" font-family="sans-serif" font-size="12" lengthAdjust="spacingAndGlyphs" textLength="96" x="184.5" y="212.1543">std::shared_ptr</text><rect fill="#FFFFFF" height="15.9688" style="stroke: #000000; stroke-width: 1.0; stroke-dasharray: 2.0,2.0;" width="45" x="288.5" y="189"/><text fill="#000000" font-family="sans-serif" font-size="12" font-style="italic" lengthAdjust="spacingAndGlyphs" textLength="43" x="289.5" y="201.1387">Sensor</text><line style="stroke: #A80036; stroke-width: 1.5;" x1="156.5" x2="329.5" y1="224" y2="224"/><line style="stroke: #A80036; stroke-width: 1.5;" x1="156.5" x2="329.5" y1="232" y2="232"/><!--class C_0000517477364643921331--><rect fill="#FEFECE" filter="url(#f1wc9u1jx9owb6)" height="48" id="C_0000517477364643921331" style="stroke: #A80036; stroke-width: 1.5;" width="179" x="365.5" y="192"/><ellipse cx="380.5" cy="208" fill="#ADD1B2" rx="11" ry="11" style="stroke: #A80036; stroke-width: 1.0;"/><path d="M383.4688,213.6406 Q382.8906,213.9375 382.25,214.0781 Q381.6094,214.2344 380.9063,214.2344 Q378.4063,214.2344 377.0781,212.5938 Q375.7656,210.9375 375.7656,207.8125 Q375.7656,204.6875 377.0781,203.0313 Q378.4063,201.375 380.9063,201.375 Q381.6094,201.375 382.25,201.5313 Q382.9063,201.6875 383.4688,201.9844 L383.4688,204.7031 Q382.8438,204.125 382.25,203.8594 Q381.6563,203.5781 381.0313,203.5781 Q379.6875,203.5781 379,204.6563 Q378.3125,205.7188 378.3125,207.8125 Q378.3125,209.9063 379,210.9844 Q379.6875,212.0469 381.0313,212.0469 Q381.6563,212.0469 382.25,211.7813 Q382.8438,211.5 383.4688,210.9219 L383.4688,213.6406 Z "/><text fill="#000000" font-family="sans-serif" font-size="12" lengthAdjust="spacingAndGlyphs" textLength="96" x="394.5" y="212.1543">std::shared_ptr</text><rect fill="#FFFFFF" height="15.9688" style="stroke: #000000; stroke-width: 1.0; stroke-dasharray: 2.0,2.0;" width="49" x="498.5" y="189"/><text fill="#000000" font-family="sans-serif" font-size="12" font-style="italic" lengthAdjust="spacingAndGlyphs" textLength="47" x="499.5" y="201.1387">Planner</text><line style="stroke: #A80036; stroke-width: 1.5;" x1="366.5" x2="543.5" y1="224" y2="224"/><line style="stroke: #A80036; stroke-width: 1.5;" x1="366.5" x2="543.5" y1="232" y2="232"/><!--class C_0000723521372703994295--><rect fill="#FEFECE" filter="url(#f1wc9u1jx9owb6)" height="48" id="C_0000723521372703994295" style="stroke: #A80036; stroke-width: 1.5;" width="147" x="95.5" y="455"/><ellipse cx="110.5" cy="471" fill="#ADD1B2" rx="11" ry="11" style="stroke: #A80036; stroke-width: 1.0;"/><path d="M113.4688,476.6406 Q112.8906,476.9375 112.25,477.0781 Q111.6094,477.2344 110.9063,477.2344 Q108.4063,477.2344 107.0781,475.5938 Q105.7656,473.9375 105.7656,470.8125 Q105.7656,467.6875 107.0781,466.0313 Q108.4063,464.375 110.9063,464.375 Q111.6094,464.375 112.25,464.5313 Q112.9063,464.6875 113.4688,464.9844 L113.4688,467.7031 Q112.8438,467.125 112.25,466.8594 Q111.6563,466.5781 111.0313,466.5781 Q109.6875,466.5781 109,467.6563 Q108.3125,468.7188 108.3125,470.8125 Q108.3125,472.9063 109,473.9844 Q109.6875,475.0469 111.0313,475.0469 Q111.6563,475.0469 112.25,474.7813 Q112.8438,474.5 113.4688,473.9219 L113.4688,476.6406 Z "/><text fill="#000000" font-family="sans-serif" font-size="12" lengthAdjust="spacingAndGlyphs" textLength="115" x="124.5" y="475.1543">EnvironmentModel</text><line style="stroke: #A80036; stroke-width: 1.5;" x1="96.5" x2="241.5" y1="487" y2="487"/><line style="stroke: #A80036; stroke-width: 1.5;" x1="96.5" x2="241.5" y1="495" y2="495"/><!--class C_0001816244285415343406--><rect fill="#FEFECE" filter="url(#f1wc9u1jx9owb6)" height="60.8047" id="C_0001816244285415343406" style="stroke: #A80036; stroke-width: 1.5;" width="262" x="6" y="301"/><ellipse cx="110.75" cy="317" fill="#ADD1B2" rx="11" ry="11" style="stroke: #A80036; stroke-width: 1.0;"/><path d="M113.7188,322.6406 Q113.1406,322.9375 112.5,323.0781 Q111.8594,323.2344 111.1563,323.2344 Q108.6563,323.2344 107.3281,321.5938 Q106.0156,319.9375 106.0156,316.8125 Q106.0156,313.6875 107.3281,312.0313 Q108.6563,310.375 111.1563,310.375 Q111.8594,310.375 112.5,310.5313 Q113.1563,310.6875 113.7188,310.9844 L113.7188,313.7031 Q113.0938,313.125 112.5,312.8594 Q111.9063,312.5781 111.2813,312.5781 Q109.9375,312.5781 109.25,313.6563 Q108.5625,314.7188 108.5625,316.8125 Q108.5625,318.9063 109.25,319.9844 Q109.9375,321.0469 111.2813,321.0469 Q111.9063,321.0469 112.5,320.7813 Q113.0938,320.5 113.7188,319.9219 L113.7188,322.6406 Z "/><text fill="#000000" font-family="sans-serif" font-size="12" lengthAdjust="spacingAndGlyphs" textLength="44" x="131.25" y="321.1543">Sensor</text><line style="stroke: #A80036; stroke-width: 1.5;" x1="7" x2="267" y1="333" y2="333"/><ellipse cx="17" cy="344.9023" fill="#84BE84" rx="3" ry="3" style="stroke: #038048; stroke-width: 1.0;"/><text fill="#000000" font-family="sans-serif" font-size="11" lengthAdjust="spacingAndGlyphs" textLength="236" x="26" y="347.2104">model_environment() : EnvironmentModel</text><line style="stroke: #A80036; stroke-width: 1.5;" x1="7" x2="267" y1="353.8047" y2="353.8047"/><!--class C_0000740826215814649639--><rect fill="#FEFECE" filter="url(#f1wc9u1jx9owb6)" height="112.0234" id="C_0000740826215814649639" style="stroke: #A80036; stroke-width: 1.5;" width="409" x="288.5" y="423"/><ellipse cx="457.75" cy="439" fill="#ADD1B2" rx="11" ry="11" style="stroke: #A80036; stroke-width: 1.0;"/><path d="M460.7188,444.6406 Q460.1406,444.9375 459.5,445.0781 Q458.8594,445.2344 458.1563,445.2344 Q455.6563,445.2344 454.3281,443.5938 Q453.0156,441.9375 453.0156,438.8125 Q453.0156,435.6875 454.3281,434.0313 Q455.6563,432.375 458.1563,432.375 Q458.8594,432.375 459.5,432.5313 Q460.1563,432.6875 460.7188,432.9844 L460.7188,435.7031 Q460.0938,435.125 459.5,434.8594 Q458.9063,434.5781 458.2813,434.5781 Q456.9375,434.5781 456.25,435.6563 Q455.5625,436.7188 455.5625,438.8125 Q455.5625,440.9063 456.25,441.9844 Q456.9375,443.0469 458.2813,443.0469 Q458.9063,443.0469 459.5,442.7813 Q460.0938,442.5 460.7188,441.9219 L460.7188,444.6406 Z "/><text fill="#000000" font-family="sans-serif" font-size="12" lengthAdjust="spacingAndGlyphs" textLength="62" x="478.25" y="443.1543">Trajectory</text><line style="stroke: #A80036; stroke-width: 1.5;" x1="289.5" x2="696.5" y1="455" y2="455"/><ellipse cx="299.5" cy="466.9023" fill="#84BE84" rx="3" ry="3" style="stroke: #038048; stroke-width: 1.0;"/><text fill="#000000" font-family="sans-serif" font-size="11" lengthAdjust="spacingAndGlyphs" textLength="127" x="308.5" y="469.2104">control_vehicle() : void</text><line style="stroke: #A80036; stroke-width: 1.5;" x1="289.5" x2="696.5" y1="475.8047" y2="475.8047"/><rect fill="none" height="6" style="stroke: #C82930; stroke-width: 1.0;" width="6" x="296.5" y="484.707"/><text fill="#000000" font-family="sans-serif" font-size="11" lengthAdjust="spacingAndGlyphs" textLength="314" x="308.5" y="490.0151">brake_connection : control_actuators::BrakeConnection</text><rect fill="none" height="6" style="stroke: #C82930; stroke-width: 1.0;" width="6" x="296.5" y="497.5117"/><text fill="#000000" font-family="sans-serif" font-size="11" lengthAdjust="spacingAndGlyphs" textLength="210" x="308.5" y="502.8198">internals : Trajectory::TrajectoryData</text><rect fill="none" height="6" style="stroke: #C82930; stroke-width: 1.0;" width="6" x="296.5" y="510.3164"/><text fill="#000000" font-family="sans-serif" font-size="11" lengthAdjust="spacingAndGlyphs" textLength="380" x="308.5" y="515.6245">power_train_connection : control_actuators::PowerTrainConnection</text><rect fill="none" height="6" style="stroke: #C82930; stroke-width: 1.0;" width="6" x="296.5" y="523.1211"/><text fill="#000000" font-family="sans-serif" font-size="11" lengthAdjust="spacingAndGlyphs" textLength="383" x="308.5" y="528.4292">steering_wheel_connection : control_actuators::SteeringConnection</text><!--class C_0000077851926960506546--><rect fill="#FEFECE" filter="url(#f1wc9u1jx9owb6)" height="60.8047" id="C_0000077851926960506546" style="stroke: #A80036; stroke-width: 1.5;" width="380" x="303" y="301"/><ellipse cx="464.75" cy="317" fill="#ADD1B2" rx="11" ry="11" style="stroke: #A80036; stroke-width: 1.0;"/><path d="M467.7188,322.6406 Q467.1406,322.9375 466.5,323.0781 Q465.8594,323.2344 465.1563,323.2344 Q462.6563,323.2344 461.3281,321.5938 Q460.0156,319.9375 460.0156,316.8125 Q460.0156,313.6875 461.3281,312.0313 Q462.6563,310.375 465.1563,310.375 Q465.8594,310.375 466.5,310.5313 Q467.1563,310.6875 467.7188,310.9844 L467.7188,313.7031 Q467.0938,313.125 466.5,312.8594 Q465.9063,312.5781 465.2813,312.5781 Q463.9375,312.5781 463.25,313.6563 Q462.5625,314.7188 462.5625,316.8125 Q462.5625,318.9063 463.25,319.9844 Q463.9375,321.0469 465.2813,321.0469 Q465.9063,321.0469 466.5,320.7813 Q467.0938,320.5 467.7188,319.9219 L467.7188,322.6406 Z "/><text fill="#000000" font-family="sans-serif" font-size="12" lengthAdjust="spacingAndGlyphs" textLength="48" x="485.25" y="321.1543">Planner</text><line style="stroke: #A80036; stroke-width: 1.5;" x1="304" x2="682" y1="333" y2="333"/><ellipse cx="314" cy="344.9023" fill="#84BE84" rx="3" ry="3" style="stroke: #038048; stroke-width: 1.0;"/><text fill="#000000" font-family="sans-serif" font-size="11" lengthAdjust="spacingAndGlyphs" textLength="354" x="323" y="347.2104">plan_vehicle_behavior(const EnvironmentModel &amp;) : Trajectory</text><line style="stroke: #A80036; stroke-width: 1.5;" x1="304" x2="682" y1="353.8047" y2="353.8047"/><!--class C_0000978161556763682069--><rect fill="#FEFECE" filter="url(#f1wc9u1jx9owb6)" height="107.2188" id="C_0000978161556763682069" style="stroke: #A80036; stroke-width: 1.5;" width="546" x="102" y="8"/><ellipse cx="327.25" cy="24" fill="#ADD1B2" rx="11" ry="11" style="stroke: #A80036; stroke-width: 1.0;"/><path d="M330.2188,29.6406 Q329.6406,29.9375 329,30.0781 Q328.3594,30.2344 327.6563,30.2344 Q325.1563,30.2344 323.8281,28.5938 Q322.5156,26.9375 322.5156,23.8125 Q322.5156,20.6875 323.8281,19.0313 Q325.1563,17.375 327.6563,17.375 Q328.3594,17.375 329,17.5313 Q329.6563,17.6875 330.2188,17.9844 L330.2188,20.7031 Q329.5938,20.125 329,19.8594 Q328.4063,19.5781 327.7813,19.5781 Q326.4375,19.5781 325.75,20.6563 Q325.0625,21.7188 325.0625,23.8125 Q325.0625,25.9063 325.75,26.9844 Q326.4375,28.0469 327.7813,28.0469 Q328.4063,28.0469 329,27.7813 Q329.5938,27.5 330.2188,26.9219 L330.2188,29.6406 Z "/><text fill="#000000" font-family="sans-serif" font-size="12" lengthAdjust="spacingAndGlyphs" textLength="87" x="347.75" y="28.1543">DrivingSystem</text><line style="stroke: #A80036; stroke-width: 1.5;" x1="103" x2="647" y1="40" y2="40"/><ellipse cx="113" cy="51.9023" fill="#84BE84" rx="3" ry="3" style="stroke: #038048; stroke-width: 1.0;"/><text fill="#000000" font-family="sans-serif" font-size="11" lengthAdjust="spacingAndGlyphs" textLength="520" x="122" y="54.2104">DrivingSystem(std::shared_ptr&lt;Sensor&gt; sensor, std::shared_ptr&lt;Planner&gt; planner) : void</text><line style="stroke: #A80036; stroke-width: 1.0; stroke-dasharray: 1.0,2.0;" x1="103" x2="647" y1="60.8047" y2="60.8047"/><ellipse cx="113" cy="72.707" fill="#84BE84" rx="3" ry="3" style="stroke: #038048; stroke-width: 1.0;"/><text fill="#000000" font-family="sans-serif" font-size="11" lengthAdjust="spacingAndGlyphs" textLength="98" x="122" y="75.0151">one_cycle() : void</text><line style="stroke: #A80036; stroke-width: 1.5;" x1="103" x2="647" y1="81.6094" y2="81.6094"/><rect fill="none" height="6" style="stroke: #C82930; stroke-width: 1.0;" width="6" x="110" y="90.5117"/><text fill="#000000" font-family="sans-serif" font-size="11" lengthAdjust="spacingAndGlyphs" textLength="204" x="122" y="95.8198">planner : std::shared_ptr&lt;Planner&gt;</text><rect fill="none" height="6" style="stroke: #C82930; stroke-width: 1.0;" width="6" x="110" y="103.3164"/><text fill="#000000" font-family="sans-serif" font-size="11" lengthAdjust="spacingAndGlyphs" textLength="199" x="122" y="108.6245">sensor : std::shared_ptr&lt;Sensor&gt;</text><!--link C_0000885653978909508775 to C_0001816244285415343406--><path d="M221.29,240.24 C206.09,256.52 185.53,278.53 168.53,296.74 " fill="none" id="C_0000885653978909508775-C_0001816244285415343406" style="stroke: #A80036; stroke-width: 1.0; stroke-dasharray: 7.0,7.0;"/><polygon fill="#A80036" points="164.73,300.81,173.8031,296.9787,168.1492,297.1619,167.9661,291.508,164.73,300.81" style="stroke: #A80036; stroke-width: 1.0;"/><!--link C_0000517477364643921331 to C_0000077851926960506546--><path d="M462.78,240.24 C468.14,256.25 475.35,277.8 481.39,295.82 " fill="none" id="C_0000517477364643921331-C_0000077851926960506546" style="stroke: #A80036; stroke-width: 1.0; stroke-dasharray: 7.0,7.0;"/><polygon fill="#A80036" points="483.06,300.81,483.9998,291.0061,481.4746,296.068,476.4126,293.5428,483.06,300.81" style="stroke: #A80036; stroke-width: 1.0;"/><!--link C_0001816244285415343406 to C_0000723521372703994295--><path d="M143.55,362.3 C149.19,387.91 157.25,424.59 162.79,449.75 " fill="none" id="C_0001816244285415343406-C_0000723521372703994295" style="stroke: #A80036; stroke-width: 1.0; stroke-dasharray: 7.0,7.0;"/><polygon fill="#A80036" points="163.93,454.93,165.8824,445.2766,162.8453,450.0491,158.0729,447.012,163.93,454.93" style="stroke: #A80036; stroke-width: 1.0;"/><!--link C_0000077851926960506546 to C_0000723521372703994295--><path d="M414.8,362 C371.87,378.79 317.96,400.85 271,423 C252.05,431.94 231.63,442.71 214.08,452.35 " fill="none" id="C_0000077851926960506546-C_0000723521372703994295" style="stroke: #A80036; stroke-width: 1.0; stroke-dasharray: 7.0,7.0;"/><polygon fill="#A80036" points="209.68,454.77,219.4933,453.9339,214.0602,452.3588,215.6353,446.9256,209.68,454.77" style="stroke: #A80036; stroke-width: 1.0;"/><!--link C_0000077851926960506546 to C_0000740826215814649639--><path d="M493,362.3 C493,378.25 493,398.51 493,417.6 " fill="none" id="C_0000077851926960506546-C_0000740826215814649639" style="stroke: #A80036; stroke-width: 1.0; stroke-dasharray: 7.0,7.0;"/><polygon fill="#A80036" points="493,422.95,497,413.95,493,417.95,489,413.95,493,422.95" style="stroke: #A80036; stroke-width: 1.0;"/><!--link C_0000978161556763682069 to C_0001816244285415343406--><path d="M171.31,115.1 C135.56,133.58 102.86,158.48 81,192 C59.53,224.92 83.1,267.4 105.91,296.59 " fill="none" id="C_0000978161556763682069-C_0001816244285415343406" style="stroke: #A80036; stroke-width: 1.0;"/><polygon fill="#A80036" points="109.27,300.79,106.7967,291.2567,106.157,296.8773,100.5364,296.2376,109.27,300.79" style="stroke: #A80036; stroke-width: 1.0;"/><rect fill="none" height="6" style="stroke: #C82930; stroke-width: 1.0;" width="6" x="84" y="213.5664"/><text fill="#000000" font-family="sans-serif" font-size="13" lengthAdjust="spacingAndGlyphs" textLength="43" x="94" y="220.5669">sensor</text><!--link C_0000978161556763682069 to C_0000885653978909508775--><path d="M329.2,115.41 C307.98,139.93 283.68,168.01 266.29,188.09 " fill="none" id="C_0000978161556763682069-C_0000885653978909508775" style="stroke: #A80036; stroke-width: 1.0;"/><polygon fill="#A80036" points="262.91,191.99,271.8211,187.7957,266.1792,188.2068,265.7681,182.565,262.91,191.99" style="stroke: #A80036; stroke-width: 1.0;"/><rect fill="none" height="6" style="stroke: #C82930; stroke-width: 1.0;" width="6" x="305" y="151.0664"/><text fill="#000000" font-family="sans-serif" font-size="13" lengthAdjust="spacingAndGlyphs" textLength="43" x="315" y="158.0669">sensor</text><!--link C_0000978161556763682069 to C_0000077851926960506546--><path d="M488.51,115.31 C517.92,134.95 545.83,160.35 562,192 C580.31,227.83 553.57,269.14 528.24,297.26 " fill="none" id="C_0000978161556763682069-C_0000077851926960506546" style="stroke: #A80036; stroke-width: 1.0;"/><polygon fill="#A80036" points="524.84,300.96,533.866,297.019,528.2147,297.2707,527.9631,291.6194,524.84,300.96" style="stroke: #A80036; stroke-width: 1.0;"/><rect fill="none" height="6" style="stroke: #C82930; stroke-width: 1.0;" width="6" x="571" y="213.5664"/><text fill="#000000" font-family="sans-serif" font-size="13" lengthAdjust="spacingAndGlyphs" textLength="48" x="581" y="220.5669">planner</text><!--link C_0000978161556763682069 to C_0000517477364643921331--><path d="M402.76,115.41 C415.46,139.62 429.98,167.31 440.49,187.33 " fill="none" id="C_0000978161556763682069-C_0000517477364643921331" style="stroke: #A80036; stroke-width: 1.0;"/><polygon fill="#A80036" points="442.93,191.99,442.2819,182.1625,440.603,187.5645,435.201,185.8856,442.93,191.99" style="stroke: #A80036; stroke-width: 1.0;"/><rect fill="none" height="6" style="stroke: #C82930; stroke-width: 1.0;" width="6" x="430" y="151.0664"/><text fill="#000000" font-family="sans-serif" font-size="13" lengthAdjust="spacingAndGlyphs" textLength="48" x="440" y="158.0669">planner</text><!--
@startuml
class "std::shared_ptr<Sensor>" as C_0000885653978909508775
class C_0000885653978909508775 {
__
}
class "std::shared_ptr<Planner>" as C_0000517477364643921331
class C_0000517477364643921331 {
__
}
class "EnvironmentModel" as C_0000723521372703994295
class C_0000723521372703994295 {
__
}
class "Sensor" as C_0001816244285415343406
class C_0001816244285415343406 {
+model_environment() : EnvironmentModel
__
}
class "Trajectory" as C_0000740826215814649639
class C_0000740826215814649639 {
+control_vehicle() : void
__
-brake_connection : control_actuators::BrakeConnection
-internals : Trajectory::TrajectoryData
-power_train_connection : control_actuators::PowerTrainConnection
-steering_wheel_connection : control_actuators::SteeringConnection
}
class "Planner" as C_0000077851926960506546
class C_0000077851926960506546 {
+plan_vehicle_behavior(const EnvironmentModel &) : Trajectory
__
}
class "DrivingSystem" as C_0000978161556763682069
class C_0000978161556763682069 {
+DrivingSystem(std::shared_ptr<Sensor> sensor, std::shared_ptr<Planner> planner) : void
..
+one_cycle() : void
__
-planner : std::shared_ptr<Planner>
-sensor : std::shared_ptr<Sensor>
}
C_0000885653978909508775 ..> C_0001816244285415343406
C_0000517477364643921331 ..> C_0000077851926960506546
C_0001816244285415343406 ..> C_0000723521372703994295
C_0000077851926960506546 ..> C_0000723521372703994295
C_0000077851926960506546 ..> C_0000740826215814649639
C_0000978161556763682069 - -> C_0001816244285415343406 : -sensor
C_0000978161556763682069 - -> C_0000885653978909508775 : -sensor
C_0000978161556763682069 - -> C_0000077851926960506546 : -planner
C_0000978161556763682069 - -> C_0000517477364643921331 : -planner

@enduml

PlantUML version 1.2018.13(Mon Nov 26 18:11:51 CET 2018)
(GPL source distribution)
Java Runtime: OpenJDK Runtime Environment
JVM: OpenJDK 64-Bit Server VM
Java Version: 11.0.21+9-post-Ubuntu-0ubuntu120.04
Operating System: Linux
OS Version: 5.15.0-91-generic
Default Encoding: UTF-8
Language: de
Country: DE
--></g></svg>